<ttFont>
    <TTGlyph name=".notdef" xMin="130" yMin="-435" xMax="1371" yMax="1540">
      <contour>
        <pt x="130" y="1540" on="1"/>
        <pt x="1371" y="1540" on="1"/>
        <pt x="1371" y="-435" on="1"/>
        <pt x="130" y="-435" on="1"/>
      </contour>
      <contour>
        <pt x="842" y="552" on="1"/>
        <pt x="1185" y="-246" on="1"/>
        <pt x="1185" y="1351" on="1"/>
      </contour>
      <contour>
        <pt x="658" y="552" on="1"/>
        <pt x="316" y="1351" on="1"/>
        <pt x="316" y="-246" on="1"/>
      </contour>
      <contour>
        <pt x="750" y="338" on="1"/>
        <pt x="491" y="-266" on="1"/>
        <pt x="1010" y="-266" on="1"/>
      </contour>
      <contour>
        <pt x="750" y="766" on="1"/>
        <pt x="1010" y="1371" on="1"/>
        <pt x="491" y="1371" on="1"/>
      </contour>
    </TTGlyph>
    <TTGlyph name="A" xMin="-92" yMin="0" xMax="1233" yMax="1353">
      <contour>
        <pt x="320" y="0" on="1"/>
        <pt x="-84" y="0" on="1"/>
        <pt x="-92" y="105" on="1"/>
        <pt x="18" y="125" on="1"/>
        <pt x="631" y="1353" on="1"/>
        <pt x="870" y="1353" on="1"/>
        <pt x="1127" y="124" on="1"/>
        <pt x="1233" y="105" on="1"/>
        <pt x="1216" y="0" on="1"/>
        <pt x="699" y="0" on="1"/>
        <pt x="691" y="105" on="1"/>
        <pt x="828" y="124" on="1"/>
        <pt x="774" y="396" on="1"/>
        <pt x="337" y="396" on="1"/>
        <pt x="204" y="123" on="1"/>
        <pt x="337" y="105" on="1"/>
      </contour>
      <contour>
        <pt x="636" y="1007" on="1"/>
        <pt x="395" y="515" on="1"/>
        <pt x="750" y="515" on="1"/>
        <pt x="652" y="1007" on="1"/>
      </contour>
    </TTGlyph>
    <TTGlyph name="AE" xMin="-100" yMin="0" xMax="1806" yMax="1353">
      <contour>
        <pt x="1132" y="648" on="1"/>
        <pt x="1058" y="119" on="1"/>
        <pt x="1466" y="119" on="1"/>
        <pt x="1571" y="322" on="1"/>
        <pt x="1711" y="309" on="1"/>
        <pt x="1645" y="0" on="1"/>
        <pt x="633" y="0" on="1"/>
        <pt x="628" y="105" on="1"/>
        <pt x="758" y="125" on="1"/>
        <pt x="798" y="406" on="1"/>
        <pt x="400" y="406" on="1"/>
        <pt x="215" y="121" on="1"/>
        <pt x="329" y="105" on="1"/>
        <pt x="312" y="0" on="1"/>
        <pt x="-92" y="0" on="1"/>
        <pt x="-100" y="105" on="1"/>
        <pt x="20" y="125" on="1"/>
        <pt x="833" y="1353" on="1"/>
        <pt x="1806" y="1353" on="1"/>
        <pt x="1787" y="1033" on="1"/>
        <pt x="1641" y="1033" on="1"/>
        <pt x="1601" y="1234" on="1"/>
        <pt x="1215" y="1234" on="1"/>
        <pt x="1149" y="767" on="1"/>
        <pt x="1446" y="767" on="1"/>
        <pt x="1486" y="894" on="1"/>
        <pt x="1589" y="874" on="1"/>
        <pt x="1533" y="519" on="1"/>
        <pt x="1426" y="514" on="1"/>
        <pt x="1426" y="648" on="1"/>
      </contour>
      <contour>
        <pt x="815" y="525" on="1"/>
        <pt x="908" y="1186" on="1"/>
        <pt x="478" y="525" on="1"/>
      </contour>
    </TTGlyph>
    <TTGlyph name="AEacute" xMin="-100" yMin="0" xMax="1806" yMax="1784">
      <component glyphName="AE" x="0" y="0" flags="0x204"/>
      <component glyphName="acute.case" x="1000" y="0" flags="0x4"/>
    </TTGlyph>
    <TTGlyph name="Aacute" xMin="-92" yMin="0" xMax="1233" yMax="1784">
      <component glyphName="A" x="0" y="0" flags="0x204"/>
      <component glyphName="acute.case" x="560" y="0" flags="0x4"/>
    </TTGlyph>
    <TTGlyph name="Abreve" xMin="-92" yMin="0" xMax="1233" yMax="1759">
      <component glyphName="A" x="0" y="0" flags="0x204"/>
      <component glyphName="breve.case" x="513" y="0" flags="0x4"/>
    </TTGlyph>
    <TTGlyph name="Acircumflex" xMin="-92" yMin="0" xMax="1233" yMax="1794">
      <component glyphName="A" x="0" y="0" flags="0x204"/>
      <component glyphName="circumflex.case" x="504" y="0" flags="0x4"/>
    </TTGlyph>
    <TTGlyph name="Adieresis" xMin="-92" yMin="0" xMax="1233" yMax="1728">
      <component glyphName="A" x="0" y="0" flags="0x204"/>
      <component glyphName="dieresis.case" x="481" y="0" flags="0x4"/>
    </TTGlyph>
    <TTGlyph name="Agrave" xMin="-92" yMin="0" xMax="1233" yMax="1784">
      <component glyphName="A" x="0" y="0" flags="0x204"/>
      <component glyphName="grave.case" x="305" y="0" flags="0x4"/>
    </TTGlyph>
    <TTGlyph name="Amacron" xMin="-92" yMin="0" xMax="1233" yMax="1680">
      <component glyphName="A" x="0" y="0" flags="0x204"/>
      <component glyphName="macron.case" x="499" y="0" flags="0x4"/>
    </TTGlyph>
    <TTGlyph name="Aogonek" xMin="-92" yMin="-457" xMax="1233" yMax="1353">
      <contour>
        <pt x="853" y="0" on="1"/>
        <pt x="761" y="-67" on="0"/>
        <pt x="646" y="-209" on="0"/>
        <pt x="636" y="-274" on="1"/>
        <pt x="630" y="-315" on="0"/>
        <pt x="655" y="-347" on="0"/>
        <pt x="685" y="-347" on="1"/>
        <pt x="708" y="-347" on="0"/>
        <pt x="766" y="-322" on="0"/>
        <pt x="823" y="-289" on="0"/>
        <pt x="855" y="-267" on="1"/>
        <pt x="839" y="-370" on="1"/>
        <pt x="807" y="-395" on="0"/>
        <pt x="734" y="-431" on="0"/>
        <pt x="643" y="-457" on="0"/>
        <pt x="588" y="-457" on="1"/>
        <pt x="548" y="-457" on="0"/>
        <pt x="487" y="-443" on="0"/>
        <pt x="449" y="-411" on="0"/>
        <pt x="434" y="-357" on="0"/>
        <pt x="439" y="-316" on="1"/>
        <pt x="446" y="-259" on="0"/>
        <pt x="514" y="-145" on="0"/>
        <pt x="619" y="-36" on="0"/>
        <pt x="754" y="66" on="0"/>
        <pt x="830" y="113" on="1"/>
        <pt x="774" y="396" on="1"/>
        <pt x="337" y="396" on="1"/>
        <pt x="204" y="123" on="1"/>
        <pt x="337" y="105" on="1"/>
        <pt x="320" y="0" on="1"/>
        <pt x="-84" y="0" on="1"/>
        <pt x="-92" y="105" on="1"/>
        <pt x="18" y="125" on="1"/>
        <pt x="631" y="1353" on="1"/>
        <pt x="870" y="1353" on="1"/>
        <pt x="1127" y="124" on="1"/>
        <pt x="1233" y="105" on="1"/>
        <pt x="1216" y="0" on="1"/>
      </contour>
      <contour>
        <pt x="636" y="1007" on="1"/>
        <pt x="395" y="515" on="1"/>
        <pt x="750" y="515" on="1"/>
        <pt x="652" y="1007" on="1"/>
      </contour>
    </TTGlyph>
    <TTGlyph name="Aring" xMin="-92" yMin="0" xMax="1233" yMax="1799">
      <component glyphName="A" x="0" y="0" flags="0x204"/>
      <component glyphName="ring.case" x="505" y="0" flags="0x4"/>
    </TTGlyph>
    <TTGlyph name="Aringacute" xMin="-92" yMin="0" xMax="1321" yMax="2163">
      <component glyphName="A" x="0" y="0" flags="0x204"/>
      <component glyphName="ring.case" x="531" y="0" flags="0x4"/>
      <component glyphName="acute.case" x="701" y="379" flags="0x4"/>
    </TTGlyph>
    <TTGlyph name="Atilde" xMin="-92" yMin="0" xMax="1257" yMax="1777">
      <component glyphName="A" x="0" y="0" flags="0x204"/>
      <component glyphName="tilde.case" x="496" y="0" flags="0x4"/>
    </TTGlyph>
    <TTGlyph name="B" xMin="-2" yMin="0" xMax="1178" yMax="1353">
      <contour>
        <pt x="3" y="0" on="1"/>
        <pt x="-2" y="105" on="1"/>
        <pt x="128" y="125" on="1"/>
        <pt x="284" y="1228" on="1"/>
        <pt x="153" y="1248" on="1"/>
        <pt x="173" y="1353" on="1"/>
        <pt x="717" y="1353" on="1"/>
        <pt x="956" y="1353" on="0"/>
        <pt x="1178" y="1199" on="0"/>
        <pt x="1154" y="1032" on="1"/>
        <pt x="1140" y="929" on="0"/>
        <pt x="991" y="770" on="0"/>
        <pt x="853" y="720" on="1"/>
        <pt x="853" y="704" on="1"/>
        <pt x="991" y="678" on="0"/>
        <pt x="1139" y="514" on="0"/>
        <pt x="1121" y="386" on="1"/>
        <pt x="1095" y="211" on="0"/>
        <pt x="826" y="0" on="0"/>
        <pt x="603" y="0" on="1"/>
      </contour>
      <contour>
        <pt x="517" y="119" on="1"/>
        <pt x="581" y="119" on="0"/>
        <pt x="700" y="129" on="0"/>
        <pt x="745" y="142" on="1"/>
        <pt x="766" y="178" on="0"/>
        <pt x="810" y="304" on="0"/>
        <pt x="820" y="378" on="1"/>
        <pt x="838" y="506" on="0"/>
        <pt x="734" y="643" on="0"/>
        <pt x="605" y="643" on="1"/>
        <pt x="502" y="643" on="1"/>
        <pt x="428" y="119" on="1"/>
      </contour>
      <contour>
        <pt x="600" y="762" on="1"/>
        <pt x="643" y="762" on="0"/>
        <pt x="736" y="772" on="0"/>
        <pt x="773" y="781" on="1"/>
        <pt x="800" y="828" on="0"/>
        <pt x="843" y="955" on="0"/>
        <pt x="851" y="1013" on="1"/>
        <pt x="867" y="1128" on="0"/>
        <pt x="765" y="1234" on="0"/>
        <pt x="648" y="1234" on="1"/>
        <pt x="585" y="1234" on="1"/>
        <pt x="519" y="762" on="1"/>
      </contour>
    </TTGlyph>
    <TTGlyph name="C" xMin="22" yMin="-22" xMax="1208" yMax="1375">
      <contour>
        <pt x="70" y="604" on="1"/>
        <pt x="123" y="985" on="0"/>
        <pt x="516" y="1375" on="0"/>
        <pt x="838" y="1375" on="1"/>
        <pt x="952" y="1375" on="0"/>
        <pt x="1151" y="1340" on="0"/>
        <pt x="1208" y="1316" on="1"/>
        <pt x="1191" y="1026" on="1"/>
        <pt x="1023" y="1026" on="1"/>
        <pt x="977" y="1236" on="1"/>
        <pt x="945" y="1246" on="0"/>
        <pt x="850" y="1256" on="0"/>
        <pt x="810" y="1256" on="1"/>
        <pt x="732" y="1256" on="0"/>
        <pt x="587" y="1217" on="0"/>
        <pt x="537" y="1188" on="1"/>
        <pt x="485" y="1073" on="0"/>
        <pt x="410" y="816" on="0"/>
        <pt x="391" y="683" on="1"/>
        <pt x="373" y="550" on="1"/>
        <pt x="343" y="330" on="0"/>
        <pt x="514" y="97" on="0"/>
        <pt x="695" y="97" on="1"/>
        <pt x="788" y="97" on="0"/>
        <pt x="997" y="155" on="0"/>
        <pt x="1087" y="201" on="1"/>
        <pt x="1072" y="105" on="1"/>
        <pt x="971" y="47" on="0"/>
        <pt x="720" y="-22" on="0"/>
        <pt x="595" y="-22" on="1"/>
        <pt x="287" y="-22" on="0"/>
        <pt x="22" y="252" on="0"/>
        <pt x="58" y="515" on="1"/>
      </contour>
    </TTGlyph>
    <TTGlyph name="Cacute" xMin="22" yMin="-22" xMax="1297" yMax="1784">
      <component glyphName="C" x="0" y="0" flags="0x204"/>
      <component glyphName="acute.case" x="677" y="0" flags="0x4"/>
    </TTGlyph>
    <TTGlyph name="Ccaron" xMin="22" yMin="-22" xMax="1285" yMax="1794">
      <component glyphName="C" x="0" y="0" flags="0x204"/>
      <component glyphName="caron.case" x="612" y="0" flags="0x4"/>
    </TTGlyph>
    <TTGlyph name="Ccedilla" xMin="22" yMin="-457" xMax="1208" yMax="1375">
      <contour>
        <pt x="70" y="604" on="1"/>
        <pt x="123" y="985" on="0"/>
        <pt x="516" y="1375" on="0"/>
        <pt x="838" y="1375" on="1"/>
        <pt x="952" y="1375" on="0"/>
        <pt x="1151" y="1340" on="0"/>
        <pt x="1208" y="1316" on="1"/>
        <pt x="1191" y="1026" on="1"/>
        <pt x="1023" y="1026" on="1"/>
        <pt x="977" y="1236" on="1"/>
        <pt x="945" y="1246" on="0"/>
        <pt x="850" y="1256" on="0"/>
        <pt x="810" y="1256" on="1"/>
        <pt x="732" y="1256" on="0"/>
        <pt x="587" y="1217" on="0"/>
        <pt x="537" y="1188" on="1"/>
        <pt x="485" y="1073" on="0"/>
        <pt x="410" y="816" on="0"/>
        <pt x="391" y="683" on="1"/>
        <pt x="373" y="550" on="1"/>
        <pt x="343" y="330" on="0"/>
        <pt x="514" y="97" on="0"/>
        <pt x="695" y="97" on="1"/>
        <pt x="788" y="97" on="0"/>
        <pt x="997" y="155" on="0"/>
        <pt x="1087" y="201" on="1"/>
        <pt x="1072" y="105" on="1"/>
        <pt x="971" y="47" on="0"/>
        <pt x="845" y="12" on="1"/>
        <pt x="748" y="-14" on="0"/>
        <pt x="652" y="-20" on="1"/>
        <pt x="609" y="-105" on="1"/>
        <pt x="658" y="-114" on="0"/>
        <pt x="734" y="-141" on="0"/>
        <pt x="784" y="-183" on="0"/>
        <pt x="805" y="-243" on="0"/>
        <pt x="799" y="-284" on="1"/>
        <pt x="793" y="-323" on="0"/>
        <pt x="751" y="-387" on="0"/>
        <pt x="682" y="-432" on="0"/>
        <pt x="588" y="-457" on="0"/>
        <pt x="531" y="-457" on="1"/>
        <pt x="489" y="-457" on="0"/>
        <pt x="415" y="-443" on="0"/>
        <pt x="356" y="-423" on="0"/>
        <pt x="333" y="-410" on="1"/>
        <pt x="346" y="-317" on="1"/>
        <pt x="372" y="-328" on="0"/>
        <pt x="426" y="-345" on="0"/>
        <pt x="490" y="-357" on="0"/>
        <pt x="519" y="-357" on="1"/>
        <pt x="541" y="-357" on="0"/>
        <pt x="576" y="-353" on="0"/>
        <pt x="588" y="-350" on="1"/>
        <pt x="592" y="-344" on="0"/>
        <pt x="598" y="-331" on="0"/>
        <pt x="604" y="-311" on="0"/>
        <pt x="606" y="-297" on="1"/>
        <pt x="609" y="-273" on="0"/>
        <pt x="601" y="-238" on="0"/>
        <pt x="573" y="-212" on="0"/>
        <pt x="523" y="-193" on="0"/>
        <pt x="485" y="-186" on="1"/>
        <pt x="459" y="-122" on="1"/>
        <pt x="510" y="-19" on="1"/>
        <pt x="268" y="-2" on="0"/>
        <pt x="154" y="115" on="1"/>
        <pt x="22" y="252" on="0"/>
        <pt x="58" y="515" on="1"/>
      </contour>
    </TTGlyph>
    <TTGlyph name="Ccircumflex" xMin="22" yMin="-22" xMax="1254" yMax="1794">
      <component glyphName="C" x="0" y="0" flags="0x204"/>
      <component glyphName="circumflex.case" x="621" y="0" flags="0x4"/>
    </TTGlyph>
    <TTGlyph name="Cdotaccent" xMin="22" yMin="-22" xMax="1208" yMax="1751">
      <component glyphName="C" x="0" y="0" flags="0x204"/>
      <component glyphName="dotaccent.case" x="641" y="0" flags="0x4"/>
    </TTGlyph>
    <TTGlyph name="D" xMin="0" yMin="0" xMax="1395" yMax="1353">
      <contour>
        <pt x="5" y="0" on="1"/>
        <pt x="0" y="105" on="1"/>
        <pt x="130" y="125" on="1"/>
        <pt x="286" y="1228" on="1"/>
        <pt x="155" y="1248" on="1"/>
        <pt x="175" y="1353" on="1"/>
        <pt x="771" y="1353" on="1"/>
        <pt x="1111" y="1353" on="0"/>
        <pt x="1395" y="1046" on="0"/>
        <pt x="1352" y="742" on="1"/>
        <pt x="1340" y="654" on="1"/>
        <pt x="1296" y="341" on="0"/>
        <pt x="921" y="0" on="0"/>
        <pt x="628" y="0" on="1"/>
      </contour>
      <contour>
        <pt x="593" y="119" on="1"/>
        <pt x="665" y="119" on="0"/>
        <pt x="802" y="137" on="0"/>
        <pt x="857" y="158" on="1"/>
        <pt x="914" y="233" on="0"/>
        <pt x="1015" y="475" on="0"/>
        <pt x="1036" y="622" on="1"/>
        <pt x="1049" y="716" on="1"/>
        <pt x="1086" y="981" on="0"/>
        <pt x="927" y="1234" on="0"/>
        <pt x="724" y="1234" on="1"/>
        <pt x="587" y="1234" on="1"/>
        <pt x="430" y="119" on="1"/>
      </contour>
    </TTGlyph>
    <TTGlyph name="Dcaron" xMin="0" yMin="0" xMax="1395" yMax="1794">
      <component glyphName="D" x="0" y="0" flags="0x204"/>
      <component glyphName="caron.case" x="486" y="0" flags="0x4"/>
    </TTGlyph>
    <TTGlyph name="Dcroat" xMin="0" yMin="0" xMax="1395" yMax="1353">
      <contour>
        <pt x="51" y="750" on="1"/>
        <pt x="218" y="750" on="1"/>
        <pt x="286" y="1228" on="1"/>
        <pt x="155" y="1248" on="1"/>
        <pt x="175" y="1353" on="1"/>
        <pt x="771" y="1353" on="1"/>
        <pt x="1111" y="1353" on="0"/>
        <pt x="1395" y="1046" on="0"/>
        <pt x="1352" y="742" on="1"/>
        <pt x="1340" y="654" on="1"/>
        <pt x="1296" y="341" on="0"/>
        <pt x="921" y="0" on="0"/>
        <pt x="628" y="0" on="1"/>
        <pt x="5" y="0" on="1"/>
        <pt x="0" y="105" on="1"/>
        <pt x="130" y="125" on="1"/>
        <pt x="203" y="640" on="1"/>
        <pt x="36" y="640" on="1"/>
      </contour>
      <contour>
        <pt x="593" y="119" on="1"/>
        <pt x="665" y="119" on="0"/>
        <pt x="802" y="137" on="0"/>
        <pt x="857" y="158" on="1"/>
        <pt x="914" y="233" on="0"/>
        <pt x="1015" y="475" on="0"/>
        <pt x="1036" y="622" on="1"/>
        <pt x="1049" y="716" on="1"/>
        <pt x="1086" y="981" on="0"/>
        <pt x="927" y="1234" on="0"/>
        <pt x="724" y="1234" on="1"/>
        <pt x="587" y="1234" on="1"/>
        <pt x="519" y="750" on="1"/>
        <pt x="707" y="750" on="1"/>
        <pt x="692" y="640" on="1"/>
        <pt x="503" y="640" on="1"/>
        <pt x="430" y="119" on="1"/>
      </contour>
    </TTGlyph>
    <TTGlyph name="Ddotaccent" xMin="0" yMin="0" xMax="1395" yMax="1751">
      <component glyphName="D" x="0" y="0" flags="0x204"/>
      <component glyphName="dotaccent.case" x="515" y="0" flags="0x4"/>
    </TTGlyph>
    <TTGlyph name="E" xMin="-2" yMin="0" xMax="1216" yMax="1353">
      <contour>
        <pt x="502" y="648" on="1"/>
        <pt x="428" y="119" on="1"/>
        <pt x="856" y="119" on="1"/>
        <pt x="961" y="322" on="1"/>
        <pt x="1121" y="309" on="1"/>
        <pt x="1055" y="0" on="1"/>
        <pt x="3" y="0" on="1"/>
        <pt x="-2" y="105" on="1"/>
        <pt x="128" y="125" on="1"/>
        <pt x="284" y="1228" on="1"/>
        <pt x="153" y="1248" on="1"/>
        <pt x="173" y="1353" on="1"/>
        <pt x="1216" y="1353" on="1"/>
        <pt x="1197" y="1033" on="1"/>
        <pt x="1031" y="1033" on="1"/>
        <pt x="991" y="1234" on="1"/>
        <pt x="585" y="1234" on="1"/>
        <pt x="519" y="767" on="1"/>
        <pt x="836" y="767" on="1"/>
        <pt x="876" y="894" on="1"/>
        <pt x="979" y="874" on="1"/>
        <pt x="923" y="519" on="1"/>
        <pt x="816" y="514" on="1"/>
        <pt x="816" y="648" on="1"/>
      </contour>
    </TTGlyph>
    <TTGlyph name="Eacute" xMin="-2" yMin="0" xMax="1216" yMax="1784">
      <component glyphName="E" x="0" y="0" flags="0x204"/>
      <component glyphName="acute.case" x="553" y="0" flags="0x4"/>
    </TTGlyph>
    <TTGlyph name="Ebreve" xMin="-2" yMin="0" xMax="1216" yMax="1759">
      <component glyphName="E" x="0" y="0" flags="0x204"/>
      <component glyphName="breve.case" x="506" y="0" flags="0x4"/>
    </TTGlyph>
    <TTGlyph name="Ecaron" xMin="-2" yMin="0" xMax="1216" yMax="1794">
      <component glyphName="E" x="0" y="0" flags="0x204"/>
      <component glyphName="caron.case" x="488" y="0" flags="0x4"/>
    </TTGlyph>
    <TTGlyph name="Ecircumflex" xMin="-2" yMin="0" xMax="1216" yMax="1794">
      <component glyphName="E" x="0" y="0" flags="0x204"/>
      <component glyphName="circumflex.case" x="497" y="0" flags="0x4"/>
    </TTGlyph>
    <TTGlyph name="Edieresis" xMin="-2" yMin="0" xMax="1216" yMax="1728">
      <component glyphName="E" x="0" y="0" flags="0x204"/>
      <component glyphName="dieresis.case" x="474" y="0" flags="0x4"/>
    </TTGlyph>
    <TTGlyph name="Edotaccent" xMin="-2" yMin="0" xMax="1216" yMax="1751">
      <component glyphName="E" x="0" y="0" flags="0x204"/>
      <component glyphName="dotaccent.case" x="517" y="0" flags="0x4"/>
    </TTGlyph>
    <TTGlyph name="Egrave" xMin="-2" yMin="0" xMax="1216" yMax="1784">
      <component glyphName="E" x="0" y="0" flags="0x204"/>
      <component glyphName="grave.case" x="298" y="0" flags="0x4"/>
    </TTGlyph>
    <TTGlyph name="Emacron" xMin="-2" yMin="0" xMax="1216" yMax="1680">
      <component glyphName="E" x="0" y="0" flags="0x204"/>
      <component glyphName="macron.case" x="492" y="0" flags="0x4"/>
    </TTGlyph>
    <TTGlyph name="Eng" xMin="-8" yMin="-457" xMax="1591" yMax="1353">
      <contour>
        <pt x="1158" y="1353" on="1"/>
        <pt x="1586" y="1353" on="1"/>
        <pt x="1591" y="1248" on="1"/>
        <pt x="1460" y="1228" on="1"/>
        <pt x="1287" y="0" on="1"/>
        <pt x="1270" y="-120" on="0"/>
        <pt x="1192" y="-292" on="0"/>
        <pt x="1081" y="-404" on="0"/>
        <pt x="940" y="-457" on="0"/>
        <pt x="861" y="-457" on="1"/>
        <pt x="802" y="-457" on="0"/>
        <pt x="698" y="-437" on="0"/>
        <pt x="611" y="-409" on="0"/>
        <pt x="572" y="-390" on="1"/>
        <pt x="620" y="-250" on="1"/>
        <pt x="680" y="-272" on="0"/>
        <pt x="791" y="-305" on="0"/>
        <pt x="905" y="-330" on="0"/>
        <pt x="951" y="-330" on="1"/>
        <pt x="983" y="-307" on="0"/>
        <pt x="1033" y="-244" on="0"/>
        <pt x="1078" y="-152" on="0"/>
        <pt x="1087" y="-86" on="1"/>
        <pt x="1099" y="0" on="1"/>
        <pt x="914" y="0" on="1"/>
        <pt x="469" y="1120" on="1"/>
        <pt x="453" y="1120" on="1"/>
        <pt x="312" y="125" on="1"/>
        <pt x="444" y="105" on="1"/>
        <pt x="424" y="0" on="1"/>
        <pt x="-3" y="0" on="1"/>
        <pt x="-8" y="105" on="1"/>
        <pt x="122" y="125" on="1"/>
        <pt x="278" y="1228" on="1"/>
        <pt x="147" y="1248" on="1"/>
        <pt x="167" y="1353" on="1"/>
        <pt x="670" y="1353" on="1"/>
        <pt x="1114" y="235" on="1"/>
        <pt x="1130" y="235" on="1"/>
        <pt x="1269" y="1228" on="1"/>
        <pt x="1138" y="1248" on="1"/>
      </contour>
    </TTGlyph>
    <TTGlyph name="Eogonek" xMin="-2" yMin="-457" xMax="1216" yMax="1353">
      <contour>
        <pt x="1055" y="0" on="1"/>
        <pt x="963" y="-67" on="0"/>
        <pt x="848" y="-209" on="0"/>
        <pt x="838" y="-274" on="1"/>
        <pt x="832" y="-315" on="0"/>
        <pt x="857" y="-347" on="0"/>
        <pt x="887" y="-347" on="1"/>
        <pt x="909" y="-347" on="0"/>
        <pt x="967" y="-323" on="0"/>
        <pt x="1024" y="-290" on="0"/>
        <pt x="1057" y="-267" on="1"/>
        <pt x="1041" y="-370" on="1"/>
        <pt x="1008" y="-395" on="0"/>
        <pt x="935" y="-431" on="0"/>
        <pt x="843" y="-457" on="0"/>
        <pt x="790" y="-457" on="1"/>
        <pt x="750" y="-457" on="0"/>
        <pt x="689" y="-443" on="0"/>
        <pt x="651" y="-411" on="0"/>
        <pt x="636" y="-357" on="0"/>
        <pt x="641" y="-316" on="1"/>
        <pt x="649" y="-257" on="0"/>
        <pt x="721" y="-139" on="0"/>
        <pt x="776" y="-83" on="1"/>
        <pt x="818" y="-41" on="0"/>
        <pt x="869" y="0" on="1"/>
        <pt x="3" y="0" on="1"/>
        <pt x="-2" y="105" on="1"/>
        <pt x="128" y="125" on="1"/>
        <pt x="284" y="1228" on="1"/>
        <pt x="153" y="1248" on="1"/>
        <pt x="173" y="1353" on="1"/>
        <pt x="1216" y="1353" on="1"/>
        <pt x="1197" y="1033" on="1"/>
        <pt x="1031" y="1033" on="1"/>
        <pt x="991" y="1234" on="1"/>
        <pt x="585" y="1234" on="1"/>
        <pt x="519" y="767" on="1"/>
        <pt x="836" y="767" on="1"/>
        <pt x="876" y="894" on="1"/>
        <pt x="979" y="874" on="1"/>
        <pt x="923" y="519" on="1"/>
        <pt x="816" y="514" on="1"/>
        <pt x="816" y="648" on="1"/>
        <pt x="502" y="648" on="1"/>
        <pt x="428" y="119" on="1"/>
        <pt x="856" y="119" on="1"/>
        <pt x="961" y="322" on="1"/>
        <pt x="1121" y="309" on="1"/>
      </contour>
    </TTGlyph>
    <TTGlyph name="Eth" xMin="0" yMin="0" xMax="1395" yMax="1353">
      <contour>
        <pt x="51" y="750" on="1"/>
        <pt x="218" y="750" on="1"/>
        <pt x="286" y="1228" on="1"/>
        <pt x="155" y="1248" on="1"/>
        <pt x="175" y="1353" on="1"/>
        <pt x="771" y="1353" on="1"/>
        <pt x="1111" y="1353" on="0"/>
        <pt x="1395" y="1046" on="0"/>
        <pt x="1352" y="742" on="1"/>
        <pt x="1340" y="654" on="1"/>
        <pt x="1296" y="341" on="0"/>
        <pt x="921" y="0" on="0"/>
        <pt x="628" y="0" on="1"/>
        <pt x="5" y="0" on="1"/>
        <pt x="0" y="105" on="1"/>
        <pt x="130" y="125" on="1"/>
        <pt x="203" y="640" on="1"/>
        <pt x="36" y="640" on="1"/>
      </contour>
      <contour>
        <pt x="593" y="119" on="1"/>
        <pt x="665" y="119" on="0"/>
        <pt x="802" y="137" on="0"/>
        <pt x="857" y="158" on="1"/>
        <pt x="914" y="233" on="0"/>
        <pt x="1015" y="475" on="0"/>
        <pt x="1036" y="622" on="1"/>
        <pt x="1049" y="716" on="1"/>
        <pt x="1086" y="981" on="0"/>
        <pt x="927" y="1234" on="0"/>
        <pt x="724" y="1234" on="1"/>
        <pt x="587" y="1234" on="1"/>
        <pt x="519" y="750" on="1"/>
        <pt x="707" y="750" on="1"/>
        <pt x="692" y="640" on="1"/>
        <pt x="503" y="640" on="1"/>
        <pt x="430" y="119" on="1"/>
      </contour>
    </TTGlyph>
    <TTGlyph name="Euro" xMin="30" yMin="-22" xMax="1335" yMax="1375">
      <contour>
        <pt x="95" y="812" on="1"/>
        <pt x="244" y="812" on="1"/>
        <pt x="327" y="1090" on="0"/>
        <pt x="692" y="1375" on="0"/>
        <pt x="973" y="1375" on="1"/>
        <pt x="1058" y="1375" on="0"/>
        <pt x="1192" y="1353" on="0"/>
        <pt x="1294" y="1323" on="0"/>
        <pt x="1335" y="1304" on="1"/>
        <pt x="1294" y="988" on="1"/>
        <pt x="1144" y="988" on="1"/>
        <pt x="1127" y="1229" on="1"/>
        <pt x="1106" y="1236" on="0"/>
        <pt x="1050" y="1247" on="0"/>
        <pt x="976" y="1256" on="0"/>
        <pt x="928" y="1256" on="1"/>
        <pt x="872" y="1256" on="0"/>
        <pt x="777" y="1235" on="0"/>
        <pt x="701" y="1207" on="0"/>
        <pt x="666" y="1188" on="1"/>
        <pt x="644" y="1143" on="0"/>
        <pt x="603" y="1037" on="0"/>
        <pt x="560" y="899" on="0"/>
        <pt x="542" y="812" on="1"/>
        <pt x="1133" y="812" on="1"/>
        <pt x="1096" y="712" on="1"/>
        <pt x="524" y="712" on="1"/>
        <pt x="521" y="691" on="0"/>
        <pt x="513" y="635" on="0"/>
        <pt x="510" y="612" on="1"/>
        <pt x="1060" y="612" on="1"/>
        <pt x="1023" y="512" on="1"/>
        <pt x="498" y="512" on="1"/>
        <pt x="488" y="398" on="0"/>
        <pt x="532" y="240" on="0"/>
        <pt x="619" y="141" on="0"/>
        <pt x="742" y="97" on="0"/>
        <pt x="812" y="97" on="1"/>
        <pt x="890" y="97" on="0"/>
        <pt x="1035" y="129" on="0"/>
        <pt x="1158" y="172" on="0"/>
        <pt x="1216" y="201" on="1"/>
        <pt x="1201" y="105" on="1"/>
        <pt x="1139" y="69" on="0"/>
        <pt x="997" y="17" on="0"/>
        <pt x="821" y="-22" on="0"/>
        <pt x="716" y="-22" on="1"/>
        <pt x="635" y="-22" on="0"/>
        <pt x="485" y="0" on="0"/>
        <pt x="357" y="50" on="0"/>
        <pt x="256" y="131" on="0"/>
        <pt x="192" y="249" on="0"/>
        <pt x="171" y="409" on="0"/>
        <pt x="186" y="512" on="1"/>
        <pt x="30" y="512" on="1"/>
        <pt x="67" y="612" on="1"/>
        <pt x="200" y="612" on="1"/>
        <pt x="204" y="638" on="0"/>
        <pt x="213" y="688" on="0"/>
        <pt x="218" y="712" on="1"/>
        <pt x="58" y="712" on="1"/>
      </contour>
    </TTGlyph>
    <TTGlyph name="F" xMin="-4" yMin="0" xMax="1144" yMax="1353">
      <contour>
        <pt x="171" y="1353" on="1"/>
        <pt x="1144" y="1353" on="1"/>
        <pt x="1125" y="1033" on="1"/>
        <pt x="959" y="1033" on="1"/>
        <pt x="919" y="1234" on="1"/>
        <pt x="583" y="1234" on="1"/>
        <pt x="517" y="767" on="1"/>
        <pt x="764" y="767" on="1"/>
        <pt x="804" y="894" on="1"/>
        <pt x="907" y="874" on="1"/>
        <pt x="851" y="519" on="1"/>
        <pt x="744" y="514" on="1"/>
        <pt x="744" y="648" on="1"/>
        <pt x="500" y="648" on="1"/>
        <pt x="426" y="125" on="1"/>
        <pt x="608" y="105" on="1"/>
        <pt x="588" y="0" on="1"/>
        <pt x="1" y="0" on="1"/>
        <pt x="-4" y="105" on="1"/>
        <pt x="126" y="125" on="1"/>
        <pt x="282" y="1228" on="1"/>
        <pt x="151" y="1248" on="1"/>
      </contour>
    </TTGlyph>
    <TTGlyph name="G" xMin="26" yMin="-22" xMax="1296" yMax="1375">
      <contour>
        <pt x="754" y="646" on="1"/>
        <pt x="1291" y="646" on="1"/>
        <pt x="1296" y="541" on="1"/>
        <pt x="1165" y="521" on="1"/>
        <pt x="1107" y="105" on="1"/>
        <pt x="995" y="48" on="0"/>
        <pt x="720" y="-22" on="0"/>
        <pt x="589" y="-22" on="1"/>
        <pt x="309" y="-22" on="0"/>
        <pt x="26" y="242" on="0"/>
        <pt x="63" y="505" on="1"/>
        <pt x="76" y="594" on="1"/>
        <pt x="132" y="972" on="0"/>
        <pt x="537" y="1375" on="0"/>
        <pt x="858" y="1375" on="1"/>
        <pt x="967" y="1375" on="0"/>
        <pt x="1173" y="1345" on="0"/>
        <pt x="1253" y="1318" on="1"/>
        <pt x="1236" y="1028" on="1"/>
        <pt x="1068" y="1028" on="1"/>
        <pt x="1022" y="1234" on="1"/>
        <pt x="980" y="1244" on="0"/>
        <pt x="879" y="1256" on="0"/>
        <pt x="835" y="1256" on="1"/>
        <pt x="759" y="1256" on="0"/>
        <pt x="602" y="1215" on="0"/>
        <pt x="544" y="1182" on="1"/>
        <pt x="492" y="1084" on="0"/>
        <pt x="408" y="823" on="0"/>
        <pt x="388" y="683" on="1"/>
        <pt x="370" y="550" on="1"/>
        <pt x="340" y="334" on="0"/>
        <pt x="506" y="97" on="0"/>
        <pt x="668" y="97" on="1"/>
        <pt x="739" y="97" on="0"/>
        <pt x="807" y="111" on="1"/>
        <pt x="865" y="521" on="1"/>
        <pt x="734" y="541" on="1"/>
      </contour>
    </TTGlyph>
    <TTGlyph name="Gacute" xMin="26" yMin="-22" xMax="1296" yMax="1784">
      <component glyphName="G" x="0" y="0" flags="0x204"/>
      <component glyphName="acute.case" x="672" y="0" flags="0x4"/>
    </TTGlyph>
    <TTGlyph name="Gbreve" xMin="26" yMin="-22" xMax="1296" yMax="1759">
      <component glyphName="G" x="0" y="0" flags="0x204"/>
      <component glyphName="breve.case" x="625" y="0" flags="0x4"/>
    </TTGlyph>
    <TTGlyph name="Gcaron" xMin="26" yMin="-22" xMax="1296" yMax="1794">
      <component glyphName="G" x="0" y="0" flags="0x204"/>
      <component glyphName="caron.case" x="607" y="0" flags="0x4"/>
    </TTGlyph>
    <TTGlyph name="Gcircumflex" xMin="26" yMin="-22" xMax="1296" yMax="1794">
      <component glyphName="G" x="0" y="0" flags="0x204"/>
      <component glyphName="circumflex.case" x="616" y="0" flags="0x4"/>
    </TTGlyph>
    <TTGlyph name="Gcommaaccent" xMin="26" yMin="-511" xMax="1296" yMax="1375">
      <component glyphName="G" x="0" y="0" flags="0x204"/>
      <component glyphName="uni0326" x="952" y="0" flags="0x4"/>
    </TTGlyph>
    <TTGlyph name="Gdotaccent" xMin="26" yMin="-22" xMax="1296" yMax="1751">
      <component glyphName="G" x="0" y="0" flags="0x204"/>
      <component glyphName="dotaccent.case" x="636" y="0" flags="0x4"/>
    </TTGlyph>
    <TTGlyph name="H" xMin="-4" yMin="0" xMax="1537" yMax="1353">
      <contour>
        <pt x="171" y="1353" on="1"/>
        <pt x="708" y="1353" on="1"/>
        <pt x="713" y="1248" on="1"/>
        <pt x="582" y="1228" on="1"/>
        <pt x="519" y="778" on="1"/>
        <pt x="1043" y="778" on="1"/>
        <pt x="1106" y="1228" on="1"/>
        <pt x="975" y="1248" on="1"/>
        <pt x="995" y="1353" on="1"/>
        <pt x="1532" y="1353" on="1"/>
        <pt x="1537" y="1248" on="1"/>
        <pt x="1406" y="1228" on="1"/>
        <pt x="1250" y="125" on="1"/>
        <pt x="1382" y="105" on="1"/>
        <pt x="1362" y="0" on="1"/>
        <pt x="825" y="0" on="1"/>
        <pt x="820" y="105" on="1"/>
        <pt x="950" y="125" on="1"/>
        <pt x="1026" y="659" on="1"/>
        <pt x="502" y="659" on="1"/>
        <pt x="426" y="125" on="1"/>
        <pt x="558" y="105" on="1"/>
        <pt x="538" y="0" on="1"/>
        <pt x="1" y="0" on="1"/>
        <pt x="-4" y="105" on="1"/>
        <pt x="126" y="125" on="1"/>
        <pt x="282" y="1228" on="1"/>
        <pt x="151" y="1248" on="1"/>
      </contour>
    </TTGlyph>
    <TTGlyph name="Hbar" xMin="-4" yMin="0" xMax="1537" yMax="1353">
      <contour>
        <pt x="121" y="1084" on="1"/>
        <pt x="261" y="1084" on="1"/>
        <pt x="282" y="1228" on="1"/>
        <pt x="151" y="1248" on="1"/>
        <pt x="171" y="1353" on="1"/>
        <pt x="708" y="1353" on="1"/>
        <pt x="713" y="1248" on="1"/>
        <pt x="582" y="1228" on="1"/>
        <pt x="562" y="1084" on="1"/>
        <pt x="1086" y="1084" on="1"/>
        <pt x="1106" y="1228" on="1"/>
        <pt x="975" y="1248" on="1"/>
        <pt x="995" y="1353" on="1"/>
        <pt x="1532" y="1353" on="1"/>
        <pt x="1537" y="1248" on="1"/>
        <pt x="1406" y="1228" on="1"/>
        <pt x="1385" y="1084" on="1"/>
        <pt x="1529" y="1084" on="1"/>
        <pt x="1508" y="964" on="1"/>
        <pt x="1368" y="964" on="1"/>
        <pt x="1250" y="125" on="1"/>
        <pt x="1382" y="105" on="1"/>
        <pt x="1362" y="0" on="1"/>
        <pt x="825" y="0" on="1"/>
        <pt x="820" y="105" on="1"/>
        <pt x="950" y="125" on="1"/>
        <pt x="1026" y="659" on="1"/>
        <pt x="502" y="659" on="1"/>
        <pt x="426" y="125" on="1"/>
        <pt x="558" y="105" on="1"/>
        <pt x="538" y="0" on="1"/>
        <pt x="1" y="0" on="1"/>
        <pt x="-4" y="105" on="1"/>
        <pt x="126" y="125" on="1"/>
        <pt x="244" y="964" on="1"/>
        <pt x="100" y="964" on="1"/>
      </contour>
      <contour>
        <pt x="1043" y="778" on="1"/>
        <pt x="1069" y="964" on="1"/>
        <pt x="545" y="964" on="1"/>
        <pt x="519" y="778" on="1"/>
      </contour>
    </TTGlyph>
    <TTGlyph name="Hcircumflex" xMin="-4" yMin="0" xMax="1537" yMax="1794">
      <component glyphName="H" x="0" y="0" flags="0x204"/>
      <component glyphName="circumflex.case" x="641" y="0" flags="0x4"/>
    </TTGlyph>
    <TTGlyph name="I" xMin="-4" yMin="0" xMax="713" yMax="1353">
      <contour>
        <pt x="-4" y="105" on="1"/>
        <pt x="126" y="125" on="1"/>
        <pt x="282" y="1228" on="1"/>
        <pt x="151" y="1248" on="1"/>
        <pt x="171" y="1353" on="1"/>
        <pt x="708" y="1353" on="1"/>
        <pt x="713" y="1248" on="1"/>
        <pt x="582" y="1228" on="1"/>
        <pt x="426" y="125" on="1"/>
        <pt x="558" y="105" on="1"/>
        <pt x="538" y="0" on="1"/>
        <pt x="1" y="0" on="1"/>
      </contour>
    </TTGlyph>
    <TTGlyph name="IJ" xMin="-4" yMin="-22" xMax="1684" yMax="1353">
      <component glyphName="I" x="0" y="0" flags="0x4"/>
      <component glyphName="J" x="705" y="0" flags="0x4"/>
    </TTGlyph>
    <TTGlyph name="Iacute" xMin="-4" yMin="0" xMax="884" yMax="1784">
      <component glyphName="I" x="0" y="0" flags="0x204"/>
      <component glyphName="acute.case" x="264" y="0" flags="0x4"/>
    </TTGlyph>
    <TTGlyph name="Ibreve" xMin="-4" yMin="0" xMax="867" yMax="1759">
      <component glyphName="I" x="0" y="0" flags="0x204"/>
      <component glyphName="breve.case" x="217" y="0" flags="0x4"/>
    </TTGlyph>
    <TTGlyph name="Icircumflex" xMin="-4" yMin="0" xMax="841" yMax="1794">
      <component glyphName="I" x="0" y="0" flags="0x204"/>
      <component glyphName="circumflex.case" x="208" y="0" flags="0x4"/>
    </TTGlyph>
    <TTGlyph name="Idieresis" xMin="-4" yMin="0" xMax="869" yMax="1728">
      <component glyphName="I" x="0" y="0" flags="0x204"/>
      <component glyphName="dieresis.case" x="185" y="0" flags="0x4"/>
    </TTGlyph>
    <TTGlyph name="Idotaccent" xMin="-4" yMin="0" xMax="713" yMax="1751">
      <component glyphName="I" x="0" y="0" flags="0x204"/>
      <component glyphName="dotaccent.case" x="228" y="0" flags="0x4"/>
    </TTGlyph>
    <TTGlyph name="Igrave" xMin="-4" yMin="0" xMax="713" yMax="1784">
      <component glyphName="I" x="0" y="0" flags="0x204"/>
      <component glyphName="grave.case" x="9" y="0" flags="0x4"/>
    </TTGlyph>
    <TTGlyph name="Imacron" xMin="-4" yMin="0" xMax="893" yMax="1680">
      <component glyphName="I" x="0" y="0" flags="0x204"/>
      <component glyphName="macron.case" x="203" y="0" flags="0x4"/>
    </TTGlyph>
    <TTGlyph name="Iogonek" xMin="-63" yMin="-457" xMax="713" yMax="1353">
      <contour>
        <pt x="356" y="0" on="1"/>
        <pt x="264" y="-67" on="0"/>
        <pt x="149" y="-209" on="0"/>
        <pt x="139" y="-274" on="1"/>
        <pt x="133" y="-315" on="0"/>
        <pt x="158" y="-347" on="0"/>
        <pt x="188" y="-347" on="1"/>
        <pt x="210" y="-347" on="0"/>
        <pt x="268" y="-323" on="0"/>
        <pt x="325" y="-290" on="0"/>
        <pt x="358" y="-267" on="1"/>
        <pt x="342" y="-370" on="1"/>
        <pt x="309" y="-395" on="0"/>
        <pt x="236" y="-431" on="0"/>
        <pt x="144" y="-457" on="0"/>
        <pt x="91" y="-457" on="1"/>
        <pt x="51" y="-457" on="0"/>
        <pt x="-10" y="-443" on="0"/>
        <pt x="-48" y="-411" on="0"/>
        <pt x="-63" y="-357" on="0"/>
        <pt x="-58" y="-316" on="1"/>
        <pt x="-50" y="-257" on="0"/>
        <pt x="22" y="-139" on="0"/>
        <pt x="77" y="-83" on="1"/>
        <pt x="119" y="-41" on="0"/>
        <pt x="170" y="0" on="1"/>
        <pt x="1" y="0" on="1"/>
        <pt x="-4" y="105" on="1"/>
        <pt x="126" y="125" on="1"/>
        <pt x="282" y="1228" on="1"/>
        <pt x="151" y="1248" on="1"/>
        <pt x="171" y="1353" on="1"/>
        <pt x="708" y="1353" on="1"/>
        <pt x="713" y="1248" on="1"/>
        <pt x="582" y="1228" on="1"/>
        <pt x="426" y="125" on="1"/>
        <pt x="558" y="105" on="1"/>
        <pt x="538" y="0" on="1"/>
      </contour>
    </TTGlyph>
    <TTGlyph name="Itilde" xMin="-21" yMin="0" xMax="961" yMax="1777">
      <component glyphName="I" x="0" y="0" flags="0x204"/>
      <component glyphName="tilde.case" x="200" y="0" flags="0x4"/>
    </TTGlyph>
    <TTGlyph name="J" xMin="-6" yMin="-22" xMax="979" yMax="1353">
      <contour>
        <pt x="387" y="1353" on="1"/>
        <pt x="974" y="1353" on="1"/>
        <pt x="979" y="1248" on="1"/>
        <pt x="848" y="1228" on="1"/>
        <pt x="729" y="378" on="1"/>
        <pt x="700" y="176" on="0"/>
        <pt x="478" y="-22" on="0"/>
        <pt x="287" y="-22" on="1"/>
        <pt x="206" y="-22" on="0"/>
        <pt x="49" y="8" on="0"/>
        <pt x="-6" y="31" on="1"/>
        <pt x="10" y="311" on="1"/>
        <pt x="156" y="311" on="1"/>
        <pt x="203" y="105" on="1"/>
        <pt x="217" y="101" on="0"/>
        <pt x="258" y="96" on="0"/>
        <pt x="276" y="96" on="1"/>
        <pt x="298" y="96" on="0"/>
        <pt x="337" y="103" on="0"/>
        <pt x="347" y="107" on="1"/>
        <pt x="373" y="148" on="0"/>
        <pt x="417" y="288" on="0"/>
        <pt x="428" y="369" on="1"/>
        <pt x="548" y="1228" on="1"/>
        <pt x="367" y="1248" on="1"/>
      </contour>
    </TTGlyph>
    <TTGlyph name="Jcircumflex" xMin="-6" yMin="-22" xMax="1090" yMax="1794">
      <component glyphName="J" x="0" y="0" flags="0x204"/>
      <component glyphName="circumflex.case" x="457" y="0" flags="0x4"/>
    </TTGlyph>
    <TTGlyph name="K" xMin="-8" yMin="0" xMax="1391" yMax="1353">
      <contour>
        <pt x="534" y="0" on="1"/>
        <pt x="-3" y="0" on="1"/>
        <pt x="-8" y="105" on="1"/>
        <pt x="122" y="125" on="1"/>
        <pt x="278" y="1228" on="1"/>
        <pt x="147" y="1248" on="1"/>
        <pt x="167" y="1353" on="1"/>
        <pt x="704" y="1353" on="1"/>
        <pt x="709" y="1248" on="1"/>
        <pt x="578" y="1228" on="1"/>
        <pt x="507" y="723" on="1"/>
        <pt x="520" y="717" on="1"/>
        <pt x="1062" y="1231" on="1"/>
        <pt x="978" y="1248" on="1"/>
        <pt x="998" y="1353" on="1"/>
        <pt x="1386" y="1353" on="1"/>
        <pt x="1391" y="1248" on="1"/>
        <pt x="1277" y="1222" on="1"/>
        <pt x="817" y="796" on="1"/>
        <pt x="1191" y="126" on="1"/>
        <pt x="1300" y="105" on="1"/>
        <pt x="1286" y="0" on="1"/>
        <pt x="958" y="0" on="1"/>
        <pt x="619" y="611" on="1"/>
        <pt x="472" y="475" on="1"/>
        <pt x="422" y="125" on="1"/>
        <pt x="554" y="105" on="1"/>
      </contour>
    </TTGlyph>
    <TTGlyph name="Kcommaaccent" xMin="-8" yMin="-511" xMax="1391" yMax="1353">
      <component glyphName="K" x="0" y="0" flags="0x204"/>
      <component glyphName="uni0326" x="965" y="0" flags="0x4"/>
    </TTGlyph>
    <TTGlyph name="L" xMin="-6" yMin="0" xMax="973" yMax="1353">
      <contour>
        <pt x="905" y="0" on="1"/>
        <pt x="-1" y="0" on="1"/>
        <pt x="-6" y="105" on="1"/>
        <pt x="124" y="125" on="1"/>
        <pt x="280" y="1228" on="1"/>
        <pt x="149" y="1248" on="1"/>
        <pt x="169" y="1353" on="1"/>
        <pt x="736" y="1353" on="1"/>
        <pt x="741" y="1248" on="1"/>
        <pt x="580" y="1228" on="1"/>
        <pt x="424" y="119" on="1"/>
        <pt x="722" y="119" on="1"/>
        <pt x="832" y="332" on="1"/>
        <pt x="973" y="320" on="1"/>
      </contour>
    </TTGlyph>
    <TTGlyph name="Lacute" xMin="-6" yMin="0" xMax="973" yMax="1784">
      <component glyphName="L" x="0" y="0" flags="0x204"/>
      <component glyphName="acute.case" x="274" y="0" flags="0x4"/>
    </TTGlyph>
    <TTGlyph name="Lcaron" xMin="-6" yMin="0" xMax="1071" yMax="1540">
      <component glyphName="L" x="0" y="0" flags="0x204"/>
      <component glyphName="caron.alt" x="666" y="0" flags="0x4"/>
    </TTGlyph>
    <TTGlyph name="Lcommaaccent" xMin="-6" yMin="-511" xMax="973" yMax="1353">
      <component glyphName="L" x="0" y="0" flags="0x204"/>
      <component glyphName="uni0326" x="781" y="0" flags="0x4"/>
    </TTGlyph>
    <TTGlyph name="Ldot" xMin="-6" yMin="0" xMax="1060" yMax="1353">
      <component glyphName="L" x="0" y="0" flags="0x204"/>
      <component glyphName="periodcentered" x="518" y="0" flags="0x4"/>
    </TTGlyph>
    <TTGlyph name="Lslash" xMin="-6" yMin="0" xMax="973" yMax="1353">
      <contour>
        <pt x="905" y="0" on="1"/>
        <pt x="-1" y="0" on="1"/>
        <pt x="-6" y="105" on="1"/>
        <pt x="124" y="125" on="1"/>
        <pt x="176" y="497" on="1"/>
        <pt x="14" y="410" on="1"/>
        <pt x="33" y="549" on="1"/>
        <pt x="196" y="636" on="1"/>
        <pt x="280" y="1228" on="1"/>
        <pt x="149" y="1248" on="1"/>
        <pt x="169" y="1353" on="1"/>
        <pt x="736" y="1353" on="1"/>
        <pt x="741" y="1248" on="1"/>
        <pt x="580" y="1228" on="1"/>
        <pt x="521" y="810" on="1"/>
        <pt x="821" y="971" on="1"/>
        <pt x="802" y="833" on="1"/>
        <pt x="502" y="672" on="1"/>
        <pt x="424" y="119" on="1"/>
        <pt x="722" y="119" on="1"/>
        <pt x="832" y="332" on="1"/>
        <pt x="973" y="320" on="1"/>
      </contour>
    </TTGlyph>
    <TTGlyph name="M" xMin="-4" yMin="0" xMax="2043" yMax="1353">
      <contour>
        <pt x="428" y="0" on="1"/>
        <pt x="1" y="0" on="1"/>
        <pt x="-4" y="105" on="1"/>
        <pt x="126" y="125" on="1"/>
        <pt x="282" y="1228" on="1"/>
        <pt x="151" y="1248" on="1"/>
        <pt x="171" y="1353" on="1"/>
        <pt x="715" y="1353" on="1"/>
        <pt x="955" y="389" on="1"/>
        <pt x="972" y="389" on="1"/>
        <pt x="1485" y="1353" on="1"/>
        <pt x="2038" y="1353" on="1"/>
        <pt x="2043" y="1248" on="1"/>
        <pt x="1912" y="1228" on="1"/>
        <pt x="1756" y="125" on="1"/>
        <pt x="1888" y="105" on="1"/>
        <pt x="1868" y="0" on="1"/>
        <pt x="1331" y="0" on="1"/>
        <pt x="1326" y="105" on="1"/>
        <pt x="1456" y="125" on="1"/>
        <pt x="1603" y="1162" on="1"/>
        <pt x="1587" y="1162" on="1"/>
        <pt x="961" y="0" on="1"/>
        <pt x="776" y="0" on="1"/>
        <pt x="479" y="1162" on="1"/>
        <pt x="463" y="1162" on="1"/>
        <pt x="316" y="125" on="1"/>
        <pt x="448" y="105" on="1"/>
      </contour>
    </TTGlyph>
    <TTGlyph name="N" xMin="-8" yMin="0" xMax="1591" yMax="1353">
      <contour>
        <pt x="1158" y="1353" on="1"/>
        <pt x="1586" y="1353" on="1"/>
        <pt x="1591" y="1248" on="1"/>
        <pt x="1460" y="1228" on="1"/>
        <pt x="1287" y="0" on="1"/>
        <pt x="914" y="0" on="1"/>
        <pt x="469" y="1120" on="1"/>
        <pt x="453" y="1120" on="1"/>
        <pt x="312" y="125" on="1"/>
        <pt x="444" y="105" on="1"/>
        <pt x="424" y="0" on="1"/>
        <pt x="-3" y="0" on="1"/>
        <pt x="-8" y="105" on="1"/>
        <pt x="122" y="125" on="1"/>
        <pt x="278" y="1228" on="1"/>
        <pt x="147" y="1248" on="1"/>
        <pt x="167" y="1353" on="1"/>
        <pt x="670" y="1353" on="1"/>
        <pt x="1114" y="235" on="1"/>
        <pt x="1130" y="235" on="1"/>
        <pt x="1269" y="1228" on="1"/>
        <pt x="1138" y="1248" on="1"/>
      </contour>
    </TTGlyph>
    <TTGlyph name="Nacute" xMin="-8" yMin="0" xMax="1591" yMax="1784">
      <component glyphName="N" x="0" y="0" flags="0x204"/>
      <component glyphName="acute.case" x="725" y="0" flags="0x4"/>
    </TTGlyph>
    <TTGlyph name="Ncaron" xMin="-8" yMin="0" xMax="1591" yMax="1794">
      <component glyphName="N" x="0" y="0" flags="0x204"/>
      <component glyphName="caron.case" x="660" y="0" flags="0x4"/>
    </TTGlyph>
    <TTGlyph name="Ncommaaccent" xMin="-8" yMin="-511" xMax="1591" yMax="1353">
      <component glyphName="N" x="0" y="0" flags="0x204"/>
      <component glyphName="uni0326" x="999" y="0" flags="0x4"/>
    </TTGlyph>
    <TTGlyph name="Ntilde" xMin="-8" yMin="0" xMax="1591" yMax="1777">
      <component glyphName="N" x="0" y="0" flags="0x204"/>
      <component glyphName="tilde.case" x="661" y="0" flags="0x4"/>
    </TTGlyph>
    <TTGlyph name="O" xMin="25" yMin="-22" xMax="1406" yMax="1375">
      <contour>
        <pt x="600" y="-22" on="1"/>
        <pt x="285" y="-22" on="0"/>
        <pt x="25" y="252" on="0"/>
        <pt x="63" y="525" on="1"/>
        <pt x="74" y="604" on="1"/>
        <pt x="126" y="982" on="0"/>
        <pt x="506" y="1375" on="0"/>
        <pt x="835" y="1375" on="1"/>
        <pt x="1142" y="1375" on="0"/>
        <pt x="1406" y="1098" on="0"/>
        <pt x="1367" y="827" on="1"/>
        <pt x="1356" y="749" on="1"/>
        <pt x="1303" y="370" on="0"/>
        <pt x="918" y="-22" on="0"/>
      </contour>
      <contour>
        <pt x="1060" y="783" on="1"/>
        <pt x="1093" y="1022" on="0"/>
        <pt x="952" y="1256" on="0"/>
        <pt x="784" y="1256" on="1"/>
        <pt x="717" y="1256" on="0"/>
        <pt x="581" y="1222" on="0"/>
        <pt x="531" y="1198" on="1"/>
        <pt x="486" y="1099" on="0"/>
        <pt x="408" y="839" on="0"/>
        <pt x="388" y="703" on="1"/>
        <pt x="370" y="570" on="1"/>
        <pt x="341" y="346" on="0"/>
        <pt x="492" y="97" on="0"/>
        <pt x="642" y="97" on="1"/>
        <pt x="710" y="97" on="0"/>
        <pt x="848" y="129" on="0"/>
        <pt x="900" y="156" on="1"/>
        <pt x="939" y="242" on="0"/>
        <pt x="1022" y="509" on="0"/>
        <pt x="1042" y="650" on="1"/>
      </contour>
    </TTGlyph>
    <TTGlyph name="OE" xMin="25" yMin="-22" xMax="1908" yMax="1375">
      <contour>
        <pt x="1234" y="648" on="1"/>
        <pt x="1160" y="119" on="1"/>
        <pt x="1568" y="119" on="1"/>
        <pt x="1673" y="322" on="1"/>
        <pt x="1813" y="309" on="1"/>
        <pt x="1747" y="0" on="1"/>
        <pt x="843" y="0" on="1"/>
        <pt x="784" y="-14" on="0"/>
        <pt x="665" y="-22" on="0"/>
        <pt x="600" y="-22" on="1"/>
        <pt x="285" y="-22" on="0"/>
        <pt x="25" y="252" on="0"/>
        <pt x="63" y="525" on="1"/>
        <pt x="74" y="604" on="1"/>
        <pt x="126" y="981" on="0"/>
        <pt x="504" y="1375" on="0"/>
        <pt x="835" y="1375" on="1"/>
        <pt x="877" y="1375" on="0"/>
        <pt x="956" y="1368" on="0"/>
        <pt x="1021" y="1359" on="0"/>
        <pt x="1052" y="1353" on="1"/>
        <pt x="1908" y="1353" on="1"/>
        <pt x="1889" y="1033" on="1"/>
        <pt x="1743" y="1033" on="1"/>
        <pt x="1703" y="1234" on="1"/>
        <pt x="1317" y="1234" on="1"/>
        <pt x="1251" y="767" on="1"/>
        <pt x="1548" y="767" on="1"/>
        <pt x="1588" y="894" on="1"/>
        <pt x="1691" y="874" on="1"/>
        <pt x="1635" y="519" on="1"/>
        <pt x="1528" y="514" on="1"/>
        <pt x="1528" y="648" on="1"/>
      </contour>
      <contour>
        <pt x="642" y="97" on="1"/>
        <pt x="711" y="97" on="0"/>
        <pt x="824" y="116" on="0"/>
        <pt x="861" y="127" on="1"/>
        <pt x="1014" y="1216" on="1"/>
        <pt x="1002" y="1220" on="0"/>
        <pt x="957" y="1234" on="0"/>
        <pt x="897" y="1247" on="0"/>
        <pt x="824" y="1256" on="0"/>
        <pt x="784" y="1256" on="1"/>
        <pt x="730" y="1256" on="0"/>
        <pt x="638" y="1238" on="0"/>
        <pt x="564" y="1214" on="0"/>
        <pt x="531" y="1198" on="1"/>
        <pt x="500" y="1130" on="0"/>
        <pt x="450" y="983" on="0"/>
        <pt x="402" y="804" on="0"/>
        <pt x="388" y="703" on="1"/>
        <pt x="370" y="570" on="1"/>
        <pt x="353" y="447" on="0"/>
        <pt x="385" y="268" on="0"/>
        <pt x="462" y="153" on="0"/>
        <pt x="576" y="97" on="0"/>
      </contour>
    </TTGlyph>
    <TTGlyph name="Oacute" xMin="51" yMin="-22" xMax="1432" yMax="1784">
      <component glyphName="O" x="26" y="0" flags="0x204"/>
      <component glyphName="acute.case" x="652" y="0" flags="0x4"/>
    </TTGlyph>
    <TTGlyph name="Obreve" xMin="51" yMin="-22" xMax="1432" yMax="1759">
      <component glyphName="O" x="26" y="0" flags="0x204"/>
      <component glyphName="breve.case" x="605" y="0" flags="0x4"/>
    </TTGlyph>
    <TTGlyph name="Ocircumflex" xMin="51" yMin="-22" xMax="1432" yMax="1794">
      <component glyphName="O" x="26" y="0" flags="0x204"/>
      <component glyphName="circumflex.case" x="596" y="0" flags="0x4"/>
    </TTGlyph>
    <TTGlyph name="Odieresis" xMin="51" yMin="-22" xMax="1432" yMax="1728">
      <component glyphName="O" x="26" y="0" flags="0x204"/>
      <component glyphName="dieresis.case" x="573" y="0" flags="0x4"/>
    </TTGlyph>
    <TTGlyph name="Ograve" xMin="51" yMin="-22" xMax="1432" yMax="1784">
      <component glyphName="O" x="26" y="0" flags="0x204"/>
      <component glyphName="grave.case" x="397" y="0" flags="0x4"/>
    </TTGlyph>
    <TTGlyph name="Ohorn" xMin="8" yMin="-22" xMax="1626" yMax="1589">
      <contour>
        <pt x="1562" y="1589" on="1"/>
        <pt x="1602" y="1529" on="0"/>
        <pt x="1626" y="1421" on="0"/>
        <pt x="1619" y="1376" on="1"/>
        <pt x="1610" y="1314" on="0"/>
        <pt x="1548" y="1211" on="0"/>
        <pt x="1485" y="1165" on="1"/>
        <pt x="1428" y="1123" on="0"/>
        <pt x="1341" y="1085" on="1"/>
        <pt x="1371" y="976" on="0"/>
        <pt x="1350" y="827" on="1"/>
        <pt x="1339" y="749" on="1"/>
        <pt x="1286" y="370" on="0"/>
        <pt x="901" y="-22" on="0"/>
        <pt x="583" y="-22" on="1"/>
        <pt x="268" y="-22" on="0"/>
        <pt x="8" y="252" on="0"/>
        <pt x="46" y="525" on="1"/>
        <pt x="57" y="604" on="1"/>
        <pt x="109" y="982" on="0"/>
        <pt x="489" y="1375" on="0"/>
        <pt x="818" y="1375" on="1"/>
        <pt x="1125" y="1375" on="0"/>
        <pt x="1257" y="1236" on="1"/>
        <pt x="1274" y="1218" on="0"/>
        <pt x="1288" y="1199" on="1"/>
        <pt x="1302" y="1208" on="0"/>
        <pt x="1313" y="1217" on="1"/>
        <pt x="1346" y="1244" on="0"/>
        <pt x="1379" y="1303" on="0"/>
        <pt x="1384" y="1340" on="1"/>
        <pt x="1389" y="1373" on="0"/>
        <pt x="1376" y="1429" on="0"/>
        <pt x="1355" y="1473" on="0"/>
        <pt x="1339" y="1492" on="1"/>
        <pt x="1344" y="1532" on="1"/>
      </contour>
      <contour>
        <pt x="1043" y="783" on="1"/>
        <pt x="1076" y="1022" on="0"/>
        <pt x="935" y="1256" on="0"/>
        <pt x="767" y="1256" on="1"/>
        <pt x="700" y="1256" on="0"/>
        <pt x="564" y="1222" on="0"/>
        <pt x="514" y="1198" on="1"/>
        <pt x="469" y="1099" on="0"/>
        <pt x="391" y="839" on="0"/>
        <pt x="371" y="703" on="1"/>
        <pt x="353" y="570" on="1"/>
        <pt x="324" y="346" on="0"/>
        <pt x="475" y="97" on="0"/>
        <pt x="625" y="97" on="1"/>
        <pt x="693" y="97" on="0"/>
        <pt x="831" y="129" on="0"/>
        <pt x="883" y="156" on="1"/>
        <pt x="922" y="242" on="0"/>
        <pt x="1005" y="509" on="0"/>
        <pt x="1025" y="650" on="1"/>
      </contour>
    </TTGlyph>
    <TTGlyph name="Ohungarumlaut" xMin="51" yMin="-22" xMax="1532" yMax="1784">
      <component glyphName="O" x="26" y="0" flags="0x204"/>
      <component glyphName="hungarumlaut.case" x="745" y="0" flags="0x4"/>
    </TTGlyph>
    <TTGlyph name="Omacron" xMin="51" yMin="-22" xMax="1432" yMax="1680">
      <component glyphName="O" x="26" y="0" flags="0x204"/>
      <component glyphName="macron.case" x="591" y="0" flags="0x4"/>
    </TTGlyph>
    <TTGlyph name="Oslash" xMin="34" yMin="-188" xMax="1427" yMax="1540">
      <contour>
        <pt x="600" y="-22" on="1"/>
        <pt x="563" y="-22" on="0"/>
        <pt x="496" y="-18" on="0"/>
        <pt x="464" y="-14" on="1"/>
        <pt x="386" y="-188" on="1"/>
        <pt x="252" y="-188" on="1"/>
        <pt x="254" y="-168" on="1"/>
        <pt x="335" y="11" on="1"/>
        <pt x="165" y="62" on="0"/>
        <pt x="34" y="317" on="0"/>
        <pt x="63" y="525" on="1"/>
        <pt x="74" y="604" on="1"/>
        <pt x="126" y="981" on="0"/>
        <pt x="504" y="1375" on="0"/>
        <pt x="835" y="1375" on="1"/>
        <pt x="895" y="1375" on="0"/>
        <pt x="949" y="1369" on="1"/>
        <pt x="1026" y="1540" on="1"/>
        <pt x="1161" y="1540" on="1"/>
        <pt x="1159" y="1520" on="1"/>
        <pt x="1080" y="1345" on="1"/>
        <pt x="1427" y="1249" on="0"/>
        <pt x="1367" y="827" on="1"/>
        <pt x="1356" y="749" on="1"/>
        <pt x="1303" y="371" on="0"/>
        <pt x="919" y="-22" on="0"/>
      </contour>
      <contour>
        <pt x="1060" y="783" on="1"/>
        <pt x="1079" y="927" on="0"/>
        <pt x="1045" y="1115" on="0"/>
        <pt x="1000" y="1169" on="1"/>
        <pt x="526" y="121" on="1"/>
        <pt x="578" y="97" on="0"/>
        <pt x="642" y="97" on="1"/>
        <pt x="699" y="97" on="0"/>
        <pt x="792" y="115" on="0"/>
        <pt x="867" y="139" on="0"/>
        <pt x="900" y="156" on="1"/>
        <pt x="931" y="225" on="0"/>
        <pt x="981" y="374" on="0"/>
        <pt x="1028" y="552" on="0"/>
        <pt x="1042" y="650" on="1"/>
      </contour>
      <contour>
        <pt x="370" y="570" on="1"/>
        <pt x="353" y="445" on="0"/>
        <pt x="385" y="267" on="0"/>
        <pt x="424" y="209" on="1"/>
        <pt x="891" y="1241" on="1"/>
        <pt x="841" y="1256" on="0"/>
        <pt x="784" y="1256" on="1"/>
        <pt x="730" y="1256" on="0"/>
        <pt x="638" y="1238" on="0"/>
        <pt x="564" y="1214" on="0"/>
        <pt x="531" y="1198" on="1"/>
        <pt x="500" y="1130" on="0"/>
        <pt x="450" y="983" on="0"/>
        <pt x="402" y="804" on="0"/>
        <pt x="388" y="703" on="1"/>
      </contour>
    </TTGlyph>
    <TTGlyph name="Oslashacute" xMin="35" yMin="-188" xMax="1428" yMax="1784">
      <component glyphName="Oslash" x="1" y="0" flags="0x4"/>
      <component glyphName="acute.case" x="652" y="0" flags="0x4"/>
    </TTGlyph>
    <TTGlyph name="Otilde" xMin="51" yMin="-22" xMax="1432" yMax="1777">
      <component glyphName="O" x="26" y="0" flags="0x204"/>
      <component glyphName="tilde.case" x="588" y="0" flags="0x4"/>
    </TTGlyph>
    <TTGlyph name="P" xMin="-2" yMin="0" xMax="1221" yMax="1353">
      <contour>
        <pt x="590" y="0" on="1"/>
        <pt x="3" y="0" on="1"/>
        <pt x="-2" y="105" on="1"/>
        <pt x="128" y="125" on="1"/>
        <pt x="284" y="1228" on="1"/>
        <pt x="153" y="1248" on="1"/>
        <pt x="173" y="1353" on="1"/>
        <pt x="745" y="1353" on="1"/>
        <pt x="1001" y="1353" on="0"/>
        <pt x="1221" y="1179" on="0"/>
        <pt x="1196" y="995" on="1"/>
        <pt x="1168" y="813" on="0"/>
        <pt x="881" y="606" on="0"/>
        <pt x="688" y="606" on="1"/>
        <pt x="496" y="606" on="1"/>
        <pt x="428" y="125" on="1"/>
        <pt x="610" y="105" on="1"/>
      </contour>
      <contour>
        <pt x="624" y="725" on="1"/>
        <pt x="671" y="725" on="0"/>
        <pt x="769" y="734" on="0"/>
        <pt x="809" y="743" on="1"/>
        <pt x="831" y="778" on="0"/>
        <pt x="879" y="904" on="0"/>
        <pt x="888" y="968" on="1"/>
        <pt x="908" y="1106" on="0"/>
        <pt x="797" y="1234" on="0"/>
        <pt x="663" y="1234" on="1"/>
        <pt x="585" y="1234" on="1"/>
        <pt x="513" y="725" on="1"/>
      </contour>
    </TTGlyph>
    <TTGlyph name="Q" xMin="20" yMin="-194" xMax="1402" yMax="1375">
      <contour>
        <pt x="596" y="-22" on="1"/>
        <pt x="282" y="-22" on="0"/>
        <pt x="20" y="251" on="0"/>
        <pt x="59" y="525" on="1"/>
        <pt x="70" y="604" on="1"/>
        <pt x="123" y="984" on="0"/>
        <pt x="505" y="1375" on="0"/>
        <pt x="831" y="1375" on="1"/>
        <pt x="1134" y="1375" on="0"/>
        <pt x="1402" y="1103" on="0"/>
        <pt x="1363" y="827" on="1"/>
        <pt x="1352" y="749" on="1"/>
        <pt x="1319" y="512" on="0"/>
        <pt x="1145" y="183" on="0"/>
        <pt x="1006" y="90" on="1"/>
        <pt x="1037" y="6" on="0"/>
        <pt x="1111" y="-75" on="0"/>
        <pt x="1165" y="-75" on="1"/>
        <pt x="1194" y="-75" on="0"/>
        <pt x="1259" y="-61" on="0"/>
        <pt x="1286" y="-50" on="1"/>
        <pt x="1272" y="-140" on="1"/>
        <pt x="1230" y="-166" on="0"/>
        <pt x="1127" y="-194" on="0"/>
        <pt x="1073" y="-194" on="1"/>
        <pt x="960" y="-194" on="0"/>
        <pt x="808" y="-98" on="0"/>
        <pt x="771" y="-5" on="1"/>
        <pt x="729" y="-13" on="0"/>
        <pt x="643" y="-22" on="0"/>
      </contour>
      <contour>
        <pt x="1056" y="783" on="1"/>
        <pt x="1089" y="1015" on="0"/>
        <pt x="952" y="1256" on="0"/>
        <pt x="780" y="1256" on="1"/>
        <pt x="714" y="1256" on="0"/>
        <pt x="581" y="1224" on="0"/>
        <pt x="527" y="1198" on="1"/>
        <pt x="476" y="1083" on="0"/>
        <pt x="402" y="830" on="0"/>
        <pt x="384" y="703" on="1"/>
        <pt x="366" y="570" on="1"/>
        <pt x="360" y="527" on="0"/>
        <pt x="358" y="480" on="1"/>
        <pt x="386" y="540" on="0"/>
        <pt x="510" y="605" on="0"/>
        <pt x="591" y="605" on="1"/>
        <pt x="733" y="605" on="0"/>
        <pt x="882" y="456" on="0"/>
        <pt x="925" y="323" on="1"/>
        <pt x="942" y="273" on="1"/>
        <pt x="968" y="343" on="0"/>
        <pt x="1023" y="540" on="0"/>
        <pt x="1038" y="650" on="1"/>
      </contour>
      <contour>
        <pt x="692" y="223" on="1"/>
        <pt x="664" y="304" on="0"/>
        <pt x="617" y="420" on="0"/>
        <pt x="560" y="486" on="0"/>
        <pt x="505" y="486" on="1"/>
        <pt x="447" y="486" on="0"/>
        <pt x="381" y="409" on="0"/>
        <pt x="381" y="340" on="1"/>
        <pt x="381" y="319" on="0"/>
        <pt x="389" y="268" on="0"/>
        <pt x="400" y="243" on="1"/>
        <pt x="437" y="169" on="0"/>
        <pt x="562" y="97" on="0"/>
        <pt x="638" y="97" on="1"/>
        <pt x="664" y="97" on="0"/>
        <pt x="710" y="100" on="0"/>
        <pt x="733" y="104" on="1"/>
      </contour>
    </TTGlyph>
    <TTGlyph name="R" xMin="-4" yMin="0" xMax="1221" yMax="1353">
      <contour>
        <pt x="538" y="0" on="1"/>
        <pt x="1" y="0" on="1"/>
        <pt x="-4" y="105" on="1"/>
        <pt x="126" y="125" on="1"/>
        <pt x="282" y="1228" on="1"/>
        <pt x="151" y="1248" on="1"/>
        <pt x="171" y="1353" on="1"/>
        <pt x="736" y="1353" on="1"/>
        <pt x="968" y="1353" on="0"/>
        <pt x="1182" y="1178" on="0"/>
        <pt x="1157" y="1003" on="1"/>
        <pt x="1139" y="877" on="0"/>
        <pt x="993" y="704" on="0"/>
        <pt x="876" y="663" on="1"/>
        <pt x="868" y="644" on="1"/>
        <pt x="1094" y="127" on="1"/>
        <pt x="1221" y="105" on="1"/>
        <pt x="1201" y="0" on="1"/>
        <pt x="862" y="0" on="1"/>
        <pt x="607" y="606" on="1"/>
        <pt x="494" y="606" on="1"/>
        <pt x="426" y="125" on="1"/>
        <pt x="558" y="105" on="1"/>
      </contour>
      <contour>
        <pt x="585" y="725" on="1"/>
        <pt x="631" y="725" on="0"/>
        <pt x="732" y="737" on="0"/>
        <pt x="780" y="751" on="1"/>
        <pt x="802" y="793" on="0"/>
        <pt x="842" y="918" on="0"/>
        <pt x="850" y="978" on="1"/>
        <pt x="870" y="1112" on="0"/>
        <pt x="770" y="1234" on="0"/>
        <pt x="641" y="1234" on="1"/>
        <pt x="583" y="1234" on="1"/>
        <pt x="511" y="725" on="1"/>
      </contour>
    </TTGlyph>
    <TTGlyph name="Racute" xMin="-4" yMin="0" xMax="1221" yMax="1784">
      <component glyphName="R" x="0" y="0" flags="0x204"/>
      <component glyphName="acute.case" x="472" y="0" flags="0x4"/>
    </TTGlyph>
    <TTGlyph name="Rcaron" xMin="-4" yMin="0" xMax="1221" yMax="1794">
      <component glyphName="R" x="0" y="0" flags="0x204"/>
      <component glyphName="caron.case" x="407" y="0" flags="0x4"/>
    </TTGlyph>
    <TTGlyph name="Rcommaaccent" xMin="-4" yMin="-511" xMax="1221" yMax="1353">
      <component glyphName="R" x="0" y="0" flags="0x204"/>
      <component glyphName="uni0326" x="908" y="0" flags="0x4"/>
    </TTGlyph>
    <TTGlyph name="S" xMin="60" yMin="-22" xMax="1143" yMax="1375">
      <contour>
        <pt x="739" y="800" on="1"/>
        <pt x="970" y="656" on="0"/>
        <pt x="1090" y="464" on="0"/>
        <pt x="1072" y="341" on="1"/>
        <pt x="1047" y="171" on="0"/>
        <pt x="729" y="-22" on="0"/>
        <pt x="484" y="-22" on="1"/>
        <pt x="353" y="-22" on="0"/>
        <pt x="131" y="13" on="0"/>
        <pt x="60" y="41" on="1"/>
        <pt x="76" y="320" on="1"/>
        <pt x="246" y="320" on="1"/>
        <pt x="291" y="121" on="1"/>
        <pt x="327" y="110" on="0"/>
        <pt x="438" y="97" on="0"/>
        <pt x="500" y="97" on="1"/>
        <pt x="555" y="97" on="0"/>
        <pt x="665" y="113" on="0"/>
        <pt x="705" y="125" on="1"/>
        <pt x="724" y="155" on="0"/>
        <pt x="756" y="236" on="0"/>
        <pt x="763" y="281" on="1"/>
        <pt x="774" y="359" on="0"/>
        <pt x="675" y="489" on="0"/>
        <pt x="506" y="600" on="1"/>
        <pt x="297" y="732" on="0"/>
        <pt x="161" y="906" on="0"/>
        <pt x="180" y="1039" on="1"/>
        <pt x="202" y="1187" on="0"/>
        <pt x="514" y="1375" on="0"/>
        <pt x="759" y="1375" on="1"/>
        <pt x="863" y="1375" on="0"/>
        <pt x="1067" y="1349" on="0"/>
        <pt x="1143" y="1323" on="1"/>
        <pt x="1126" y="1033" on="1"/>
        <pt x="968" y="1033" on="1"/>
        <pt x="923" y="1234" on="1"/>
        <pt x="874" y="1246" on="0"/>
        <pt x="774" y="1256" on="0"/>
        <pt x="731" y="1256" on="1"/>
        <pt x="676" y="1256" on="0"/>
        <pt x="568" y="1239" on="0"/>
        <pt x="532" y="1228" on="1"/>
        <pt x="519" y="1205" on="0"/>
        <pt x="493" y="1130" on="0"/>
        <pt x="489" y="1100" on="1"/>
        <pt x="476" y="1012" on="0"/>
        <pt x="607" y="882" on="0"/>
      </contour>
    </TTGlyph>
    <TTGlyph name="Sacute" xMin="60" yMin="-22" xMax="1189" yMax="1784">
      <component glyphName="S" x="0" y="0" flags="0x204"/>
      <component glyphName="acute.case" x="569" y="0" flags="0x4"/>
    </TTGlyph>
    <TTGlyph name="Scaron" xMin="60" yMin="-22" xMax="1177" yMax="1794">
      <component glyphName="S" x="0" y="0" flags="0x204"/>
      <component glyphName="caron.case" x="504" y="0" flags="0x4"/>
    </TTGlyph>
    <TTGlyph name="Scedilla" xMin="60" yMin="-457" xMax="1143" yMax="1375">
      <contour>
        <pt x="739" y="800" on="1"/>
        <pt x="970" y="656" on="0"/>
        <pt x="1090" y="464" on="0"/>
        <pt x="1072" y="341" on="1"/>
        <pt x="1047" y="171" on="0"/>
        <pt x="888" y="74" on="1"/>
        <pt x="767" y="1" on="0"/>
        <pt x="596" y="-16" on="1"/>
        <pt x="551" y="-105" on="1"/>
        <pt x="600" y="-114" on="0"/>
        <pt x="676" y="-141" on="0"/>
        <pt x="726" y="-183" on="0"/>
        <pt x="747" y="-243" on="0"/>
        <pt x="741" y="-284" on="1"/>
        <pt x="735" y="-323" on="0"/>
        <pt x="693" y="-387" on="0"/>
        <pt x="624" y="-432" on="0"/>
        <pt x="530" y="-457" on="0"/>
        <pt x="473" y="-457" on="1"/>
        <pt x="431" y="-457" on="0"/>
        <pt x="357" y="-443" on="0"/>
        <pt x="298" y="-423" on="0"/>
        <pt x="275" y="-410" on="1"/>
        <pt x="288" y="-317" on="1"/>
        <pt x="314" y="-328" on="0"/>
        <pt x="368" y="-345" on="0"/>
        <pt x="432" y="-357" on="0"/>
        <pt x="461" y="-357" on="1"/>
        <pt x="483" y="-357" on="0"/>
        <pt x="518" y="-353" on="0"/>
        <pt x="530" y="-350" on="1"/>
        <pt x="534" y="-344" on="0"/>
        <pt x="540" y="-331" on="0"/>
        <pt x="546" y="-311" on="0"/>
        <pt x="548" y="-297" on="1"/>
        <pt x="551" y="-273" on="0"/>
        <pt x="543" y="-238" on="0"/>
        <pt x="515" y="-212" on="0"/>
        <pt x="465" y="-193" on="0"/>
        <pt x="427" y="-186" on="1"/>
        <pt x="401" y="-122" on="1"/>
        <pt x="451" y="-22" on="1"/>
        <pt x="339" y="-20" on="0"/>
        <pt x="242" y="-4" on="1"/>
        <pt x="131" y="13" on="0"/>
        <pt x="60" y="41" on="1"/>
        <pt x="76" y="320" on="1"/>
        <pt x="246" y="320" on="1"/>
        <pt x="291" y="121" on="1"/>
        <pt x="327" y="110" on="0"/>
        <pt x="438" y="97" on="0"/>
        <pt x="500" y="97" on="1"/>
        <pt x="555" y="97" on="0"/>
        <pt x="665" y="113" on="0"/>
        <pt x="705" y="125" on="1"/>
        <pt x="724" y="155" on="0"/>
        <pt x="756" y="236" on="0"/>
        <pt x="763" y="281" on="1"/>
        <pt x="774" y="359" on="0"/>
        <pt x="675" y="489" on="0"/>
        <pt x="506" y="600" on="1"/>
        <pt x="297" y="732" on="0"/>
        <pt x="161" y="906" on="0"/>
        <pt x="180" y="1039" on="1"/>
        <pt x="202" y="1187" on="0"/>
        <pt x="514" y="1375" on="0"/>
        <pt x="759" y="1375" on="1"/>
        <pt x="863" y="1375" on="0"/>
        <pt x="1067" y="1349" on="0"/>
        <pt x="1143" y="1323" on="1"/>
        <pt x="1126" y="1033" on="1"/>
        <pt x="968" y="1033" on="1"/>
        <pt x="923" y="1234" on="1"/>
        <pt x="874" y="1246" on="0"/>
        <pt x="774" y="1256" on="0"/>
        <pt x="731" y="1256" on="1"/>
        <pt x="676" y="1256" on="0"/>
        <pt x="568" y="1239" on="0"/>
        <pt x="532" y="1228" on="1"/>
        <pt x="519" y="1205" on="0"/>
        <pt x="493" y="1130" on="0"/>
        <pt x="489" y="1100" on="1"/>
        <pt x="476" y="1012" on="0"/>
        <pt x="607" y="882" on="0"/>
      </contour>
    </TTGlyph>
    <TTGlyph name="Scircumflex" xMin="60" yMin="-22" xMax="1146" yMax="1794">
      <component glyphName="S" x="0" y="0" flags="0x204"/>
      <component glyphName="circumflex.case" x="513" y="0" flags="0x4"/>
    </TTGlyph>
    <TTGlyph name="Scommaaccent" xMin="60" yMin="-511" xMax="1143" yMax="1375">
      <component glyphName="S" x="0" y="0" flags="0x204"/>
      <component glyphName="uni0326" x="848" y="0" flags="0x4"/>
    </TTGlyph>
    <TTGlyph name="T" xMin="60" yMin="0" xMax="1228" yMax="1353">
      <contour>
        <pt x="223" y="105" on="1"/>
        <pt x="353" y="125" on="1"/>
        <pt x="510" y="1234" on="1"/>
        <pt x="283" y="1234" on="1"/>
        <pt x="208" y="1043" on="1"/>
        <pt x="60" y="1043" on="1"/>
        <pt x="116" y="1353" on="1"/>
        <pt x="1228" y="1353" on="1"/>
        <pt x="1201" y="1043" on="1"/>
        <pt x="1062" y="1043" on="1"/>
        <pt x="1032" y="1234" on="1"/>
        <pt x="810" y="1234" on="1"/>
        <pt x="653" y="125" on="1"/>
        <pt x="785" y="105" on="1"/>
        <pt x="765" y="0" on="1"/>
        <pt x="228" y="0" on="1"/>
      </contour>
    </TTGlyph>
    <TTGlyph name="Tbar" xMin="60" yMin="0" xMax="1228" yMax="1353">
      <contour>
        <pt x="223" y="105" on="1"/>
        <pt x="353" y="125" on="1"/>
        <pt x="415" y="567" on="1"/>
        <pt x="187" y="567" on="1"/>
        <pt x="206" y="704" on="1"/>
        <pt x="435" y="704" on="1"/>
        <pt x="510" y="1234" on="1"/>
        <pt x="283" y="1234" on="1"/>
        <pt x="208" y="1043" on="1"/>
        <pt x="60" y="1043" on="1"/>
        <pt x="116" y="1353" on="1"/>
        <pt x="1228" y="1353" on="1"/>
        <pt x="1201" y="1043" on="1"/>
        <pt x="1062" y="1043" on="1"/>
        <pt x="1032" y="1234" on="1"/>
        <pt x="810" y="1234" on="1"/>
        <pt x="735" y="704" on="1"/>
        <pt x="949" y="704" on="1"/>
        <pt x="930" y="567" on="1"/>
        <pt x="715" y="567" on="1"/>
        <pt x="653" y="125" on="1"/>
        <pt x="785" y="105" on="1"/>
        <pt x="765" y="0" on="1"/>
        <pt x="228" y="0" on="1"/>
      </contour>
    </TTGlyph>
    <TTGlyph name="Tcaron" xMin="60" yMin="0" xMax="1228" yMax="1794">
      <component glyphName="T" x="0" y="0" flags="0x204"/>
      <component glyphName="caron.case" x="435" y="0" flags="0x4"/>
    </TTGlyph>
    <TTGlyph name="Tcommaaccent" xMin="60" yMin="-457" xMax="1228" yMax="1353">
      <contour>
        <pt x="223" y="105" on="1"/>
        <pt x="353" y="125" on="1"/>
        <pt x="510" y="1234" on="1"/>
        <pt x="283" y="1234" on="1"/>
        <pt x="208" y="1043" on="1"/>
        <pt x="60" y="1043" on="1"/>
        <pt x="116" y="1353" on="1"/>
        <pt x="1228" y="1353" on="1"/>
        <pt x="1201" y="1043" on="1"/>
        <pt x="1062" y="1043" on="1"/>
        <pt x="1032" y="1234" on="1"/>
        <pt x="810" y="1234" on="1"/>
        <pt x="653" y="125" on="1"/>
        <pt x="785" y="105" on="1"/>
        <pt x="765" y="0" on="1"/>
        <pt x="559" y="0" on="1"/>
        <pt x="506" y="-105" on="1"/>
        <pt x="555" y="-114" on="0"/>
        <pt x="631" y="-141" on="0"/>
        <pt x="681" y="-183" on="0"/>
        <pt x="702" y="-243" on="0"/>
        <pt x="696" y="-284" on="1"/>
        <pt x="690" y="-323" on="0"/>
        <pt x="648" y="-387" on="0"/>
        <pt x="579" y="-432" on="0"/>
        <pt x="485" y="-457" on="0"/>
        <pt x="428" y="-457" on="1"/>
        <pt x="386" y="-457" on="0"/>
        <pt x="312" y="-443" on="0"/>
        <pt x="253" y="-423" on="0"/>
        <pt x="230" y="-410" on="1"/>
        <pt x="243" y="-317" on="1"/>
        <pt x="269" y="-328" on="0"/>
        <pt x="323" y="-345" on="0"/>
        <pt x="387" y="-357" on="0"/>
        <pt x="416" y="-357" on="1"/>
        <pt x="438" y="-357" on="0"/>
        <pt x="473" y="-353" on="0"/>
        <pt x="485" y="-350" on="1"/>
        <pt x="489" y="-344" on="0"/>
        <pt x="495" y="-331" on="0"/>
        <pt x="501" y="-311" on="0"/>
        <pt x="503" y="-297" on="1"/>
        <pt x="506" y="-273" on="0"/>
        <pt x="498" y="-238" on="0"/>
        <pt x="470" y="-212" on="0"/>
        <pt x="420" y="-193" on="0"/>
        <pt x="382" y="-186" on="1"/>
        <pt x="356" y="-122" on="1"/>
        <pt x="417" y="0" on="1"/>
        <pt x="228" y="0" on="1"/>
      </contour>
    </TTGlyph>
    <TTGlyph name="Thorn" xMin="-6" yMin="0" xMax="1145" yMax="1353">
      <contour>
        <pt x="169" y="1353" on="1"/>
        <pt x="706" y="1353" on="1"/>
        <pt x="711" y="1248" on="1"/>
        <pt x="580" y="1228" on="1"/>
        <pt x="560" y="1085" on="1"/>
        <pt x="681" y="1085" on="1"/>
        <pt x="802" y="1085" on="0"/>
        <pt x="983" y="1045" on="0"/>
        <pt x="1099" y="959" on="0"/>
        <pt x="1145" y="823" on="0"/>
        <pt x="1132" y="727" on="1"/>
        <pt x="1119" y="633" on="0"/>
        <pt x="1025" y="488" on="0"/>
        <pt x="887" y="389" on="0"/>
        <pt x="715" y="338" on="0"/>
        <pt x="624" y="338" on="1"/>
        <pt x="454" y="338" on="1"/>
        <pt x="424" y="125" on="1"/>
        <pt x="606" y="105" on="1"/>
        <pt x="586" y="0" on="1"/>
        <pt x="-1" y="0" on="1"/>
        <pt x="-6" y="105" on="1"/>
        <pt x="124" y="125" on="1"/>
        <pt x="280" y="1228" on="1"/>
        <pt x="149" y="1248" on="1"/>
      </contour>
      <contour>
        <pt x="560" y="457" on="1"/>
        <pt x="603" y="457" on="0"/>
        <pt x="671" y="462" on="0"/>
        <pt x="695" y="466" on="1"/>
        <pt x="723" y="470" on="0"/>
        <pt x="745" y="475" on="1"/>
        <pt x="762" y="505" on="0"/>
        <pt x="778" y="540" on="1"/>
        <pt x="791" y="570" on="0"/>
        <pt x="817" y="652" on="0"/>
        <pt x="824" y="700" on="1"/>
        <pt x="843" y="839" on="0"/>
        <pt x="733" y="966" on="0"/>
        <pt x="599" y="966" on="1"/>
        <pt x="543" y="966" on="1"/>
        <pt x="471" y="457" on="1"/>
      </contour>
    </TTGlyph>
    <TTGlyph name="U" xMin="122" yMin="-22" xMax="1502" yMax="1353">
      <contour>
        <pt x="692" y="1248" on="1"/>
        <pt x="561" y="1228" on="1"/>
        <pt x="466" y="546" on="1"/>
        <pt x="435" y="328" on="0"/>
        <pt x="552" y="97" on="0"/>
        <pt x="707" y="97" on="1"/>
        <pt x="791" y="97" on="0"/>
        <pt x="936" y="139" on="0"/>
        <pt x="982" y="173" on="1"/>
        <pt x="1008" y="223" on="0"/>
        <pt x="1065" y="410" on="0"/>
        <pt x="1081" y="521" on="1"/>
        <pt x="1180" y="1228" on="1"/>
        <pt x="1049" y="1248" on="1"/>
        <pt x="1069" y="1353" on="1"/>
        <pt x="1497" y="1353" on="1"/>
        <pt x="1502" y="1248" on="1"/>
        <pt x="1371" y="1228" on="1"/>
        <pt x="1272" y="518" on="1"/>
        <pt x="1234" y="244" on="0"/>
        <pt x="928" y="-22" on="0"/>
        <pt x="635" y="-22" on="1"/>
        <pt x="352" y="-22" on="0"/>
        <pt x="122" y="231" on="0"/>
        <pt x="158" y="491" on="1"/>
        <pt x="261" y="1228" on="1"/>
        <pt x="130" y="1248" on="1"/>
        <pt x="150" y="1353" on="1"/>
        <pt x="687" y="1353" on="1"/>
      </contour>
    </TTGlyph>
    <TTGlyph name="Uacute" xMin="122" yMin="-22" xMax="1502" yMax="1784">
      <component glyphName="U" x="0" y="0" flags="0x204"/>
      <component glyphName="acute.case" x="692" y="0" flags="0x4"/>
    </TTGlyph>
    <TTGlyph name="Ubreve" xMin="122" yMin="-22" xMax="1502" yMax="1759">
      <component glyphName="U" x="0" y="0" flags="0x204"/>
      <component glyphName="breve.case" x="645" y="0" flags="0x4"/>
    </TTGlyph>
    <TTGlyph name="Ucircumflex" xMin="122" yMin="-22" xMax="1502" yMax="1794">
      <component glyphName="U" x="0" y="0" flags="0x204"/>
      <component glyphName="circumflex.case" x="636" y="0" flags="0x4"/>
    </TTGlyph>
    <TTGlyph name="Udieresis" xMin="122" yMin="-22" xMax="1502" yMax="1728">
      <component glyphName="U" x="0" y="0" flags="0x204"/>
      <component glyphName="dieresis.case" x="613" y="0" flags="0x4"/>
    </TTGlyph>
    <TTGlyph name="Ugrave" xMin="122" yMin="-22" xMax="1502" yMax="1784">
      <component glyphName="U" x="0" y="0" flags="0x204"/>
      <component glyphName="grave.case" x="437" y="0" flags="0x4"/>
    </TTGlyph>
    <TTGlyph name="Uhorn" xMin="71" yMin="-22" xMax="1745" yMax="1589">
      <contour>
        <pt x="1681" y="1589" on="1"/>
        <pt x="1721" y="1529" on="0"/>
        <pt x="1745" y="1421" on="0"/>
        <pt x="1738" y="1376" on="1"/>
        <pt x="1729" y="1314" on="0"/>
        <pt x="1667" y="1211" on="0"/>
        <pt x="1542" y="1120" on="0"/>
        <pt x="1444" y="1078" on="1"/>
        <pt x="1378" y="1050" on="0"/>
        <pt x="1291" y="1021" on="1"/>
        <pt x="1221" y="518" on="1"/>
        <pt x="1183" y="244" on="0"/>
        <pt x="877" y="-22" on="0"/>
        <pt x="584" y="-22" on="1"/>
        <pt x="301" y="-22" on="0"/>
        <pt x="71" y="231" on="0"/>
        <pt x="107" y="491" on="1"/>
        <pt x="210" y="1228" on="1"/>
        <pt x="79" y="1248" on="1"/>
        <pt x="99" y="1353" on="1"/>
        <pt x="636" y="1353" on="1"/>
        <pt x="641" y="1248" on="1"/>
        <pt x="510" y="1228" on="1"/>
        <pt x="415" y="546" on="1"/>
        <pt x="384" y="328" on="0"/>
        <pt x="501" y="97" on="0"/>
        <pt x="656" y="97" on="1"/>
        <pt x="740" y="97" on="0"/>
        <pt x="885" y="139" on="0"/>
        <pt x="931" y="173" on="1"/>
        <pt x="957" y="223" on="0"/>
        <pt x="1014" y="410" on="0"/>
        <pt x="1030" y="521" on="1"/>
        <pt x="1129" y="1228" on="1"/>
        <pt x="998" y="1248" on="1"/>
        <pt x="1018" y="1353" on="1"/>
        <pt x="1446" y="1353" on="1"/>
        <pt x="1451" y="1248" on="1"/>
        <pt x="1320" y="1228" on="1"/>
        <pt x="1308" y="1144" on="1"/>
        <pt x="1330" y="1155" on="0"/>
        <pt x="1348" y="1164" on="1"/>
        <pt x="1400" y="1191" on="0"/>
        <pt x="1465" y="1244" on="0"/>
        <pt x="1498" y="1303" on="0"/>
        <pt x="1503" y="1340" on="1"/>
        <pt x="1508" y="1373" on="0"/>
        <pt x="1495" y="1429" on="0"/>
        <pt x="1474" y="1473" on="0"/>
        <pt x="1458" y="1492" on="1"/>
        <pt x="1463" y="1532" on="1"/>
      </contour>
    </TTGlyph>
    <TTGlyph name="Uhungarumlaut" xMin="122" yMin="-22" xMax="1554" yMax="1784">
      <component glyphName="U" x="0" y="0" flags="0x204"/>
      <component glyphName="hungarumlaut.case" x="767" y="0" flags="0x4"/>
    </TTGlyph>
    <TTGlyph name="Umacron" xMin="122" yMin="-22" xMax="1502" yMax="1680">
      <component glyphName="U" x="0" y="0" flags="0x204"/>
      <component glyphName="macron.case" x="631" y="0" flags="0x4"/>
    </TTGlyph>
    <TTGlyph name="Uogonek" xMin="130" yMin="-457" xMax="1502" yMax="1353">
      <contour>
        <pt x="692" y="1248" on="1"/>
        <pt x="561" y="1228" on="1"/>
        <pt x="466" y="546" on="1"/>
        <pt x="448" y="416" on="0"/>
        <pt x="471" y="243" on="0"/>
        <pt x="540" y="140" on="0"/>
        <pt x="644" y="97" on="0"/>
        <pt x="707" y="97" on="1"/>
        <pt x="776" y="97" on="0"/>
        <pt x="878" y="121" on="0"/>
        <pt x="953" y="152" on="0"/>
        <pt x="982" y="173" on="1"/>
        <pt x="1002" y="213" on="0"/>
        <pt x="1036" y="311" on="0"/>
        <pt x="1070" y="440" on="0"/>
        <pt x="1081" y="521" on="1"/>
        <pt x="1180" y="1228" on="1"/>
        <pt x="1049" y="1248" on="1"/>
        <pt x="1069" y="1353" on="1"/>
        <pt x="1497" y="1353" on="1"/>
        <pt x="1502" y="1248" on="1"/>
        <pt x="1371" y="1228" on="1"/>
        <pt x="1272" y="518" on="1"/>
        <pt x="1245" y="329" on="0"/>
        <pt x="1088" y="86" on="0"/>
        <pt x="944" y="29" on="1"/>
        <pt x="871" y="-6" on="0"/>
        <pt x="771" y="-86" on="0"/>
        <pt x="708" y="-167" on="0"/>
        <pt x="676" y="-243" on="0"/>
        <pt x="672" y="-274" on="1"/>
        <pt x="666" y="-315" on="0"/>
        <pt x="691" y="-347" on="0"/>
        <pt x="721" y="-347" on="1"/>
        <pt x="744" y="-347" on="0"/>
        <pt x="802" y="-322" on="0"/>
        <pt x="859" y="-289" on="0"/>
        <pt x="891" y="-267" on="1"/>
        <pt x="875" y="-370" on="1"/>
        <pt x="843" y="-395" on="0"/>
        <pt x="770" y="-431" on="0"/>
        <pt x="679" y="-457" on="0"/>
        <pt x="624" y="-457" on="1"/>
        <pt x="584" y="-457" on="0"/>
        <pt x="523" y="-443" on="0"/>
        <pt x="485" y="-411" on="0"/>
        <pt x="470" y="-357" on="0"/>
        <pt x="475" y="-316" on="1"/>
        <pt x="486" y="-236" on="0"/>
        <pt x="589" y="-93" on="0"/>
        <pt x="680" y="-21" on="1"/>
        <pt x="669" y="-21" on="0"/>
        <pt x="646" y="-22" on="0"/>
        <pt x="635" y="-22" on="1"/>
        <pt x="499" y="-22" on="0"/>
        <pt x="302" y="37" on="0"/>
        <pt x="181" y="162" on="0"/>
        <pt x="139" y="356" on="0"/>
        <pt x="158" y="491" on="1"/>
        <pt x="261" y="1228" on="1"/>
        <pt x="130" y="1248" on="1"/>
        <pt x="150" y="1353" on="1"/>
        <pt x="687" y="1353" on="1"/>
      </contour>
    </TTGlyph>
    <TTGlyph name="Uring" xMin="122" yMin="-22" xMax="1502" yMax="1799">
      <component glyphName="U" x="0" y="0" flags="0x204"/>
      <component glyphName="ring.case" x="637" y="0" flags="0x4"/>
    </TTGlyph>
    <TTGlyph name="Utilde" xMin="122" yMin="-22" xMax="1502" yMax="1777">
      <component glyphName="U" x="0" y="0" flags="0x204"/>
      <component glyphName="tilde.case" x="628" y="0" flags="0x4"/>
    </TTGlyph>
    <TTGlyph name="V" xMin="76" yMin="0" xMax="1427" yMax="1353">
      <contour>
        <pt x="1002" y="1353" on="1"/>
        <pt x="1416" y="1353" on="1"/>
        <pt x="1427" y="1248" on="1"/>
        <pt x="1312" y="1225" on="1"/>
        <pt x="709" y="0" on="1"/>
        <pt x="438" y="0" on="1"/>
        <pt x="179" y="1227" on="1"/>
        <pt x="76" y="1248" on="1"/>
        <pt x="90" y="1353" on="1"/>
        <pt x="587" y="1353" on="1"/>
        <pt x="598" y="1248" on="1"/>
        <pt x="458" y="1228" on="1"/>
        <pt x="645" y="272" on="1"/>
        <pt x="661" y="272" on="1"/>
        <pt x="1118" y="1229" on="1"/>
        <pt x="988" y="1248" on="1"/>
      </contour>
    </TTGlyph>
    <TTGlyph name="W" xMin="60" yMin="0" xMax="2235" yMax="1353">
      <contour>
        <pt x="163" y="1228" on="1"/>
        <pt x="60" y="1248" on="1"/>
        <pt x="74" y="1353" on="1"/>
        <pt x="571" y="1353" on="1"/>
        <pt x="582" y="1248" on="1"/>
        <pt x="445" y="1228" on="1"/>
        <pt x="640" y="325" on="1"/>
        <pt x="656" y="325" on="1"/>
        <pt x="1084" y="1353" on="1"/>
        <pt x="1335" y="1353" on="1"/>
        <pt x="1526" y="325" on="1"/>
        <pt x="1542" y="325" on="1"/>
        <pt x="1928" y="1229" on="1"/>
        <pt x="1796" y="1248" on="1"/>
        <pt x="1810" y="1353" on="1"/>
        <pt x="2224" y="1353" on="1"/>
        <pt x="2235" y="1248" on="1"/>
        <pt x="2123" y="1226" on="1"/>
        <pt x="1582" y="0" on="1"/>
        <pt x="1308" y="0" on="1"/>
        <pt x="1127" y="975" on="1"/>
        <pt x="1111" y="975" on="1"/>
        <pt x="702" y="0" on="1"/>
        <pt x="430" y="0" on="1"/>
      </contour>
    </TTGlyph>
    <TTGlyph name="Wacute" xMin="60" yMin="0" xMax="2235" yMax="1784">
      <component glyphName="W" x="0" y="0" flags="0x204"/>
      <component glyphName="acute.case" x="1050" y="0" flags="0x4"/>
    </TTGlyph>
    <TTGlyph name="Wcircumflex" xMin="60" yMin="0" xMax="2235" yMax="1794">
      <component glyphName="W" x="0" y="0" flags="0x204"/>
      <component glyphName="circumflex.case" x="994" y="0" flags="0x4"/>
    </TTGlyph>
    <TTGlyph name="Wdieresis" xMin="60" yMin="0" xMax="2235" yMax="1728">
      <component glyphName="W" x="0" y="0" flags="0x204"/>
      <component glyphName="dieresis.case" x="971" y="0" flags="0x4"/>
    </TTGlyph>
    <TTGlyph name="Wdotaccent" xMin="60" yMin="0" xMax="2235" yMax="1751">
      <component glyphName="W" x="0" y="0" flags="0x204"/>
      <component glyphName="dotaccent.case" x="1014" y="0" flags="0x4"/>
    </TTGlyph>
    <TTGlyph name="Wgrave" xMin="60" yMin="0" xMax="2235" yMax="1784">
      <component glyphName="W" x="0" y="0" flags="0x204"/>
      <component glyphName="grave.case" x="795" y="0" flags="0x4"/>
    </TTGlyph>
    <TTGlyph name="X" xMin="-56" yMin="0" xMax="1333" yMax="1353">
      <contour>
        <pt x="1196" y="0" on="1"/>
        <pt x="711" y="0" on="1"/>
        <pt x="706" y="105" on="1"/>
        <pt x="808" y="119" on="1"/>
        <pt x="595" y="530" on="1"/>
        <pt x="579" y="530" on="1"/>
        <pt x="259" y="119" on="1"/>
        <pt x="362" y="105" on="1"/>
        <pt x="342" y="0" on="1"/>
        <pt x="-51" y="0" on="1"/>
        <pt x="-56" y="105" on="1"/>
        <pt x="59" y="127" on="1"/>
        <pt x="510" y="691" on="1"/>
        <pt x="233" y="1227" on="1"/>
        <pt x="123" y="1248" on="1"/>
        <pt x="137" y="1353" on="1"/>
        <pt x="617" y="1353" on="1"/>
        <pt x="628" y="1248" on="1"/>
        <pt x="526" y="1233" on="1"/>
        <pt x="714" y="874" on="1"/>
        <pt x="730" y="874" on="1"/>
        <pt x="1013" y="1234" on="1"/>
        <pt x="917" y="1248" on="1"/>
        <pt x="931" y="1353" on="1"/>
        <pt x="1322" y="1353" on="1"/>
        <pt x="1333" y="1248" on="1"/>
        <pt x="1212" y="1224" on="1"/>
        <pt x="796" y="711" on="1"/>
        <pt x="1099" y="127" on="1"/>
        <pt x="1216" y="105" on="1"/>
      </contour>
    </TTGlyph>
    <TTGlyph name="Y" xMin="28" yMin="0" xMax="1340" yMax="1353">
      <contour>
        <pt x="42" y="1353" on="1"/>
        <pt x="523" y="1353" on="1"/>
        <pt x="534" y="1248" on="1"/>
        <pt x="429" y="1233" on="1"/>
        <pt x="658" y="770" on="1"/>
        <pt x="674" y="770" on="1"/>
        <pt x="1019" y="1234" on="1"/>
        <pt x="919" y="1248" on="1"/>
        <pt x="933" y="1353" on="1"/>
        <pt x="1329" y="1353" on="1"/>
        <pt x="1340" y="1248" on="1"/>
        <pt x="1218" y="1224" on="1"/>
        <pt x="763" y="617" on="1"/>
        <pt x="693" y="125" on="1"/>
        <pt x="825" y="105" on="1"/>
        <pt x="805" y="0" on="1"/>
        <pt x="268" y="0" on="1"/>
        <pt x="263" y="105" on="1"/>
        <pt x="393" y="125" on="1"/>
        <pt x="458" y="586" on="1"/>
        <pt x="138" y="1226" on="1"/>
        <pt x="28" y="1248" on="1"/>
      </contour>
    </TTGlyph>
    <TTGlyph name="Yacute" xMin="28" yMin="0" xMax="1340" yMax="1784">
      <component glyphName="Y" x="0" y="0" flags="0x204"/>
      <component glyphName="acute.case" x="544" y="0" flags="0x4"/>
    </TTGlyph>
    <TTGlyph name="Ycircumflex" xMin="28" yMin="0" xMax="1340" yMax="1794">
      <component glyphName="Y" x="0" y="0" flags="0x204"/>
      <component glyphName="circumflex.case" x="488" y="0" flags="0x4"/>
    </TTGlyph>
    <TTGlyph name="Ydieresis" xMin="28" yMin="0" xMax="1340" yMax="1728">
      <component glyphName="Y" x="0" y="0" flags="0x204"/>
      <component glyphName="dieresis.case" x="465" y="0" flags="0x4"/>
    </TTGlyph>
    <TTGlyph name="Ygrave" xMin="28" yMin="0" xMax="1340" yMax="1784">
      <component glyphName="Y" x="0" y="0" flags="0x204"/>
      <component glyphName="grave.case" x="289" y="0" flags="0x4"/>
    </TTGlyph>
    <TTGlyph name="Z" xMin="14" yMin="0" xMax="1220" yMax="1353">
      <contour>
        <pt x="1220" y="1353" on="1"/>
        <pt x="1220" y="1259" on="1"/>
        <pt x="382" y="133" on="1"/>
        <pt x="385" y="119" on="1"/>
        <pt x="882" y="119" on="1"/>
        <pt x="981" y="332" on="1"/>
        <pt x="1131" y="320" on="1"/>
        <pt x="1064" y="0" on="1"/>
        <pt x="14" y="0" on="1"/>
        <pt x="14" y="95" on="1"/>
        <pt x="851" y="1220" on="1"/>
        <pt x="848" y="1234" on="1"/>
        <pt x="392" y="1234" on="1"/>
        <pt x="293" y="1021" on="1"/>
        <pt x="142" y="1033" on="1"/>
        <pt x="210" y="1353" on="1"/>
      </contour>
    </TTGlyph>
    <TTGlyph name="Zacute" xMin="14" yMin="0" xMax="1220" yMax="1784">
      <component glyphName="Z" x="0" y="0" flags="0x204"/>
      <component glyphName="acute.case" x="544" y="0" flags="0x4"/>
    </TTGlyph>
    <TTGlyph name="Zcaron" xMin="14" yMin="0" xMax="1220" yMax="1794">
      <component glyphName="Z" x="0" y="0" flags="0x204"/>
      <component glyphName="caron.case" x="479" y="0" flags="0x4"/>
    </TTGlyph>
    <TTGlyph name="Zcircumflex" xMin="14" yMin="0" xMax="1220" yMax="1794">
      <component glyphName="Z" x="0" y="0" flags="0x204"/>
      <component glyphName="circumflex.case" x="488" y="0" flags="0x4"/>
    </TTGlyph>
    <TTGlyph name="Zdotaccent" xMin="14" yMin="0" xMax="1220" yMax="1751">
      <component glyphName="Z" x="0" y="0" flags="0x204"/>
      <component glyphName="dotaccent.case" x="508" y="0" flags="0x4"/>
    </TTGlyph>
    <TTGlyph name="a" xMin="49" yMin="-22" xMax="1128" yMax="1107">
      <contour>
        <pt x="1108" y="0" on="1"/>
        <pt x="778" y="-22" on="1"/>
        <pt x="697" y="56" on="1"/>
        <pt x="720" y="225" on="1"/>
        <pt x="638" y="109" on="0"/>
        <pt x="440" y="-22" on="0"/>
        <pt x="341" y="-22" on="1"/>
        <pt x="181" y="-22" on="0"/>
        <pt x="49" y="171" on="0"/>
        <pt x="77" y="373" on="1"/>
        <pt x="103" y="561" on="1"/>
        <pt x="140" y="813" on="0"/>
        <pt x="456" y="1107" on="0"/>
        <pt x="689" y="1107" on="1"/>
        <pt x="783" y="1107" on="0"/>
        <pt x="1018" y="1064" on="0"/>
        <pt x="1122" y="1029" on="1"/>
        <pt x="996" y="125" on="1"/>
        <pt x="1128" y="105" on="1"/>
      </contour>
      <contour>
        <pt x="380" y="461" on="1"/>
        <pt x="356" y="294" on="0"/>
        <pt x="376" y="106" on="0"/>
        <pt x="448" y="106" on="1"/>
        <pt x="499" y="106" on="0"/>
        <pt x="658" y="265" on="0"/>
        <pt x="743" y="393" on="1"/>
        <pt x="825" y="982" on="1"/>
        <pt x="798" y="990" on="0"/>
        <pt x="714" y="1003" on="0"/>
        <pt x="668" y="1003" on="1"/>
        <pt x="631" y="1003" on="0"/>
        <pt x="550" y="987" on="0"/>
        <pt x="511" y="973" on="1"/>
        <pt x="471" y="898" on="0"/>
        <pt x="413" y="698" on="0"/>
        <pt x="398" y="592" on="1"/>
      </contour>
    </TTGlyph>
    <TTGlyph name="aacute" xMin="49" yMin="-22" xMax="1180" yMax="1670">
      <component glyphName="a" x="0" y="0" flags="0x204"/>
      <component glyphName="acute" x="470" y="0" flags="0x4"/>
    </TTGlyph>
    <TTGlyph name="abreve" xMin="49" yMin="-22" xMax="1128" yMax="1602">
      <component glyphName="a" x="0" y="0" flags="0x204"/>
      <component glyphName="breve" x="284" y="0" flags="0x4"/>
    </TTGlyph>
    <TTGlyph name="acircumflex" xMin="49" yMin="-22" xMax="1128" yMax="1680">
      <component glyphName="a" x="0" y="0" flags="0x204"/>
      <component glyphName="circumflex" x="286" y="0" flags="0x4"/>
    </TTGlyph>
    <TTGlyph name="acute" xMin="200" yMin="1265" xMax="710" yMax="1670">
      <contour>
        <pt x="205" y="1307" on="1"/>
        <pt x="439" y="1670" on="1"/>
        <pt x="710" y="1660" on="1"/>
        <pt x="700" y="1594" on="1"/>
        <pt x="334" y="1265" on="1"/>
        <pt x="200" y="1275" on="1"/>
      </contour>
    </TTGlyph>
    <TTGlyph name="acute.case" xMin="60" yMin="1460" xMax="620" yMax="1784">
      <contour>
        <pt x="60" y="1503" on="1"/>
        <pt x="338" y="1784" on="1"/>
        <pt x="620" y="1774" on="1"/>
        <pt x="620" y="1708" on="1"/>
        <pt x="205" y="1460" on="1"/>
        <pt x="60" y="1471" on="1"/>
      </contour>
    </TTGlyph>
    <TTGlyph name="acutecomb" xMin="-712" yMin="1265" xMax="-202" yMax="1670">
      <contour>
        <pt x="-707" y="1307" on="1"/>
        <pt x="-473" y="1670" on="1"/>
        <pt x="-202" y="1660" on="1"/>
        <pt x="-212" y="1594" on="1"/>
        <pt x="-578" y="1265" on="1"/>
        <pt x="-712" y="1275" on="1"/>
      </contour>
    </TTGlyph>
    <TTGlyph name="adieresis" xMin="49" yMin="-22" xMax="1128" yMax="1540">
      <component glyphName="a" x="0" y="0" flags="0x204"/>
      <component glyphName="dieresis" x="220" y="0" flags="0x4"/>
    </TTGlyph>
    <TTGlyph name="ae" xMin="5" yMin="-22" xMax="1589" yMax="1107">
      <contour>
        <pt x="1578" y="802" on="1"/>
        <pt x="1569" y="733" on="0"/>
        <pt x="1490" y="615" on="0"/>
        <pt x="1366" y="530" on="0"/>
        <pt x="1202" y="482" on="0"/>
        <pt x="1106" y="482" on="1"/>
        <pt x="1049" y="482" on="0"/>
        <pt x="959" y="487" on="0"/>
        <pt x="930" y="490" on="1"/>
        <pt x="923" y="443" on="1"/>
        <pt x="910" y="350" on="0"/>
        <pt x="936" y="216" on="0"/>
        <pt x="1001" y="129" on="0"/>
        <pt x="1097" y="88" on="0"/>
        <pt x="1153" y="88" on="1"/>
        <pt x="1206" y="88" on="0"/>
        <pt x="1310" y="116" on="0"/>
        <pt x="1400" y="152" on="0"/>
        <pt x="1445" y="178" on="1"/>
        <pt x="1445" y="72" on="1"/>
        <pt x="1403" y="45" on="0"/>
        <pt x="1301" y="7" on="0"/>
        <pt x="1169" y="-22" on="0"/>
        <pt x="1085" y="-22" on="1"/>
        <pt x="940" y="-22" on="0"/>
        <pt x="759" y="71" on="0"/>
        <pt x="715" y="155" on="1"/>
        <pt x="692" y="134" on="0"/>
        <pt x="613" y="74" on="0"/>
        <pt x="506" y="18" on="0"/>
        <pt x="372" y="-22" on="0"/>
        <pt x="294" y="-22" on="1"/>
        <pt x="224" y="-22" on="0"/>
        <pt x="112" y="12" on="0"/>
        <pt x="37" y="79" on="0"/>
        <pt x="5" y="179" on="0"/>
        <pt x="14" y="244" on="1"/>
        <pt x="25" y="323" on="0"/>
        <pt x="116" y="454" on="0"/>
        <pt x="284" y="549" on="0"/>
        <pt x="534" y="602" on="0"/>
        <pt x="705" y="602" on="1"/>
        <pt x="719" y="702" on="1"/>
        <pt x="731" y="786" on="0"/>
        <pt x="712" y="899" on="0"/>
        <pt x="663" y="968" on="0"/>
        <pt x="589" y="997" on="0"/>
        <pt x="545" y="997" on="1"/>
        <pt x="516" y="997" on="0"/>
        <pt x="458" y="992" on="0"/>
        <pt x="408" y="985" on="0"/>
        <pt x="382" y="982" on="1"/>
        <pt x="292" y="750" on="1"/>
        <pt x="165" y="750" on="1"/>
        <pt x="205" y="1053" on="1"/>
        <pt x="254" y="1068" on="0"/>
        <pt x="366" y="1090" on="0"/>
        <pt x="505" y="1107" on="0"/>
        <pt x="586" y="1107" on="1"/>
        <pt x="709" y="1107" on="0"/>
        <pt x="878" y="1052" on="0"/>
        <pt x="923" y="990" on="1"/>
        <pt x="994" y="1049" on="0"/>
        <pt x="1164" y="1107" on="0"/>
        <pt x="1259" y="1107" on="1"/>
        <pt x="1344" y="1107" on="0"/>
        <pt x="1474" y="1071" on="0"/>
        <pt x="1556" y="996" on="0"/>
        <pt x="1589" y="881" on="0"/>
      </contour>
      <contour>
        <pt x="408" y="88" on="1"/>
        <pt x="447" y="88" on="0"/>
        <pt x="537" y="129" on="0"/>
        <pt x="618" y="181" on="0"/>
        <pt x="677" y="228" on="0"/>
        <pt x="685" y="235" on="1"/>
        <pt x="666" y="321" on="0"/>
        <pt x="681" y="429" on="1"/>
        <pt x="690" y="492" on="1"/>
        <pt x="600" y="491" on="0"/>
        <pt x="477" y="475" on="0"/>
        <pt x="392" y="454" on="0"/>
        <pt x="363" y="438" on="1"/>
        <pt x="350" y="417" on="0"/>
        <pt x="329" y="367" on="0"/>
        <pt x="312" y="302" on="0"/>
        <pt x="307" y="263" on="1"/>
        <pt x="296" y="171" on="0"/>
        <pt x="348" y="88" on="0"/>
      </contour>
      <contour>
        <pt x="1095" y="968" on="1"/>
        <pt x="1063" y="923" on="0"/>
        <pt x="1010" y="817" on="0"/>
        <pt x="960" y="679" on="0"/>
        <pt x="945" y="592" on="1"/>
        <pt x="961" y="591" on="0"/>
        <pt x="1005" y="589" on="0"/>
        <pt x="1053" y="587" on="0"/>
        <pt x="1104" y="586" on="0"/>
        <pt x="1128" y="586" on="1"/>
        <pt x="1153" y="586" on="0"/>
        <pt x="1195" y="591" on="0"/>
        <pt x="1228" y="598" on="0"/>
        <pt x="1241" y="603" on="1"/>
        <pt x="1252" y="625" on="0"/>
        <pt x="1263" y="653" on="1"/>
        <pt x="1272" y="677" on="0"/>
        <pt x="1292" y="746" on="0"/>
        <pt x="1298" y="791" on="1"/>
        <pt x="1306" y="851" on="0"/>
        <pt x="1303" y="931" on="0"/>
        <pt x="1280" y="978" on="0"/>
        <pt x="1238" y="997" on="0"/>
        <pt x="1208" y="997" on="1"/>
        <pt x="1185" y="997" on="0"/>
        <pt x="1145" y="987" on="0"/>
        <pt x="1111" y="976" on="0"/>
      </contour>
    </TTGlyph>
    <TTGlyph name="aeacute" xMin="5" yMin="-22" xMax="1589" yMax="1670">
      <component glyphName="ae" x="0" y="0" flags="0x204"/>
      <component glyphName="acute" x="653" y="0" flags="0x4"/>
    </TTGlyph>
    <TTGlyph name="agrave" xMin="49" yMin="-22" xMax="1128" yMax="1670">
      <component glyphName="a" x="0" y="0" flags="0x204"/>
      <component glyphName="grave" x="189" y="0" flags="0x4"/>
    </TTGlyph>
    <TTGlyph name="amacron" xMin="49" yMin="-22" xMax="1155" yMax="1483">
      <component glyphName="a" x="0" y="0" flags="0x204"/>
      <component glyphName="macron" x="215" y="0" flags="0x4"/>
    </TTGlyph>
    <TTGlyph name="ampersand" xMin="-58" yMin="-22" xMax="1473" yMax="1375">
      <contour>
        <pt x="1284" y="529" on="1"/>
        <pt x="1270" y="435" on="0"/>
        <pt x="1169" y="264" on="0"/>
        <pt x="1087" y="193" on="1"/>
        <pt x="1142" y="147" on="0"/>
        <pt x="1246" y="97" on="0"/>
        <pt x="1297" y="97" on="1"/>
        <pt x="1329" y="97" on="0"/>
        <pt x="1392" y="107" on="0"/>
        <pt x="1417" y="114" on="1"/>
        <pt x="1446" y="121" on="0"/>
        <pt x="1473" y="131" on="1"/>
        <pt x="1457" y="45" on="1"/>
        <pt x="1429" y="26" on="0"/>
        <pt x="1394" y="11" on="1"/>
        <pt x="1364" y="-2" on="0"/>
        <pt x="1280" y="-22" on="0"/>
        <pt x="1227" y="-22" on="1"/>
        <pt x="1146" y="-22" on="0"/>
        <pt x="987" y="29" on="0"/>
        <pt x="909" y="77" on="1"/>
        <pt x="813" y="30" on="0"/>
        <pt x="586" y="-22" on="0"/>
        <pt x="458" y="-22" on="1"/>
        <pt x="200" y="-22" on="0"/>
        <pt x="-58" y="136" on="0"/>
        <pt x="-37" y="293" on="1"/>
        <pt x="-35" y="305" on="1"/>
        <pt x="-26" y="368" on="0"/>
        <pt x="39" y="479" on="0"/>
        <pt x="139" y="577" on="0"/>
        <pt x="267" y="663" on="0"/>
        <pt x="338" y="701" on="1"/>
        <pt x="268" y="805" on="0"/>
        <pt x="221" y="962" on="0"/>
        <pt x="232" y="1030" on="1"/>
        <pt x="235" y="1048" on="1"/>
        <pt x="245" y="1110" on="0"/>
        <pt x="327" y="1228" on="0"/>
        <pt x="466" y="1319" on="0"/>
        <pt x="657" y="1375" on="0"/>
        <pt x="776" y="1375" on="1"/>
        <pt x="873" y="1375" on="0"/>
        <pt x="1013" y="1337" on="0"/>
        <pt x="1101" y="1268" on="0"/>
        <pt x="1137" y="1172" on="0"/>
        <pt x="1129" y="1113" on="1"/>
        <pt x="1126" y="1091" on="1"/>
        <pt x="1118" y="1031" on="0"/>
        <pt x="1058" y="930" on="0"/>
        <pt x="948" y="833" on="0"/>
        <pt x="787" y="735" on="0"/>
        <pt x="677" y="679" on="1"/>
        <pt x="746" y="585" on="0"/>
        <pt x="875" y="413" on="0"/>
        <pt x="938" y="341" on="1"/>
        <pt x="963" y="384" on="0"/>
        <pt x="997" y="481" on="0"/>
        <pt x="1005" y="536" on="1"/>
        <pt x="1010" y="573" on="1"/>
        <pt x="876" y="606" on="1"/>
        <pt x="904" y="694" on="1"/>
        <pt x="1310" y="716" on="1"/>
      </contour>
      <contour>
        <pt x="504" y="97" on="1"/>
        <pt x="577" y="97" on="0"/>
        <pt x="715" y="136" on="0"/>
        <pt x="776" y="174" on="1"/>
        <pt x="685" y="251" on="0"/>
        <pt x="514" y="447" on="0"/>
        <pt x="433" y="561" on="1"/>
        <pt x="395" y="541" on="0"/>
        <pt x="338" y="490" on="0"/>
        <pt x="298" y="435" on="0"/>
        <pt x="275" y="378" on="0"/>
        <pt x="271" y="351" on="1"/>
        <pt x="269" y="340" on="1"/>
        <pt x="261" y="289" on="0"/>
        <pt x="288" y="201" on="0"/>
        <pt x="350" y="135" on="0"/>
        <pt x="444" y="97" on="0"/>
      </contour>
      <contour>
        <pt x="824" y="1078" on="1"/>
        <pt x="838" y="1168" on="0"/>
        <pt x="762" y="1256" on="0"/>
        <pt x="693" y="1256" on="1"/>
        <pt x="670" y="1256" on="0"/>
        <pt x="632" y="1248" on="0"/>
        <pt x="618" y="1243" on="1"/>
        <pt x="601" y="1238" on="0"/>
        <pt x="587" y="1231" on="1"/>
        <pt x="575" y="1212" on="0"/>
        <pt x="565" y="1187" on="1"/>
        <pt x="557" y="1166" on="0"/>
        <pt x="540" y="1105" on="0"/>
        <pt x="537" y="1067" on="1"/>
        <pt x="536" y="1056" on="1"/>
        <pt x="533" y="1026" on="0"/>
        <pt x="533" y="966" on="0"/>
        <pt x="542" y="905" on="0"/>
        <pt x="563" y="843" on="0"/>
        <pt x="582" y="811" on="1"/>
        <pt x="638" y="844" on="0"/>
        <pt x="723" y="904" on="0"/>
        <pt x="782" y="964" on="0"/>
        <pt x="816" y="1028" on="0"/>
        <pt x="822" y="1065" on="1"/>
      </contour>
    </TTGlyph>
    <TTGlyph name="aogonek" xMin="62" yMin="-457" xMax="1128" yMax="1107">
      <contour>
        <pt x="1108" y="0" on="1"/>
        <pt x="1016" y="-67" on="0"/>
        <pt x="901" y="-209" on="0"/>
        <pt x="891" y="-274" on="1"/>
        <pt x="885" y="-315" on="0"/>
        <pt x="910" y="-347" on="0"/>
        <pt x="940" y="-347" on="1"/>
        <pt x="963" y="-347" on="0"/>
        <pt x="1021" y="-322" on="0"/>
        <pt x="1078" y="-289" on="0"/>
        <pt x="1110" y="-267" on="1"/>
        <pt x="1094" y="-370" on="1"/>
        <pt x="1062" y="-395" on="0"/>
        <pt x="989" y="-431" on="0"/>
        <pt x="898" y="-457" on="0"/>
        <pt x="843" y="-457" on="1"/>
        <pt x="803" y="-457" on="0"/>
        <pt x="742" y="-443" on="0"/>
        <pt x="704" y="-411" on="0"/>
        <pt x="689" y="-357" on="0"/>
        <pt x="694" y="-316" on="1"/>
        <pt x="705" y="-232" on="0"/>
        <pt x="837" y="-82" on="0"/>
        <pt x="939" y="-11" on="1"/>
        <pt x="778" y="-22" on="1"/>
        <pt x="697" y="56" on="1"/>
        <pt x="720" y="225" on="1"/>
        <pt x="713" y="215" on="0"/>
        <pt x="679" y="170" on="0"/>
        <pt x="628" y="115" on="0"/>
        <pt x="561" y="57" on="0"/>
        <pt x="482" y="9" on="0"/>
        <pt x="391" y="-22" on="0"/>
        <pt x="341" y="-22" on="1"/>
        <pt x="264" y="-22" on="0"/>
        <pt x="151" y="23" on="0"/>
        <pt x="84" y="119" on="0"/>
        <pt x="62" y="268" on="0"/>
        <pt x="77" y="373" on="1"/>
        <pt x="103" y="561" on="1"/>
        <pt x="118" y="673" on="0"/>
        <pt x="209" y="872" on="0"/>
        <pt x="358" y="1021" on="0"/>
        <pt x="561" y="1107" on="0"/>
        <pt x="689" y="1107" on="1"/>
        <pt x="769" y="1107" on="0"/>
        <pt x="923" y="1082" on="0"/>
        <pt x="1057" y="1050" on="0"/>
        <pt x="1122" y="1029" on="1"/>
        <pt x="996" y="125" on="1"/>
        <pt x="1128" y="105" on="1"/>
      </contour>
      <contour>
        <pt x="380" y="461" on="1"/>
        <pt x="365" y="355" on="0"/>
        <pt x="361" y="217" on="0"/>
        <pt x="379" y="137" on="0"/>
        <pt x="418" y="106" on="0"/>
        <pt x="448" y="106" on="1"/>
        <pt x="474" y="106" on="0"/>
        <pt x="535" y="144" on="0"/>
        <pt x="597" y="203" on="0"/>
        <pt x="657" y="273" on="0"/>
        <pt x="705" y="337" on="0"/>
        <pt x="738" y="385" on="0"/>
        <pt x="743" y="393" on="1"/>
        <pt x="825" y="982" on="1"/>
        <pt x="809" y="987" on="0"/>
        <pt x="724" y="1003" on="0"/>
        <pt x="668" y="1003" on="1"/>
        <pt x="637" y="1003" on="0"/>
        <pt x="581" y="993" on="0"/>
        <pt x="533" y="981" on="0"/>
        <pt x="511" y="973" on="1"/>
        <pt x="488" y="931" on="0"/>
        <pt x="449" y="826" on="0"/>
        <pt x="411" y="685" on="0"/>
        <pt x="398" y="592" on="1"/>
      </contour>
    </TTGlyph>
    <TTGlyph name="approxequal" xMin="160" yMin="235" xMax="1161" yMax="963">
      <contour>
        <pt x="160" y="734" on="1"/>
        <pt x="160" y="790" on="0"/>
        <pt x="200" y="876" on="0"/>
        <pt x="269" y="934" on="0"/>
        <pt x="364" y="963" on="0"/>
        <pt x="420" y="963" on="1"/>
        <pt x="457" y="963" on="0"/>
        <pt x="550" y="943" on="0"/>
        <pt x="647" y="914" on="0"/>
        <pt x="745" y="880" on="0"/>
        <pt x="832" y="851" on="0"/>
        <pt x="901" y="831" on="0"/>
        <pt x="921" y="831" on="1"/>
        <pt x="940" y="831" on="0"/>
        <pt x="977" y="846" on="0"/>
        <pt x="1006" y="876" on="0"/>
        <pt x="1024" y="921" on="0"/>
        <pt x="1024" y="951" on="1"/>
        <pt x="1161" y="961" on="1"/>
        <pt x="1161" y="864" on="1"/>
        <pt x="1161" y="811" on="0"/>
        <pt x="1125" y="726" on="0"/>
        <pt x="1059" y="667" on="0"/>
        <pt x="968" y="635" on="0"/>
        <pt x="913" y="635" on="1"/>
        <pt x="879" y="635" on="0"/>
        <pt x="787" y="655" on="0"/>
        <pt x="684" y="684" on="0"/>
        <pt x="580" y="718" on="0"/>
        <pt x="487" y="747" on="0"/>
        <pt x="415" y="767" on="0"/>
        <pt x="396" y="767" on="1"/>
        <pt x="376" y="767" on="0"/>
        <pt x="337" y="759" on="0"/>
        <pt x="307" y="737" on="0"/>
        <pt x="289" y="699" on="0"/>
        <pt x="289" y="669" on="1"/>
        <pt x="160" y="659" on="1"/>
      </contour>
      <contour>
        <pt x="160" y="334" on="1"/>
        <pt x="160" y="390" on="0"/>
        <pt x="200" y="476" on="0"/>
        <pt x="269" y="534" on="0"/>
        <pt x="364" y="563" on="0"/>
        <pt x="420" y="563" on="1"/>
        <pt x="457" y="563" on="0"/>
        <pt x="550" y="543" on="0"/>
        <pt x="647" y="514" on="0"/>
        <pt x="745" y="480" on="0"/>
        <pt x="832" y="451" on="0"/>
        <pt x="901" y="431" on="0"/>
        <pt x="921" y="431" on="1"/>
        <pt x="940" y="431" on="0"/>
        <pt x="977" y="446" on="0"/>
        <pt x="1006" y="476" on="0"/>
        <pt x="1024" y="521" on="0"/>
        <pt x="1024" y="551" on="1"/>
        <pt x="1161" y="561" on="1"/>
        <pt x="1161" y="464" on="1"/>
        <pt x="1161" y="411" on="0"/>
        <pt x="1125" y="326" on="0"/>
        <pt x="1059" y="267" on="0"/>
        <pt x="968" y="235" on="0"/>
        <pt x="913" y="235" on="1"/>
        <pt x="879" y="235" on="0"/>
        <pt x="787" y="255" on="0"/>
        <pt x="684" y="284" on="0"/>
        <pt x="580" y="318" on="0"/>
        <pt x="487" y="347" on="0"/>
        <pt x="415" y="367" on="0"/>
        <pt x="396" y="367" on="1"/>
        <pt x="376" y="367" on="0"/>
        <pt x="337" y="359" on="0"/>
        <pt x="307" y="337" on="0"/>
        <pt x="289" y="299" on="0"/>
        <pt x="289" y="269" on="1"/>
        <pt x="160" y="259" on="1"/>
      </contour>
    </TTGlyph>
    <TTGlyph name="aring" xMin="49" yMin="-22" xMax="1128" yMax="1675">
      <component glyphName="a" x="0" y="0" flags="0x204"/>
      <component glyphName="ring" x="325" y="0" flags="0x4"/>
    </TTGlyph>
    <TTGlyph name="aringacute" xMin="49" yMin="-22" xMax="1315" yMax="2166">
      <component glyphName="a" x="0" y="0" flags="0x204"/>
      <component glyphName="ring" x="370" y="0" flags="0x4"/>
      <component glyphName="acute" x="605" y="496" flags="0x4"/>
    </TTGlyph>
    <TTGlyph name="arrowdown" xMin="60" yMin="-413" xMax="642" yMax="1562">
      <contour>
        <pt x="642" y="1562" on="1"/>
        <pt x="412" y="-75" on="1"/>
        <pt x="523" y="52" on="1"/>
        <pt x="602" y="-28" on="1"/>
        <pt x="319" y="-413" on="1"/>
        <pt x="235" y="-413" on="1"/>
        <pt x="60" y="-28" on="1"/>
        <pt x="160" y="52" on="1"/>
        <pt x="236" y="-75" on="1"/>
        <pt x="466" y="1562" on="1"/>
      </contour>
    </TTGlyph>
    <TTGlyph name="arrowup" xMin="140" yMin="-413" xMax="723" yMax="1562">
      <contour>
        <pt x="140" y="-413" on="1"/>
        <pt x="370" y="1224" on="1"/>
        <pt x="259" y="1097" on="1"/>
        <pt x="180" y="1177" on="1"/>
        <pt x="463" y="1562" on="1"/>
        <pt x="547" y="1562" on="1"/>
        <pt x="723" y="1177" on="1"/>
        <pt x="622" y="1097" on="1"/>
        <pt x="546" y="1224" on="1"/>
        <pt x="316" y="-413" on="1"/>
      </contour>
    </TTGlyph>
    <TTGlyph name="asciicircum" xMin="120" yMin="1049" xMax="1004" yMax="1562">
      <contour>
        <pt x="501" y="1562" on="1"/>
        <pt x="623" y="1562" on="1"/>
        <pt x="1004" y="1079" on="1"/>
        <pt x="1004" y="1049" on="1"/>
        <pt x="805" y="1049" on="1"/>
        <pt x="570" y="1343" on="1"/>
        <pt x="554" y="1343" on="1"/>
        <pt x="320" y="1049" on="1"/>
        <pt x="120" y="1049" on="1"/>
        <pt x="120" y="1079" on="1"/>
      </contour>
    </TTGlyph>
    <TTGlyph name="asciitilde" xMin="150" yMin="475" xMax="1151" yMax="803">
      <contour>
        <pt x="150" y="574" on="1"/>
        <pt x="150" y="630" on="0"/>
        <pt x="190" y="716" on="0"/>
        <pt x="259" y="774" on="0"/>
        <pt x="354" y="803" on="0"/>
        <pt x="410" y="803" on="1"/>
        <pt x="447" y="803" on="0"/>
        <pt x="540" y="783" on="0"/>
        <pt x="637" y="754" on="0"/>
        <pt x="735" y="720" on="0"/>
        <pt x="822" y="691" on="0"/>
        <pt x="891" y="671" on="0"/>
        <pt x="911" y="671" on="1"/>
        <pt x="930" y="671" on="0"/>
        <pt x="967" y="686" on="0"/>
        <pt x="996" y="716" on="0"/>
        <pt x="1014" y="761" on="0"/>
        <pt x="1014" y="791" on="1"/>
        <pt x="1151" y="801" on="1"/>
        <pt x="1151" y="704" on="1"/>
        <pt x="1151" y="651" on="0"/>
        <pt x="1115" y="566" on="0"/>
        <pt x="1049" y="507" on="0"/>
        <pt x="958" y="475" on="0"/>
        <pt x="903" y="475" on="1"/>
        <pt x="869" y="475" on="0"/>
        <pt x="777" y="495" on="0"/>
        <pt x="674" y="524" on="0"/>
        <pt x="570" y="558" on="0"/>
        <pt x="477" y="587" on="0"/>
        <pt x="405" y="607" on="0"/>
        <pt x="386" y="607" on="1"/>
        <pt x="366" y="607" on="0"/>
        <pt x="327" y="599" on="0"/>
        <pt x="297" y="577" on="0"/>
        <pt x="279" y="539" on="0"/>
        <pt x="279" y="509" on="1"/>
        <pt x="150" y="499" on="1"/>
      </contour>
    </TTGlyph>
    <TTGlyph name="asterisk" xMin="40" yMin="772" xMax="885" yMax="1592">
      <contour>
        <pt x="508" y="1078" on="1"/>
        <pt x="519" y="829" on="1"/>
        <pt x="511" y="772" on="1"/>
        <pt x="298" y="772" on="1"/>
        <pt x="306" y="829" on="1"/>
        <pt x="387" y="1077" on="1"/>
        <pt x="170" y="913" on="1"/>
        <pt x="118" y="885" on="1"/>
        <pt x="40" y="1068" on="1"/>
        <pt x="85" y="1094" on="1"/>
        <pt x="340" y="1181" on="1"/>
        <pt x="113" y="1267" on="1"/>
        <pt x="72" y="1296" on="1"/>
        <pt x="201" y="1479" on="1"/>
        <pt x="245" y="1451" on="1"/>
        <pt x="416" y="1286" on="1"/>
        <pt x="405" y="1535" on="1"/>
        <pt x="413" y="1592" on="1"/>
        <pt x="626" y="1592" on="1"/>
        <pt x="618" y="1535" on="1"/>
        <pt x="537" y="1287" on="1"/>
        <pt x="754" y="1451" on="1"/>
        <pt x="806" y="1479" on="1"/>
        <pt x="885" y="1296" on="1"/>
        <pt x="833" y="1267" on="1"/>
        <pt x="584" y="1182" on="1"/>
        <pt x="811" y="1097" on="1"/>
        <pt x="853" y="1068" on="1"/>
        <pt x="723" y="885" on="1"/>
        <pt x="679" y="913" on="1"/>
      </contour>
    </TTGlyph>
    <TTGlyph name="at" xMin="78" yMin="-310" xMax="1858" yMax="1375">
      <contour>
        <pt x="797" y="490" on="1"/>
        <pt x="786" y="403" on="0"/>
        <pt x="782" y="295" on="0"/>
        <pt x="795" y="236" on="0"/>
        <pt x="823" y="216" on="0"/>
        <pt x="843" y="216" on="1"/>
        <pt x="871" y="216" on="0"/>
        <pt x="938" y="273" on="0"/>
        <pt x="1006" y="359" on="0"/>
        <pt x="1069" y="459" on="0"/>
        <pt x="1093" y="503" on="1"/>
        <pt x="1153" y="946" on="1"/>
        <pt x="1137" y="949" on="0"/>
        <pt x="1103" y="954" on="0"/>
        <pt x="1064" y="959" on="0"/>
        <pt x="1041" y="959" on="1"/>
        <pt x="1013" y="959" on="0"/>
        <pt x="969" y="953" on="0"/>
        <pt x="933" y="945" on="0"/>
        <pt x="918" y="939" on="1"/>
        <pt x="895" y="898" on="0"/>
        <pt x="856" y="794" on="0"/>
        <pt x="818" y="652" on="0"/>
        <pt x="806" y="559" on="1"/>
      </contour>
      <contour>
        <pt x="1434" y="-165" on="1"/>
        <pt x="1363" y="-206" on="0"/>
        <pt x="1273" y="-238" on="1"/>
        <pt x="1196" y="-265" on="0"/>
        <pt x="986" y="-310" on="0"/>
        <pt x="858" y="-310" on="1"/>
        <pt x="696" y="-310" on="0"/>
        <pt x="412" y="-246" on="0"/>
        <pt x="200" y="-97" on="0"/>
        <pt x="78" y="145" on="0"/>
        <pt x="78" y="322" on="1"/>
        <pt x="78" y="473" on="0"/>
        <pt x="149" y="746" on="0"/>
        <pt x="280" y="980" on="0"/>
        <pt x="467" y="1170" on="0"/>
        <pt x="701" y="1303" on="0"/>
        <pt x="976" y="1375" on="0"/>
        <pt x="1129" y="1375" on="1"/>
        <pt x="1295" y="1375" on="0"/>
        <pt x="1564" y="1299" on="0"/>
        <pt x="1755" y="1153" on="0"/>
        <pt x="1858" y="937" on="0"/>
        <pt x="1858" y="798" on="1"/>
        <pt x="1858" y="679" on="0"/>
        <pt x="1808" y="485" on="0"/>
        <pt x="1725" y="333" on="0"/>
        <pt x="1616" y="221" on="0"/>
        <pt x="1497" y="146" on="0"/>
        <pt x="1375" y="106" on="0"/>
        <pt x="1322" y="102" on="1"/>
        <pt x="1126" y="88" on="1"/>
        <pt x="1045" y="166" on="1"/>
        <pt x="1068" y="336" on="1"/>
        <pt x="1040" y="290" on="0"/>
        <pt x="980" y="201" on="0"/>
        <pt x="901" y="131" on="0"/>
        <pt x="795" y="88" on="0"/>
        <pt x="722" y="88" on="1"/>
        <pt x="661" y="88" on="0"/>
        <pt x="567" y="126" on="0"/>
        <pt x="508" y="209" on="0"/>
        <pt x="487" y="341" on="0"/>
        <pt x="499" y="435" on="1"/>
        <pt x="511" y="528" on="1"/>
        <pt x="526" y="640" on="0"/>
        <pt x="610" y="836" on="0"/>
        <pt x="747" y="980" on="0"/>
        <pt x="933" y="1063" on="0"/>
        <pt x="1050" y="1063" on="1"/>
        <pt x="1122" y="1063" on="0"/>
        <pt x="1264" y="1038" on="0"/>
        <pt x="1388" y="1006" on="0"/>
        <pt x="1449" y="985" on="1"/>
        <pt x="1341" y="209" on="1"/>
        <pt x="1380" y="213" on="0"/>
        <pt x="1461" y="267" on="0"/>
        <pt x="1526" y="390" on="0"/>
        <pt x="1568" y="595" on="0"/>
        <pt x="1568" y="750" on="1"/>
        <pt x="1568" y="876" on="0"/>
        <pt x="1502" y="1059" on="0"/>
        <pt x="1376" y="1178" on="0"/>
        <pt x="1195" y="1235" on="0"/>
        <pt x="1081" y="1235" on="1"/>
        <pt x="972" y="1235" on="0"/>
        <pt x="782" y="1173" on="0"/>
        <pt x="624" y="1060" on="0"/>
        <pt x="499" y="901" on="0"/>
        <pt x="413" y="706" on="0"/>
        <pt x="368" y="481" on="0"/>
        <pt x="368" y="359" on="1"/>
        <pt x="368" y="210" on="0"/>
        <pt x="459" y="8" on="0"/>
        <pt x="617" y="-116" on="0"/>
        <pt x="827" y="-170" on="0"/>
        <pt x="947" y="-170" on="1"/>
        <pt x="1048" y="-170" on="0"/>
        <pt x="1225" y="-136" on="0"/>
        <pt x="1291" y="-115" on="1"/>
        <pt x="1368" y="-90" on="0"/>
        <pt x="1434" y="-59" on="1"/>
      </contour>
    </TTGlyph>
    <TTGlyph name="atilde" xMin="49" yMin="-22" xMax="1191" yMax="1561">
      <component glyphName="a" x="0" y="0" flags="0x204"/>
      <component glyphName="tilde" x="158" y="0" flags="0x4"/>
    </TTGlyph>
    <TTGlyph name="b" xMin="96" yMin="-22" xMax="1169" yMax="1562">
      <contour>
        <pt x="174" y="1540" on="1"/>
        <pt x="504" y="1562" on="1"/>
        <pt x="585" y="1484" on="1"/>
        <pt x="499" y="864" on="1"/>
        <pt x="585" y="983" on="0"/>
        <pt x="788" y="1107" on="0"/>
        <pt x="889" y="1107" on="1"/>
        <pt x="1043" y="1107" on="0"/>
        <pt x="1169" y="915" on="0"/>
        <pt x="1141" y="712" on="1"/>
        <pt x="1115" y="524" on="1"/>
        <pt x="1077" y="269" on="0"/>
        <pt x="763" y="-22" on="0"/>
        <pt x="536" y="-22" on="1"/>
        <pt x="432" y="-22" on="0"/>
        <pt x="192" y="23" on="0"/>
        <pt x="96" y="56" on="1"/>
        <pt x="285" y="1415" on="1"/>
        <pt x="153" y="1435" on="1"/>
      </contour>
      <contour>
        <pt x="839" y="624" on="1"/>
        <pt x="864" y="802" on="0"/>
        <pt x="839" y="979" on="0"/>
        <pt x="772" y="979" on="1"/>
        <pt x="713" y="979" on="0"/>
        <pt x="556" y="824" on="0"/>
        <pt x="475" y="693" on="1"/>
        <pt x="392" y="101" on="1"/>
        <pt x="430" y="92" on="0"/>
        <pt x="513" y="82" on="0"/>
        <pt x="550" y="82" on="1"/>
        <pt x="590" y="82" on="0"/>
        <pt x="682" y="99" on="0"/>
        <pt x="716" y="112" on="1"/>
        <pt x="749" y="183" on="0"/>
        <pt x="805" y="377" on="0"/>
        <pt x="821" y="493" on="1"/>
      </contour>
    </TTGlyph>
    <TTGlyph name="backslash" xMin="130" yMin="-295" xMax="660" yMax="1540">
      <contour>
        <pt x="660" y="-275" on="1"/>
        <pt x="658" y="-295" on="1"/>
        <pt x="443" y="-295" on="1"/>
        <pt x="130" y="1520" on="1"/>
        <pt x="132" y="1540" on="1"/>
        <pt x="347" y="1540" on="1"/>
      </contour>
    </TTGlyph>
    <TTGlyph name="bar" xMin="290" yMin="-537" xMax="458" yMax="1670">
      <contour>
        <pt x="290" y="1670" on="1"/>
        <pt x="458" y="1670" on="1"/>
        <pt x="458" y="-537" on="1"/>
        <pt x="290" y="-537" on="1"/>
      </contour>
    </TTGlyph>
    <TTGlyph name="braceleft" xMin="84" yMin="-457" xMax="915" yMax="1677">
      <contour>
        <pt x="99" y="663" on="1"/>
        <pt x="195" y="663" on="1"/>
        <pt x="256" y="663" on="0"/>
        <pt x="312" y="712" on="0"/>
        <pt x="320" y="773" on="1"/>
        <pt x="408" y="1397" on="1"/>
        <pt x="417" y="1457" on="0"/>
        <pt x="473" y="1560" on="0"/>
        <pt x="558" y="1635" on="0"/>
        <pt x="667" y="1677" on="0"/>
        <pt x="727" y="1677" on="1"/>
        <pt x="915" y="1677" on="1"/>
        <pt x="901" y="1571" on="1"/>
        <pt x="880" y="1571" on="1"/>
        <pt x="789" y="1571" on="0"/>
        <pt x="699" y="1492" on="0"/>
        <pt x="686" y="1401" on="1"/>
        <pt x="605" y="828" on="1"/>
        <pt x="596" y="766" on="0"/>
        <pt x="559" y="684" on="0"/>
        <pt x="510" y="635" on="0"/>
        <pt x="453" y="615" on="0"/>
        <pt x="425" y="615" on="1"/>
        <pt x="424" y="605" on="1"/>
        <pt x="452" y="605" on="0"/>
        <pt x="503" y="585" on="0"/>
        <pt x="538" y="536" on="0"/>
        <pt x="553" y="454" on="0"/>
        <pt x="544" y="392" on="1"/>
        <pt x="463" y="-181" on="1"/>
        <pt x="450" y="-272" on="0"/>
        <pt x="518" y="-351" on="0"/>
        <pt x="609" y="-351" on="1"/>
        <pt x="630" y="-351" on="1"/>
        <pt x="616" y="-457" on="1"/>
        <pt x="428" y="-457" on="1"/>
        <pt x="368" y="-457" on="0"/>
        <pt x="271" y="-415" on="0"/>
        <pt x="206" y="-340" on="0"/>
        <pt x="178" y="-237" on="0"/>
        <pt x="187" y="-177" on="1"/>
        <pt x="275" y="447" on="1"/>
        <pt x="283" y="508" on="0"/>
        <pt x="241" y="557" on="0"/>
        <pt x="180" y="557" on="1"/>
        <pt x="84" y="557" on="1"/>
      </contour>
    </TTGlyph>
    <TTGlyph name="braceright" xMin="-80" yMin="-457" xMax="750" yMax="1677">
      <contour>
        <pt x="735" y="557" on="1"/>
        <pt x="639" y="557" on="1"/>
        <pt x="578" y="557" on="0"/>
        <pt x="522" y="508" on="0"/>
        <pt x="514" y="447" on="1"/>
        <pt x="426" y="-177" on="1"/>
        <pt x="417" y="-237" on="0"/>
        <pt x="361" y="-340" on="0"/>
        <pt x="276" y="-415" on="0"/>
        <pt x="167" y="-457" on="0"/>
        <pt x="107" y="-457" on="1"/>
        <pt x="-80" y="-457" on="1"/>
        <pt x="-66" y="-351" on="1"/>
        <pt x="-45" y="-351" on="1"/>
        <pt x="45" y="-351" on="0"/>
        <pt x="135" y="-272" on="0"/>
        <pt x="148" y="-181" on="1"/>
        <pt x="229" y="392" on="1"/>
        <pt x="238" y="454" on="0"/>
        <pt x="279" y="536" on="0"/>
        <pt x="331" y="585" on="0"/>
        <pt x="386" y="605" on="0"/>
        <pt x="409" y="605" on="1"/>
        <pt x="410" y="615" on="1"/>
        <pt x="387" y="615" on="0"/>
        <pt x="338" y="635" on="0"/>
        <pt x="300" y="684" on="0"/>
        <pt x="281" y="766" on="0"/>
        <pt x="290" y="828" on="1"/>
        <pt x="371" y="1401" on="1"/>
        <pt x="384" y="1492" on="0"/>
        <pt x="316" y="1571" on="0"/>
        <pt x="225" y="1571" on="1"/>
        <pt x="204" y="1571" on="1"/>
        <pt x="218" y="1677" on="1"/>
        <pt x="406" y="1677" on="1"/>
        <pt x="466" y="1677" on="0"/>
        <pt x="563" y="1635" on="0"/>
        <pt x="628" y="1560" on="0"/>
        <pt x="656" y="1457" on="0"/>
        <pt x="647" y="1397" on="1"/>
        <pt x="559" y="773" on="1"/>
        <pt x="551" y="712" on="0"/>
        <pt x="593" y="663" on="0"/>
        <pt x="654" y="663" on="1"/>
        <pt x="750" y="663" on="1"/>
      </contour>
    </TTGlyph>
    <TTGlyph name="bracketleft" xMin="0" yMin="-457" xMax="766" yMax="1677">
      <contour>
        <pt x="298" y="1677" on="1"/>
        <pt x="766" y="1677" on="1"/>
        <pt x="752" y="1571" on="1"/>
        <pt x="560" y="1571" on="1"/>
        <pt x="291" y="-351" on="1"/>
        <pt x="481" y="-351" on="1"/>
        <pt x="467" y="-457" on="1"/>
        <pt x="0" y="-457" on="1"/>
      </contour>
    </TTGlyph>
    <TTGlyph name="bracketright" xMin="-90" yMin="-457" xMax="676" yMax="1677">
      <contour>
        <pt x="377" y="-457" on="1"/>
        <pt x="-90" y="-457" on="1"/>
        <pt x="-76" y="-351" on="1"/>
        <pt x="115" y="-351" on="1"/>
        <pt x="384" y="1571" on="1"/>
        <pt x="194" y="1571" on="1"/>
        <pt x="208" y="1677" on="1"/>
        <pt x="676" y="1677" on="1"/>
      </contour>
    </TTGlyph>
    <TTGlyph name="breve" xMin="150" yMin="1265" xMax="810" yMax="1602">
      <contour>
        <pt x="810" y="1592" on="1"/>
        <pt x="802" y="1533" on="0"/>
        <pt x="743" y="1416" on="0"/>
        <pt x="647" y="1323" on="0"/>
        <pt x="517" y="1265" on="0"/>
        <pt x="438" y="1265" on="1"/>
        <pt x="359" y="1265" on="0"/>
        <pt x="245" y="1323" on="0"/>
        <pt x="176" y="1416" on="0"/>
        <pt x="150" y="1533" on="0"/>
        <pt x="158" y="1592" on="1"/>
        <pt x="266" y="1602" on="1"/>
        <pt x="263" y="1584" on="0"/>
        <pt x="278" y="1530" on="0"/>
        <pt x="323" y="1480" on="0"/>
        <pt x="402" y="1445" on="0"/>
        <pt x="463" y="1445" on="1"/>
        <pt x="524" y="1445" on="0"/>
        <pt x="612" y="1480" on="0"/>
        <pt x="671" y="1530" on="0"/>
        <pt x="701" y="1584" on="0"/>
        <pt x="704" y="1602" on="1"/>
      </contour>
    </TTGlyph>
    <TTGlyph name="breve.case" xMin="-67" yMin="1457" xMax="650" yMax="1759">
      <contour>
        <pt x="650" y="1749" on="1"/>
        <pt x="644" y="1702" on="0"/>
        <pt x="586" y="1599" on="0"/>
        <pt x="486" y="1513" on="0"/>
        <pt x="344" y="1457" on="0"/>
        <pt x="253" y="1457" on="1"/>
        <pt x="162" y="1457" on="0"/>
        <pt x="37" y="1513" on="0"/>
        <pt x="-39" y="1599" on="0"/>
        <pt x="-67" y="1702" on="0"/>
        <pt x="-61" y="1749" on="1"/>
        <pt x="47" y="1759" on="1"/>
        <pt x="45" y="1747" on="0"/>
        <pt x="58" y="1702" on="0"/>
        <pt x="106" y="1659" on="0"/>
        <pt x="199" y="1627" on="0"/>
        <pt x="277" y="1627" on="1"/>
        <pt x="355" y="1627" on="0"/>
        <pt x="456" y="1659" on="0"/>
        <pt x="517" y="1702" on="0"/>
        <pt x="543" y="1747" on="0"/>
        <pt x="545" y="1759" on="1"/>
      </contour>
    </TTGlyph>
    <TTGlyph name="breveacute" xMin="114" yMin="1265" xMax="881" yMax="1995">
      <contour>
        <pt x="774" y="1592" on="1"/>
        <pt x="766" y="1533" on="0"/>
        <pt x="707" y="1416" on="0"/>
        <pt x="611" y="1323" on="0"/>
        <pt x="481" y="1265" on="0"/>
        <pt x="402" y="1265" on="1"/>
        <pt x="323" y="1265" on="0"/>
        <pt x="209" y="1323" on="0"/>
        <pt x="140" y="1416" on="0"/>
        <pt x="114" y="1533" on="0"/>
        <pt x="122" y="1592" on="1"/>
        <pt x="230" y="1602" on="1"/>
        <pt x="227" y="1584" on="0"/>
        <pt x="242" y="1530" on="0"/>
        <pt x="287" y="1480" on="0"/>
        <pt x="366" y="1445" on="0"/>
        <pt x="427" y="1445" on="1"/>
        <pt x="488" y="1445" on="0"/>
        <pt x="576" y="1480" on="0"/>
        <pt x="635" y="1530" on="0"/>
        <pt x="665" y="1584" on="0"/>
        <pt x="668" y="1602" on="1"/>
      </contour>
      <contour>
        <pt x="376" y="1632" on="1"/>
        <pt x="610" y="1995" on="1"/>
        <pt x="881" y="1985" on="1"/>
        <pt x="871" y="1919" on="1"/>
        <pt x="505" y="1590" on="1"/>
        <pt x="371" y="1600" on="1"/>
      </contour>
    </TTGlyph>
    <TTGlyph name="breveacute.case" xMin="-67" yMin="1457" xMax="736" yMax="2063">
      <contour>
        <pt x="650" y="1749" on="1"/>
        <pt x="644" y="1702" on="0"/>
        <pt x="586" y="1599" on="0"/>
        <pt x="486" y="1513" on="0"/>
        <pt x="344" y="1457" on="0"/>
        <pt x="253" y="1457" on="1"/>
        <pt x="162" y="1457" on="0"/>
        <pt x="37" y="1513" on="0"/>
        <pt x="-39" y="1599" on="0"/>
        <pt x="-67" y="1702" on="0"/>
        <pt x="-61" y="1749" on="1"/>
        <pt x="47" y="1759" on="1"/>
        <pt x="45" y="1747" on="0"/>
        <pt x="58" y="1702" on="0"/>
        <pt x="106" y="1659" on="0"/>
        <pt x="199" y="1627" on="0"/>
        <pt x="277" y="1627" on="1"/>
        <pt x="355" y="1627" on="0"/>
        <pt x="456" y="1659" on="0"/>
        <pt x="517" y="1702" on="0"/>
        <pt x="543" y="1747" on="0"/>
        <pt x="545" y="1759" on="1"/>
      </contour>
      <contour>
        <pt x="176" y="1782" on="1"/>
        <pt x="454" y="2063" on="1"/>
        <pt x="736" y="2053" on="1"/>
        <pt x="736" y="1987" on="1"/>
        <pt x="321" y="1739" on="1"/>
        <pt x="176" y="1750" on="1"/>
      </contour>
    </TTGlyph>
    <TTGlyph name="brevegrave" xMin="114" yMin="1265" xMax="774" yMax="1995">
      <contour>
        <pt x="774" y="1592" on="1"/>
        <pt x="766" y="1533" on="0"/>
        <pt x="707" y="1416" on="0"/>
        <pt x="611" y="1323" on="0"/>
        <pt x="481" y="1265" on="0"/>
        <pt x="402" y="1265" on="1"/>
        <pt x="323" y="1265" on="0"/>
        <pt x="209" y="1323" on="0"/>
        <pt x="140" y="1416" on="0"/>
        <pt x="114" y="1533" on="0"/>
        <pt x="122" y="1592" on="1"/>
        <pt x="230" y="1602" on="1"/>
        <pt x="227" y="1584" on="0"/>
        <pt x="242" y="1530" on="0"/>
        <pt x="287" y="1480" on="0"/>
        <pt x="366" y="1445" on="0"/>
        <pt x="427" y="1445" on="1"/>
        <pt x="488" y="1445" on="0"/>
        <pt x="576" y="1480" on="0"/>
        <pt x="635" y="1530" on="0"/>
        <pt x="665" y="1584" on="0"/>
        <pt x="668" y="1602" on="1"/>
      </contour>
      <contour>
        <pt x="558" y="1600" on="1"/>
        <pt x="409" y="1590" on="1"/>
        <pt x="135" y="1919" on="1"/>
        <pt x="145" y="1985" on="1"/>
        <pt x="431" y="1995" on="1"/>
        <pt x="563" y="1632" on="1"/>
      </contour>
    </TTGlyph>
    <TTGlyph name="brevegrave.case" xMin="-87" yMin="1457" xMax="650" yMax="2063">
      <contour>
        <pt x="650" y="1749" on="1"/>
        <pt x="644" y="1702" on="0"/>
        <pt x="586" y="1599" on="0"/>
        <pt x="486" y="1513" on="0"/>
        <pt x="344" y="1457" on="0"/>
        <pt x="253" y="1457" on="1"/>
        <pt x="162" y="1457" on="0"/>
        <pt x="37" y="1513" on="0"/>
        <pt x="-39" y="1599" on="0"/>
        <pt x="-67" y="1702" on="0"/>
        <pt x="-61" y="1749" on="1"/>
        <pt x="47" y="1759" on="1"/>
        <pt x="45" y="1747" on="0"/>
        <pt x="58" y="1702" on="0"/>
        <pt x="106" y="1659" on="0"/>
        <pt x="199" y="1627" on="0"/>
        <pt x="277" y="1627" on="1"/>
        <pt x="355" y="1627" on="0"/>
        <pt x="456" y="1659" on="0"/>
        <pt x="517" y="1702" on="0"/>
        <pt x="543" y="1747" on="0"/>
        <pt x="545" y="1759" on="1"/>
      </contour>
      <contour>
        <pt x="419" y="1750" on="1"/>
        <pt x="273" y="1739" on="1"/>
        <pt x="-87" y="1987" on="1"/>
        <pt x="-78" y="2053" on="1"/>
        <pt x="205" y="2063" on="1"/>
        <pt x="424" y="1782" on="1"/>
      </contour>
    </TTGlyph>
    <TTGlyph name="brevehookabove" xMin="114" yMin="1265" xMax="774" yMax="1995">
      <contour>
        <pt x="774" y="1592" on="1"/>
        <pt x="766" y="1533" on="0"/>
        <pt x="707" y="1416" on="0"/>
        <pt x="611" y="1323" on="0"/>
        <pt x="481" y="1265" on="0"/>
        <pt x="402" y="1265" on="1"/>
        <pt x="323" y="1265" on="0"/>
        <pt x="209" y="1323" on="0"/>
        <pt x="140" y="1416" on="0"/>
        <pt x="114" y="1533" on="0"/>
        <pt x="122" y="1592" on="1"/>
        <pt x="230" y="1602" on="1"/>
        <pt x="227" y="1584" on="0"/>
        <pt x="242" y="1530" on="0"/>
        <pt x="287" y="1480" on="0"/>
        <pt x="366" y="1445" on="0"/>
        <pt x="427" y="1445" on="1"/>
        <pt x="488" y="1445" on="0"/>
        <pt x="576" y="1480" on="0"/>
        <pt x="635" y="1530" on="0"/>
        <pt x="665" y="1584" on="0"/>
        <pt x="668" y="1602" on="1"/>
      </contour>
      <contour>
        <pt x="589" y="1697" on="1"/>
        <pt x="564" y="1684" on="0"/>
        <pt x="531" y="1665" on="0"/>
        <pt x="510" y="1649" on="0"/>
        <pt x="500" y="1636" on="0"/>
        <pt x="499" y="1629" on="1"/>
        <pt x="497" y="1618" on="0"/>
        <pt x="502" y="1601" on="0"/>
        <pt x="504" y="1596" on="1"/>
        <pt x="409" y="1569" on="1"/>
        <pt x="400" y="1583" on="0"/>
        <pt x="390" y="1613" on="0"/>
        <pt x="384" y="1646" on="0"/>
        <pt x="387" y="1663" on="1"/>
        <pt x="388" y="1676" on="0"/>
        <pt x="397" y="1704" on="0"/>
        <pt x="416" y="1732" on="0"/>
        <pt x="448" y="1763" on="0"/>
        <pt x="473" y="1779" on="1"/>
        <pt x="517" y="1807" on="0"/>
        <pt x="550" y="1841" on="0"/>
        <pt x="552" y="1861" on="1"/>
        <pt x="554" y="1881" on="0"/>
        <pt x="535" y="1911" on="0"/>
        <pt x="507" y="1911" on="1"/>
        <pt x="494" y="1911" on="0"/>
        <pt x="472" y="1906" on="0"/>
        <pt x="452" y="1899" on="0"/>
        <pt x="444" y="1896" on="1"/>
        <pt x="408" y="1802" on="1"/>
        <pt x="301" y="1807" on="1"/>
        <pt x="320" y="1940" on="1"/>
        <pt x="351" y="1955" on="0"/>
        <pt x="421" y="1978" on="0"/>
        <pt x="507" y="1995" on="0"/>
        <pt x="557" y="1995" on="1"/>
        <pt x="644" y="1995" on="0"/>
        <pt x="735" y="1924" on="0"/>
        <pt x="726" y="1854" on="1"/>
        <pt x="719" y="1802" on="0"/>
        <pt x="645" y="1726" on="0"/>
      </contour>
    </TTGlyph>
    <TTGlyph name="brevehookabove.case" xMin="-67" yMin="1457" xMax="650" yMax="2142">
      <contour>
        <pt x="650" y="1749" on="1"/>
        <pt x="644" y="1702" on="0"/>
        <pt x="586" y="1599" on="0"/>
        <pt x="486" y="1513" on="0"/>
        <pt x="344" y="1457" on="0"/>
        <pt x="253" y="1457" on="1"/>
        <pt x="162" y="1457" on="0"/>
        <pt x="37" y="1513" on="0"/>
        <pt x="-39" y="1599" on="0"/>
        <pt x="-67" y="1702" on="0"/>
        <pt x="-61" y="1749" on="1"/>
        <pt x="47" y="1759" on="1"/>
        <pt x="45" y="1747" on="0"/>
        <pt x="58" y="1702" on="0"/>
        <pt x="106" y="1659" on="0"/>
        <pt x="199" y="1627" on="0"/>
        <pt x="277" y="1627" on="1"/>
        <pt x="355" y="1627" on="0"/>
        <pt x="456" y="1659" on="0"/>
        <pt x="517" y="1702" on="0"/>
        <pt x="543" y="1747" on="0"/>
        <pt x="545" y="1759" on="1"/>
      </contour>
      <contour>
        <pt x="443" y="1844" on="1"/>
        <pt x="418" y="1831" on="0"/>
        <pt x="385" y="1812" on="0"/>
        <pt x="364" y="1796" on="0"/>
        <pt x="354" y="1783" on="0"/>
        <pt x="353" y="1776" on="1"/>
        <pt x="351" y="1765" on="0"/>
        <pt x="356" y="1748" on="0"/>
        <pt x="358" y="1743" on="1"/>
        <pt x="263" y="1716" on="1"/>
        <pt x="254" y="1730" on="0"/>
        <pt x="244" y="1760" on="0"/>
        <pt x="238" y="1793" on="0"/>
        <pt x="241" y="1810" on="1"/>
        <pt x="242" y="1823" on="0"/>
        <pt x="251" y="1851" on="0"/>
        <pt x="270" y="1879" on="0"/>
        <pt x="302" y="1910" on="0"/>
        <pt x="327" y="1926" on="1"/>
        <pt x="371" y="1954" on="0"/>
        <pt x="404" y="1988" on="0"/>
        <pt x="406" y="2008" on="1"/>
        <pt x="408" y="2028" on="0"/>
        <pt x="389" y="2058" on="0"/>
        <pt x="361" y="2058" on="1"/>
        <pt x="348" y="2058" on="0"/>
        <pt x="326" y="2053" on="0"/>
        <pt x="306" y="2046" on="0"/>
        <pt x="298" y="2043" on="1"/>
        <pt x="262" y="1949" on="1"/>
        <pt x="155" y="1954" on="1"/>
        <pt x="174" y="2087" on="1"/>
        <pt x="205" y="2102" on="0"/>
        <pt x="275" y="2125" on="0"/>
        <pt x="361" y="2142" on="0"/>
        <pt x="411" y="2142" on="1"/>
        <pt x="498" y="2142" on="0"/>
        <pt x="589" y="2071" on="0"/>
        <pt x="580" y="2001" on="1"/>
        <pt x="573" y="1949" on="0"/>
        <pt x="499" y="1873" on="0"/>
      </contour>
    </TTGlyph>
    <TTGlyph name="brevetilde" xMin="32" yMin="1265" xMax="915" yMax="1983">
      <contour>
        <pt x="774" y="1592" on="1"/>
        <pt x="766" y="1533" on="0"/>
        <pt x="707" y="1416" on="0"/>
        <pt x="611" y="1323" on="0"/>
        <pt x="481" y="1265" on="0"/>
        <pt x="402" y="1265" on="1"/>
        <pt x="323" y="1265" on="0"/>
        <pt x="209" y="1323" on="0"/>
        <pt x="140" y="1416" on="0"/>
        <pt x="114" y="1533" on="0"/>
        <pt x="122" y="1592" on="1"/>
        <pt x="230" y="1602" on="1"/>
        <pt x="227" y="1584" on="0"/>
        <pt x="242" y="1530" on="0"/>
        <pt x="287" y="1480" on="0"/>
        <pt x="366" y="1445" on="0"/>
        <pt x="427" y="1445" on="1"/>
        <pt x="488" y="1445" on="0"/>
        <pt x="576" y="1480" on="0"/>
        <pt x="635" y="1530" on="0"/>
        <pt x="665" y="1584" on="0"/>
        <pt x="668" y="1602" on="1"/>
      </contour>
      <contour>
        <pt x="39" y="1729" on="1"/>
        <pt x="57" y="1856" on="0"/>
        <pt x="198" y="1983" on="0"/>
        <pt x="305" y="1983" on="1"/>
        <pt x="363" y="1983" on="0"/>
        <pt x="477" y="1942" on="0"/>
        <pt x="579" y="1892" on="0"/>
        <pt x="666" y="1851" on="0"/>
        <pt x="697" y="1851" on="1"/>
        <pt x="735" y="1851" on="0"/>
        <pt x="787" y="1910" on="0"/>
        <pt x="797" y="1971" on="1"/>
        <pt x="915" y="1981" on="1"/>
        <pt x="905" y="1909" on="1"/>
        <pt x="888" y="1790" on="0"/>
        <pt x="757" y="1655" on="0"/>
        <pt x="651" y="1655" on="1"/>
        <pt x="599" y="1655" on="0"/>
        <pt x="481" y="1696" on="0"/>
        <pt x="369" y="1746" on="0"/>
        <pt x="273" y="1787" on="0"/>
        <pt x="243" y="1787" on="1"/>
        <pt x="203" y="1787" on="0"/>
        <pt x="151" y="1749" on="0"/>
        <pt x="142" y="1689" on="1"/>
        <pt x="32" y="1679" on="1"/>
      </contour>
    </TTGlyph>
    <TTGlyph name="brevetilde.case" xMin="-161" yMin="1457" xMax="821" yMax="2140">
      <contour>
        <pt x="650" y="1749" on="1"/>
        <pt x="644" y="1702" on="0"/>
        <pt x="586" y="1599" on="0"/>
        <pt x="486" y="1513" on="0"/>
        <pt x="344" y="1457" on="0"/>
        <pt x="253" y="1457" on="1"/>
        <pt x="162" y="1457" on="0"/>
        <pt x="37" y="1513" on="0"/>
        <pt x="-39" y="1599" on="0"/>
        <pt x="-67" y="1702" on="0"/>
        <pt x="-61" y="1749" on="1"/>
        <pt x="47" y="1759" on="1"/>
        <pt x="45" y="1747" on="0"/>
        <pt x="58" y="1702" on="0"/>
        <pt x="106" y="1659" on="0"/>
        <pt x="199" y="1627" on="0"/>
        <pt x="277" y="1627" on="1"/>
        <pt x="355" y="1627" on="0"/>
        <pt x="456" y="1659" on="0"/>
        <pt x="517" y="1702" on="0"/>
        <pt x="543" y="1747" on="0"/>
        <pt x="545" y="1759" on="1"/>
      </contour>
      <contour>
        <pt x="-154" y="1886" on="1"/>
        <pt x="-136" y="2013" on="0"/>
        <pt x="16" y="2140" on="0"/>
        <pt x="131" y="2140" on="1"/>
        <pt x="198" y="2140" on="0"/>
        <pt x="330" y="2099" on="0"/>
        <pt x="448" y="2049" on="0"/>
        <pt x="547" y="2008" on="0"/>
        <pt x="583" y="2008" on="1"/>
        <pt x="630" y="2008" on="0"/>
        <pt x="693" y="2067" on="0"/>
        <pt x="703" y="2128" on="1"/>
        <pt x="821" y="2138" on="1"/>
        <pt x="811" y="2066" on="1"/>
        <pt x="794" y="1947" on="0"/>
        <pt x="652" y="1812" on="0"/>
        <pt x="537" y="1812" on="1"/>
        <pt x="498" y="1812" on="0"/>
        <pt x="411" y="1832" on="0"/>
        <pt x="322" y="1861" on="0"/>
        <pt x="235" y="1895" on="0"/>
        <pt x="157" y="1924" on="0"/>
        <pt x="92" y="1944" on="0"/>
        <pt x="69" y="1944" on="1"/>
        <pt x="45" y="1944" on="0"/>
        <pt x="5" y="1936" on="0"/>
        <pt x="-26" y="1914" on="0"/>
        <pt x="-47" y="1876" on="0"/>
        <pt x="-51" y="1846" on="1"/>
        <pt x="-161" y="1836" on="1"/>
      </contour>
    </TTGlyph>
    <TTGlyph name="brokenbar" xMin="290" yMin="-537" xMax="458" yMax="1670">
      <contour>
        <pt x="290" y="320" on="1"/>
        <pt x="458" y="320" on="1"/>
        <pt x="458" y="-537" on="1"/>
        <pt x="290" y="-537" on="1"/>
      </contour>
      <contour>
        <pt x="290" y="1670" on="1"/>
        <pt x="458" y="1670" on="1"/>
        <pt x="458" y="813" on="1"/>
        <pt x="290" y="813" on="1"/>
      </contour>
    </TTGlyph>
    <TTGlyph name="bullet" xMin="210" yMin="385" xMax="727" yMax="904">
      <contour>
        <pt x="210" y="577" on="1"/>
        <pt x="210" y="642" on="0"/>
        <pt x="240" y="761" on="0"/>
        <pt x="293" y="851" on="0"/>
        <pt x="363" y="904" on="0"/>
        <pt x="403" y="904" on="1"/>
        <pt x="472" y="904" on="0"/>
        <pt x="590" y="873" on="0"/>
        <pt x="677" y="821" on="0"/>
        <pt x="727" y="749" on="0"/>
        <pt x="727" y="709" on="1"/>
        <pt x="727" y="644" on="0"/>
        <pt x="697" y="527" on="0"/>
        <pt x="644" y="438" on="0"/>
        <pt x="574" y="385" on="0"/>
        <pt x="534" y="385" on="1"/>
        <pt x="466" y="385" on="0"/>
        <pt x="347" y="415" on="0"/>
        <pt x="260" y="468" on="0"/>
        <pt x="210" y="538" on="0"/>
      </contour>
    </TTGlyph>
    <TTGlyph name="c" xMin="39" yMin="-22" xMax="985" yMax="1107">
      <contour>
        <pt x="929" y="798" on="1"/>
        <pt x="803" y="788" on="1"/>
        <pt x="803" y="983" on="1"/>
        <pt x="769" y="990" on="0"/>
        <pt x="697" y="997" on="0"/>
        <pt x="664" y="997" on="1"/>
        <pt x="630" y="997" on="0"/>
        <pt x="549" y="981" on="0"/>
        <pt x="505" y="962" on="1"/>
        <pt x="460" y="879" on="0"/>
        <pt x="397" y="677" on="0"/>
        <pt x="380" y="562" on="1"/>
        <pt x="364" y="443" on="1"/>
        <pt x="339" y="273" on="0"/>
        <pt x="410" y="88" on="0"/>
        <pt x="558" y="88" on="1"/>
        <pt x="623" y="88" on="0"/>
        <pt x="777" y="138" on="0"/>
        <pt x="845" y="178" on="1"/>
        <pt x="845" y="72" on="1"/>
        <pt x="765" y="26" on="0"/>
        <pt x="569" y="-22" on="0"/>
        <pt x="471" y="-22" on="1"/>
        <pt x="239" y="-22" on="0"/>
        <pt x="39" y="202" on="0"/>
        <pt x="72" y="429" on="1"/>
        <pt x="85" y="522" on="1"/>
        <pt x="125" y="802" on="0"/>
        <pt x="455" y="1107" on="0"/>
        <pt x="686" y="1107" on="1"/>
        <pt x="770" y="1107" on="0"/>
        <pt x="930" y="1079" on="0"/>
        <pt x="985" y="1055" on="1"/>
      </contour>
    </TTGlyph>
    <TTGlyph name="cacute" xMin="39" yMin="-22" xMax="1149" yMax="1670">
      <component glyphName="c" x="0" y="0" flags="0x204"/>
      <component glyphName="acute" x="439" y="0" flags="0x4"/>
    </TTGlyph>
    <TTGlyph name="caron" xMin="200" yMin="1255" xMax="893" yMax="1670">
      <contour>
        <pt x="204" y="1660" on="1"/>
        <pt x="361" y="1670" on="1"/>
        <pt x="530" y="1422" on="1"/>
        <pt x="770" y="1670" on="1"/>
        <pt x="893" y="1660" on="1"/>
        <pt x="889" y="1628" on="1"/>
        <pt x="603" y="1255" on="1"/>
        <pt x="382" y="1265" on="1"/>
        <pt x="200" y="1628" on="1"/>
      </contour>
    </TTGlyph>
    <TTGlyph name="caron.alt" xMin="126" yMin="1157" xMax="405" yMax="1540">
      <contour>
        <pt x="179" y="1540" on="1"/>
        <pt x="405" y="1540" on="1"/>
        <pt x="400" y="1498" on="1"/>
        <pt x="289" y="1157" on="1"/>
        <pt x="126" y="1157" on="1"/>
      </contour>
    </TTGlyph>
    <TTGlyph name="caron.case" xMin="-70" yMin="1460" xMax="673" yMax="1794">
      <contour>
        <pt x="-65" y="1784" on="1"/>
        <pt x="90" y="1794" on="1"/>
        <pt x="286" y="1609" on="1"/>
        <pt x="549" y="1794" on="1"/>
        <pt x="673" y="1784" on="1"/>
        <pt x="668" y="1752" on="1"/>
        <pt x="364" y="1460" on="1"/>
        <pt x="142" y="1470" on="1"/>
        <pt x="-70" y="1752" on="1"/>
      </contour>
    </TTGlyph>
    <TTGlyph name="ccaron" xMin="39" yMin="-22" xMax="1095" yMax="1670">
      <component glyphName="c" x="0" y="0" flags="0x204"/>
      <component glyphName="caron" x="202" y="0" flags="0x4"/>
    </TTGlyph>
    <TTGlyph name="ccedilla" xMin="39" yMin="-457" xMax="985" yMax="1107">
      <contour>
        <pt x="929" y="798" on="1"/>
        <pt x="803" y="788" on="1"/>
        <pt x="803" y="983" on="1"/>
        <pt x="769" y="990" on="0"/>
        <pt x="697" y="997" on="0"/>
        <pt x="664" y="997" on="1"/>
        <pt x="630" y="997" on="0"/>
        <pt x="549" y="981" on="0"/>
        <pt x="505" y="962" on="1"/>
        <pt x="460" y="879" on="0"/>
        <pt x="397" y="677" on="0"/>
        <pt x="380" y="562" on="1"/>
        <pt x="364" y="443" on="1"/>
        <pt x="339" y="273" on="0"/>
        <pt x="410" y="88" on="0"/>
        <pt x="558" y="88" on="1"/>
        <pt x="623" y="88" on="0"/>
        <pt x="777" y="138" on="0"/>
        <pt x="845" y="178" on="1"/>
        <pt x="845" y="72" on="1"/>
        <pt x="765" y="26" on="0"/>
        <pt x="667" y="2" on="1"/>
        <pt x="611" y="-11" on="0"/>
        <pt x="555" y="-17" on="1"/>
        <pt x="511" y="-105" on="1"/>
        <pt x="560" y="-114" on="0"/>
        <pt x="636" y="-141" on="0"/>
        <pt x="686" y="-183" on="0"/>
        <pt x="707" y="-243" on="0"/>
        <pt x="701" y="-284" on="1"/>
        <pt x="695" y="-323" on="0"/>
        <pt x="653" y="-387" on="0"/>
        <pt x="584" y="-432" on="0"/>
        <pt x="490" y="-457" on="0"/>
        <pt x="433" y="-457" on="1"/>
        <pt x="391" y="-457" on="0"/>
        <pt x="317" y="-443" on="0"/>
        <pt x="258" y="-423" on="0"/>
        <pt x="235" y="-410" on="1"/>
        <pt x="248" y="-317" on="1"/>
        <pt x="274" y="-328" on="0"/>
        <pt x="328" y="-345" on="0"/>
        <pt x="392" y="-357" on="0"/>
        <pt x="421" y="-357" on="1"/>
        <pt x="443" y="-357" on="0"/>
        <pt x="478" y="-353" on="0"/>
        <pt x="490" y="-350" on="1"/>
        <pt x="494" y="-344" on="0"/>
        <pt x="500" y="-331" on="0"/>
        <pt x="506" y="-311" on="0"/>
        <pt x="508" y="-297" on="1"/>
        <pt x="511" y="-273" on="0"/>
        <pt x="503" y="-238" on="0"/>
        <pt x="475" y="-212" on="0"/>
        <pt x="425" y="-193" on="0"/>
        <pt x="387" y="-186" on="1"/>
        <pt x="361" y="-122" on="1"/>
        <pt x="412" y="-20" on="1"/>
        <pt x="226" y="-7" on="0"/>
        <pt x="139" y="90" on="1"/>
        <pt x="39" y="202" on="0"/>
        <pt x="72" y="429" on="1"/>
        <pt x="85" y="522" on="1"/>
        <pt x="125" y="802" on="0"/>
        <pt x="455" y="1107" on="0"/>
        <pt x="686" y="1107" on="1"/>
        <pt x="770" y="1107" on="0"/>
        <pt x="930" y="1079" on="0"/>
        <pt x="985" y="1055" on="1"/>
      </contour>
    </TTGlyph>
    <TTGlyph name="ccircumflex" xMin="39" yMin="-22" xMax="1041" yMax="1680">
      <component glyphName="c" x="0" y="0" flags="0x204"/>
      <component glyphName="circumflex" x="255" y="0" flags="0x4"/>
    </TTGlyph>
    <TTGlyph name="cdotaccent" xMin="39" yMin="-22" xMax="985" yMax="1562">
      <component glyphName="c" x="0" y="0" flags="0x204"/>
      <component glyphName="dotaccent" x="338" y="0" flags="0x4"/>
    </TTGlyph>
    <TTGlyph name="cedilla" xMin="200" yMin="-457" xMax="672" yMax="37">
      <contour>
        <pt x="548" y="37" on="1"/>
        <pt x="476" y="-105" on="1"/>
        <pt x="525" y="-114" on="0"/>
        <pt x="601" y="-141" on="0"/>
        <pt x="651" y="-183" on="0"/>
        <pt x="672" y="-243" on="0"/>
        <pt x="666" y="-284" on="1"/>
        <pt x="660" y="-323" on="0"/>
        <pt x="618" y="-387" on="0"/>
        <pt x="549" y="-432" on="0"/>
        <pt x="455" y="-457" on="0"/>
        <pt x="398" y="-457" on="1"/>
        <pt x="356" y="-457" on="0"/>
        <pt x="282" y="-443" on="0"/>
        <pt x="223" y="-423" on="0"/>
        <pt x="200" y="-410" on="1"/>
        <pt x="213" y="-317" on="1"/>
        <pt x="239" y="-328" on="0"/>
        <pt x="293" y="-345" on="0"/>
        <pt x="357" y="-357" on="0"/>
        <pt x="386" y="-357" on="1"/>
        <pt x="408" y="-357" on="0"/>
        <pt x="443" y="-353" on="0"/>
        <pt x="455" y="-350" on="1"/>
        <pt x="459" y="-344" on="0"/>
        <pt x="465" y="-331" on="0"/>
        <pt x="471" y="-311" on="0"/>
        <pt x="473" y="-297" on="1"/>
        <pt x="476" y="-273" on="0"/>
        <pt x="468" y="-238" on="0"/>
        <pt x="440" y="-212" on="0"/>
        <pt x="390" y="-193" on="0"/>
        <pt x="352" y="-186" on="1"/>
        <pt x="326" y="-122" on="1"/>
        <pt x="406" y="37" on="1"/>
      </contour>
    </TTGlyph>
    <TTGlyph name="cent" xMin="39" yMin="-245" xMax="985" yMax="1353">
      <contour>
        <pt x="929" y="798" on="1"/>
        <pt x="803" y="788" on="1"/>
        <pt x="803" y="983" on="1"/>
        <pt x="769" y="990" on="0"/>
        <pt x="733" y="993" on="1"/>
        <pt x="726" y="994" on="0"/>
        <pt x="720" y="994" on="1"/>
        <pt x="593" y="89" on="1"/>
        <pt x="643" y="94" on="0"/>
        <pt x="700" y="113" on="1"/>
        <pt x="777" y="138" on="0"/>
        <pt x="845" y="178" on="1"/>
        <pt x="845" y="72" on="1"/>
        <pt x="765" y="26" on="0"/>
        <pt x="667" y="2" on="1"/>
        <pt x="623" y="-9" on="0"/>
        <pt x="578" y="-15" on="1"/>
        <pt x="546" y="-245" on="1"/>
        <pt x="428" y="-245" on="1"/>
        <pt x="459" y="-22" on="1"/>
        <pt x="236" y="-19" on="0"/>
        <pt x="139" y="90" on="1"/>
        <pt x="39" y="202" on="0"/>
        <pt x="72" y="429" on="1"/>
        <pt x="85" y="522" on="1"/>
        <pt x="125" y="802" on="0"/>
        <pt x="290" y="954" on="1"/>
        <pt x="430" y="1084" on="0"/>
        <pt x="618" y="1103" on="1"/>
        <pt x="653" y="1353" on="1"/>
        <pt x="771" y="1353" on="1"/>
        <pt x="736" y="1105" on="1"/>
        <pt x="794" y="1103" on="0"/>
        <pt x="850" y="1093" on="1"/>
        <pt x="930" y="1079" on="0"/>
        <pt x="985" y="1055" on="1"/>
      </contour>
      <contour>
        <pt x="589" y="989" on="1"/>
        <pt x="549" y="981" on="0"/>
        <pt x="505" y="962" on="1"/>
        <pt x="460" y="879" on="0"/>
        <pt x="397" y="677" on="0"/>
        <pt x="380" y="562" on="1"/>
        <pt x="364" y="443" on="1"/>
        <pt x="339" y="273" on="0"/>
        <pt x="374" y="180" on="1"/>
        <pt x="399" y="117" on="0"/>
        <pt x="476" y="97" on="1"/>
        <pt x="602" y="991" on="1"/>
        <pt x="596" y="990" on="0"/>
      </contour>
    </TTGlyph>
    <TTGlyph name="circumflex" xMin="93" yMin="1265" xMax="786" yMax="1680">
      <contour>
        <pt x="782" y="1275" on="1"/>
        <pt x="625" y="1265" on="1"/>
        <pt x="455" y="1512" on="1"/>
        <pt x="216" y="1265" on="1"/>
        <pt x="93" y="1275" on="1"/>
        <pt x="97" y="1307" on="1"/>
        <pt x="383" y="1680" on="1"/>
        <pt x="604" y="1670" on="1"/>
        <pt x="786" y="1307" on="1"/>
      </contour>
    </TTGlyph>
    <TTGlyph name="circumflex.case" xMin="-110" yMin="1460" xMax="633" yMax="1794">
      <contour>
        <pt x="628" y="1470" on="1"/>
        <pt x="472" y="1460" on="1"/>
        <pt x="275" y="1645" on="1"/>
        <pt x="13" y="1460" on="1"/>
        <pt x="-110" y="1470" on="1"/>
        <pt x="-105" y="1502" on="1"/>
        <pt x="198" y="1794" on="1"/>
        <pt x="420" y="1784" on="1"/>
        <pt x="633" y="1502" on="1"/>
      </contour>
    </TTGlyph>
    <TTGlyph name="circumflexacute" xMin="93" yMin="1265" xMax="1128" yMax="1809">
      <contour>
        <pt x="782" y="1275" on="1"/>
        <pt x="625" y="1265" on="1"/>
        <pt x="455" y="1512" on="1"/>
        <pt x="216" y="1265" on="1"/>
        <pt x="93" y="1275" on="1"/>
        <pt x="97" y="1307" on="1"/>
        <pt x="383" y="1680" on="1"/>
        <pt x="604" y="1670" on="1"/>
        <pt x="786" y="1307" on="1"/>
      </contour>
      <contour>
        <pt x="734" y="1572" on="1"/>
        <pt x="907" y="1809" on="1"/>
        <pt x="1128" y="1799" on="1"/>
        <pt x="1118" y="1733" on="1"/>
        <pt x="843" y="1530" on="1"/>
        <pt x="729" y="1540" on="1"/>
      </contour>
    </TTGlyph>
    <TTGlyph name="circumflexacute.case" xMin="-110" yMin="1460" xMax="974" yMax="1916">
      <contour>
        <pt x="628" y="1470" on="1"/>
        <pt x="472" y="1460" on="1"/>
        <pt x="275" y="1645" on="1"/>
        <pt x="13" y="1460" on="1"/>
        <pt x="-110" y="1470" on="1"/>
        <pt x="-105" y="1502" on="1"/>
        <pt x="198" y="1794" on="1"/>
        <pt x="420" y="1784" on="1"/>
        <pt x="633" y="1502" on="1"/>
      </contour>
      <contour>
        <pt x="542" y="1734" on="1"/>
        <pt x="742" y="1916" on="1"/>
        <pt x="974" y="1906" on="1"/>
        <pt x="974" y="1840" on="1"/>
        <pt x="667" y="1691" on="1"/>
        <pt x="542" y="1702" on="1"/>
      </contour>
    </TTGlyph>
    <TTGlyph name="circumflexgrave" xMin="-132" yMin="1265" xMax="786" yMax="1809">
      <contour>
        <pt x="782" y="1275" on="1"/>
        <pt x="625" y="1265" on="1"/>
        <pt x="455" y="1512" on="1"/>
        <pt x="216" y="1265" on="1"/>
        <pt x="93" y="1275" on="1"/>
        <pt x="97" y="1307" on="1"/>
        <pt x="383" y="1680" on="1"/>
        <pt x="604" y="1670" on="1"/>
        <pt x="786" y="1307" on="1"/>
      </contour>
      <contour>
        <pt x="216" y="1540" on="1"/>
        <pt x="87" y="1530" on="1"/>
        <pt x="-132" y="1733" on="1"/>
        <pt x="-122" y="1799" on="1"/>
        <pt x="114" y="1809" on="1"/>
        <pt x="221" y="1572" on="1"/>
      </contour>
    </TTGlyph>
    <TTGlyph name="circumflexgrave.case" xMin="-316" yMin="1460" xMax="633" yMax="1916">
      <contour>
        <pt x="628" y="1470" on="1"/>
        <pt x="472" y="1460" on="1"/>
        <pt x="275" y="1645" on="1"/>
        <pt x="13" y="1460" on="1"/>
        <pt x="-110" y="1470" on="1"/>
        <pt x="-105" y="1502" on="1"/>
        <pt x="198" y="1794" on="1"/>
        <pt x="420" y="1784" on="1"/>
        <pt x="633" y="1502" on="1"/>
      </contour>
      <contour>
        <pt x="43" y="1702" on="1"/>
        <pt x="-73" y="1691" on="1"/>
        <pt x="-316" y="1840" on="1"/>
        <pt x="-307" y="1906" on="1"/>
        <pt x="-94" y="1916" on="1"/>
        <pt x="48" y="1734" on="1"/>
      </contour>
    </TTGlyph>
    <TTGlyph name="circumflexhookabove" xMin="93" yMin="1265" xMax="1069" yMax="1939">
      <contour>
        <pt x="782" y="1275" on="1"/>
        <pt x="625" y="1265" on="1"/>
        <pt x="455" y="1512" on="1"/>
        <pt x="216" y="1265" on="1"/>
        <pt x="93" y="1275" on="1"/>
        <pt x="97" y="1307" on="1"/>
        <pt x="383" y="1680" on="1"/>
        <pt x="604" y="1670" on="1"/>
        <pt x="786" y="1307" on="1"/>
      </contour>
      <contour>
        <pt x="923" y="1641" on="1"/>
        <pt x="898" y="1628" on="0"/>
        <pt x="865" y="1609" on="0"/>
        <pt x="844" y="1593" on="0"/>
        <pt x="834" y="1580" on="0"/>
        <pt x="833" y="1573" on="1"/>
        <pt x="831" y="1562" on="0"/>
        <pt x="836" y="1545" on="0"/>
        <pt x="838" y="1540" on="1"/>
        <pt x="743" y="1513" on="1"/>
        <pt x="734" y="1527" on="0"/>
        <pt x="724" y="1557" on="0"/>
        <pt x="718" y="1590" on="0"/>
        <pt x="721" y="1607" on="1"/>
        <pt x="722" y="1620" on="0"/>
        <pt x="731" y="1648" on="0"/>
        <pt x="750" y="1676" on="0"/>
        <pt x="782" y="1707" on="0"/>
        <pt x="807" y="1723" on="1"/>
        <pt x="851" y="1751" on="0"/>
        <pt x="884" y="1785" on="0"/>
        <pt x="886" y="1805" on="1"/>
        <pt x="888" y="1825" on="0"/>
        <pt x="869" y="1855" on="0"/>
        <pt x="841" y="1855" on="1"/>
        <pt x="828" y="1855" on="0"/>
        <pt x="806" y="1850" on="0"/>
        <pt x="786" y="1843" on="0"/>
        <pt x="778" y="1840" on="1"/>
        <pt x="742" y="1746" on="1"/>
        <pt x="635" y="1751" on="1"/>
        <pt x="654" y="1884" on="1"/>
        <pt x="685" y="1899" on="0"/>
        <pt x="755" y="1922" on="0"/>
        <pt x="841" y="1939" on="0"/>
        <pt x="891" y="1939" on="1"/>
        <pt x="978" y="1939" on="0"/>
        <pt x="1069" y="1868" on="0"/>
        <pt x="1060" y="1798" on="1"/>
        <pt x="1053" y="1746" on="0"/>
        <pt x="979" y="1670" on="0"/>
      </contour>
    </TTGlyph>
    <TTGlyph name="circumflexhookabove.case" xMin="-110" yMin="1460" xMax="888" yMax="2101">
      <contour>
        <pt x="628" y="1470" on="1"/>
        <pt x="472" y="1460" on="1"/>
        <pt x="275" y="1645" on="1"/>
        <pt x="13" y="1460" on="1"/>
        <pt x="-110" y="1470" on="1"/>
        <pt x="-105" y="1502" on="1"/>
        <pt x="198" y="1794" on="1"/>
        <pt x="420" y="1784" on="1"/>
        <pt x="633" y="1502" on="1"/>
      </contour>
      <contour>
        <pt x="742" y="1803" on="1"/>
        <pt x="717" y="1790" on="0"/>
        <pt x="684" y="1771" on="0"/>
        <pt x="663" y="1755" on="0"/>
        <pt x="653" y="1742" on="0"/>
        <pt x="652" y="1735" on="1"/>
        <pt x="650" y="1724" on="0"/>
        <pt x="655" y="1707" on="0"/>
        <pt x="657" y="1702" on="1"/>
        <pt x="562" y="1675" on="1"/>
        <pt x="553" y="1689" on="0"/>
        <pt x="543" y="1719" on="0"/>
        <pt x="537" y="1752" on="0"/>
        <pt x="540" y="1769" on="1"/>
        <pt x="541" y="1782" on="0"/>
        <pt x="550" y="1810" on="0"/>
        <pt x="569" y="1838" on="0"/>
        <pt x="601" y="1869" on="0"/>
        <pt x="626" y="1885" on="1"/>
        <pt x="670" y="1913" on="0"/>
        <pt x="703" y="1947" on="0"/>
        <pt x="705" y="1967" on="1"/>
        <pt x="707" y="1987" on="0"/>
        <pt x="688" y="2017" on="0"/>
        <pt x="660" y="2017" on="1"/>
        <pt x="647" y="2017" on="0"/>
        <pt x="625" y="2012" on="0"/>
        <pt x="605" y="2005" on="0"/>
        <pt x="597" y="2002" on="1"/>
        <pt x="561" y="1908" on="1"/>
        <pt x="454" y="1913" on="1"/>
        <pt x="473" y="2046" on="1"/>
        <pt x="504" y="2061" on="0"/>
        <pt x="574" y="2084" on="0"/>
        <pt x="660" y="2101" on="0"/>
        <pt x="710" y="2101" on="1"/>
        <pt x="797" y="2101" on="0"/>
        <pt x="888" y="2030" on="0"/>
        <pt x="879" y="1960" on="1"/>
        <pt x="872" y="1908" on="0"/>
        <pt x="798" y="1832" on="0"/>
      </contour>
    </TTGlyph>
    <TTGlyph name="circumflextilde" xMin="73" yMin="1265" xMax="956" yMax="2069">
      <contour>
        <pt x="80" y="1815" on="1"/>
        <pt x="98" y="1942" on="0"/>
        <pt x="239" y="2069" on="0"/>
        <pt x="346" y="2069" on="1"/>
        <pt x="404" y="2069" on="0"/>
        <pt x="518" y="2028" on="0"/>
        <pt x="620" y="1978" on="0"/>
        <pt x="707" y="1937" on="0"/>
        <pt x="738" y="1937" on="1"/>
        <pt x="776" y="1937" on="0"/>
        <pt x="828" y="1996" on="0"/>
        <pt x="838" y="2057" on="1"/>
        <pt x="956" y="2067" on="1"/>
        <pt x="946" y="1995" on="1"/>
        <pt x="929" y="1876" on="0"/>
        <pt x="798" y="1741" on="0"/>
        <pt x="692" y="1741" on="1"/>
        <pt x="640" y="1741" on="0"/>
        <pt x="522" y="1782" on="0"/>
        <pt x="410" y="1832" on="0"/>
        <pt x="314" y="1873" on="0"/>
        <pt x="284" y="1873" on="1"/>
        <pt x="244" y="1873" on="0"/>
        <pt x="192" y="1835" on="0"/>
        <pt x="183" y="1775" on="1"/>
        <pt x="73" y="1765" on="1"/>
      </contour>
      <contour>
        <pt x="782" y="1275" on="1"/>
        <pt x="625" y="1265" on="1"/>
        <pt x="455" y="1512" on="1"/>
        <pt x="216" y="1265" on="1"/>
        <pt x="93" y="1275" on="1"/>
        <pt x="97" y="1307" on="1"/>
        <pt x="383" y="1680" on="1"/>
        <pt x="604" y="1670" on="1"/>
        <pt x="786" y="1307" on="1"/>
      </contour>
    </TTGlyph>
    <TTGlyph name="circumflextilde.case" xMin="-140" yMin="1460" xMax="842" yMax="2183">
      <contour>
        <pt x="-133" y="1929" on="1"/>
        <pt x="-115" y="2056" on="0"/>
        <pt x="37" y="2183" on="0"/>
        <pt x="152" y="2183" on="1"/>
        <pt x="219" y="2183" on="0"/>
        <pt x="351" y="2142" on="0"/>
        <pt x="469" y="2092" on="0"/>
        <pt x="568" y="2051" on="0"/>
        <pt x="604" y="2051" on="1"/>
        <pt x="651" y="2051" on="0"/>
        <pt x="714" y="2110" on="0"/>
        <pt x="724" y="2171" on="1"/>
        <pt x="842" y="2181" on="1"/>
        <pt x="832" y="2109" on="1"/>
        <pt x="815" y="1990" on="0"/>
        <pt x="673" y="1855" on="0"/>
        <pt x="558" y="1855" on="1"/>
        <pt x="519" y="1855" on="0"/>
        <pt x="432" y="1875" on="0"/>
        <pt x="343" y="1904" on="0"/>
        <pt x="256" y="1938" on="0"/>
        <pt x="178" y="1967" on="0"/>
        <pt x="113" y="1987" on="0"/>
        <pt x="90" y="1987" on="1"/>
        <pt x="66" y="1987" on="0"/>
        <pt x="26" y="1979" on="0"/>
        <pt x="-5" y="1957" on="0"/>
        <pt x="-26" y="1919" on="0"/>
        <pt x="-30" y="1889" on="1"/>
        <pt x="-140" y="1879" on="1"/>
      </contour>
      <contour>
        <pt x="628" y="1470" on="1"/>
        <pt x="472" y="1460" on="1"/>
        <pt x="275" y="1645" on="1"/>
        <pt x="13" y="1460" on="1"/>
        <pt x="-110" y="1470" on="1"/>
        <pt x="-105" y="1502" on="1"/>
        <pt x="198" y="1794" on="1"/>
        <pt x="420" y="1784" on="1"/>
        <pt x="633" y="1502" on="1"/>
      </contour>
    </TTGlyph>
    <TTGlyph name="colon" xMin="44" yMin="-22" xMax="470" yMax="1016">
      <contour>
        <pt x="44" y="99" on="1"/>
        <pt x="44" y="140" on="0"/>
        <pt x="63" y="215" on="0"/>
        <pt x="96" y="272" on="0"/>
        <pt x="140" y="305" on="0"/>
        <pt x="165" y="305" on="1"/>
        <pt x="208" y="305" on="0"/>
        <pt x="283" y="286" on="0"/>
        <pt x="338" y="252" on="0"/>
        <pt x="370" y="207" on="0"/>
        <pt x="370" y="182" on="1"/>
        <pt x="370" y="141" on="0"/>
        <pt x="351" y="68" on="0"/>
        <pt x="318" y="11" on="0"/>
        <pt x="273" y="-22" on="0"/>
        <pt x="248" y="-22" on="1"/>
        <pt x="205" y="-22" on="0"/>
        <pt x="131" y="-3" on="0"/>
        <pt x="76" y="30" on="0"/>
        <pt x="44" y="74" on="0"/>
      </contour>
      <contour>
        <pt x="144" y="810" on="1"/>
        <pt x="144" y="851" on="0"/>
        <pt x="163" y="926" on="0"/>
        <pt x="196" y="983" on="0"/>
        <pt x="240" y="1016" on="0"/>
        <pt x="265" y="1016" on="1"/>
        <pt x="308" y="1016" on="0"/>
        <pt x="383" y="997" on="0"/>
        <pt x="438" y="963" on="0"/>
        <pt x="470" y="918" on="0"/>
        <pt x="470" y="893" on="1"/>
        <pt x="470" y="852" on="0"/>
        <pt x="451" y="779" on="0"/>
        <pt x="418" y="722" on="0"/>
        <pt x="373" y="689" on="0"/>
        <pt x="348" y="689" on="1"/>
        <pt x="305" y="689" on="0"/>
        <pt x="231" y="708" on="0"/>
        <pt x="176" y="741" on="0"/>
        <pt x="144" y="785" on="0"/>
      </contour>
    </TTGlyph>
    <TTGlyph name="colonmonetary" xMin="37" yMin="-133" xMax="1208" yMax="1510">
      <contour>
        <pt x="387" y="-2" on="1"/>
        <pt x="355" y="5" on="0"/>
        <pt x="297" y="23" on="0"/>
        <pt x="271" y="35" on="1"/>
        <pt x="197" y="-133" on="1"/>
        <pt x="82" y="-133" on="1"/>
        <pt x="85" y="-113" on="1"/>
        <pt x="176" y="94" on="1"/>
        <pt x="103" y="155" on="0"/>
        <pt x="37" y="361" on="0"/>
        <pt x="58" y="515" on="1"/>
        <pt x="70" y="604" on="1"/>
        <pt x="93" y="778" on="0"/>
        <pt x="203" y="1050" on="0"/>
        <pt x="372" y="1243" on="0"/>
        <pt x="598" y="1355" on="0"/>
        <pt x="738" y="1370" on="1"/>
        <pt x="800" y="1510" on="1"/>
        <pt x="915" y="1510" on="1"/>
        <pt x="912" y="1490" on="1"/>
        <pt x="861" y="1375" on="1"/>
        <pt x="932" y="1373" on="0"/>
        <pt x="989" y="1366" on="1"/>
        <pt x="1053" y="1510" on="1"/>
        <pt x="1168" y="1510" on="1"/>
        <pt x="1165" y="1490" on="1"/>
        <pt x="1102" y="1347" on="1"/>
        <pt x="1128" y="1341" on="0"/>
        <pt x="1167" y="1331" on="0"/>
        <pt x="1181" y="1326" on="1"/>
        <pt x="1197" y="1321" on="0"/>
        <pt x="1208" y="1316" on="1"/>
        <pt x="1191" y="1026" on="1"/>
        <pt x="1063" y="1026" on="1"/>
        <pt x="1040" y="1207" on="1"/>
        <pt x="560" y="117" on="1"/>
        <pt x="592" y="106" on="0"/>
        <pt x="659" y="97" on="0"/>
        <pt x="695" y="97" on="1"/>
        <pt x="769" y="97" on="0"/>
        <pt x="910" y="129" on="0"/>
        <pt x="965" y="149" on="1"/>
        <pt x="1029" y="172" on="0"/>
        <pt x="1087" y="201" on="1"/>
        <pt x="1072" y="105" on="1"/>
        <pt x="1010" y="69" on="0"/>
        <pt x="935" y="41" on="1"/>
        <pt x="870" y="17" on="0"/>
        <pt x="697" y="-22" on="0"/>
        <pt x="595" y="-22" on="1"/>
        <pt x="570" y="-22" on="0"/>
        <pt x="523" y="-20" on="0"/>
        <pt x="500" y="-18" on="1"/>
        <pt x="450" y="-133" on="1"/>
        <pt x="335" y="-133" on="1"/>
        <pt x="338" y="-113" on="1"/>
      </contour>
      <contour>
        <pt x="386" y="296" on="1"/>
        <pt x="399" y="257" on="0"/>
        <pt x="438" y="196" on="0"/>
        <pt x="464" y="173" on="1"/>
        <pt x="938" y="1249" on="1"/>
        <pt x="909" y="1252" on="0"/>
        <pt x="846" y="1256" on="0"/>
        <pt x="810" y="1256" on="1"/>
        <pt x="809" y="1256" on="1"/>
      </contour>
      <contour>
        <pt x="371" y="536" on="1"/>
        <pt x="682" y="1242" on="1"/>
        <pt x="647" y="1234" on="0"/>
        <pt x="594" y="1215" on="0"/>
        <pt x="575" y="1207" on="1"/>
        <pt x="553" y="1197" on="0"/>
        <pt x="537" y="1188" on="1"/>
        <pt x="507" y="1122" on="0"/>
        <pt x="479" y="1043" on="1"/>
        <pt x="455" y="974" on="0"/>
        <pt x="405" y="791" on="0"/>
        <pt x="391" y="683" on="1"/>
        <pt x="373" y="550" on="1"/>
      </contour>
    </TTGlyph>
    <TTGlyph name="comma" xMin="28" yMin="-436" xMax="407" yMax="305">
      <contour>
        <pt x="51" y="98" on="1"/>
        <pt x="51" y="140" on="0"/>
        <pt x="71" y="215" on="0"/>
        <pt x="104" y="272" on="0"/>
        <pt x="148" y="305" on="0"/>
        <pt x="173" y="305" on="1"/>
        <pt x="196" y="305" on="0"/>
        <pt x="246" y="298" on="0"/>
        <pt x="294" y="283" on="0"/>
        <pt x="336" y="258" on="0"/>
        <pt x="353" y="241" on="1"/>
        <pt x="363" y="230" on="0"/>
        <pt x="383" y="199" on="0"/>
        <pt x="398" y="154" on="0"/>
        <pt x="407" y="92" on="0"/>
        <pt x="407" y="50" on="1"/>
        <pt x="407" y="-10" on="0"/>
        <pt x="387" y="-123" on="0"/>
        <pt x="324" y="-239" on="0"/>
        <pt x="207" y="-364" on="0"/>
        <pt x="110" y="-436" on="1"/>
        <pt x="28" y="-340" on="1"/>
        <pt x="91" y="-297" on="0"/>
        <pt x="176" y="-222" on="0"/>
        <pt x="227" y="-155" on="0"/>
        <pt x="249" y="-98" on="0"/>
        <pt x="249" y="-73" on="1"/>
        <pt x="249" y="-49" on="0"/>
        <pt x="212" y="-23" on="0"/>
        <pt x="183" y="-16" on="1"/>
        <pt x="124" y="0" on="0"/>
        <pt x="51" y="60" on="0"/>
      </contour>
    </TTGlyph>
    <TTGlyph name="commaaccent" xMin="200" yMin="-511" xMax="459" yMax="-128">
      <contour>
        <pt x="253" y="-128" on="1"/>
        <pt x="459" y="-128" on="1"/>
        <pt x="451" y="-190" on="1"/>
        <pt x="343" y="-511" on="1"/>
        <pt x="200" y="-511" on="1"/>
      </contour>
    </TTGlyph>
    <TTGlyph name="copyright" xMin="120" yMin="335" xMax="1347" yMax="1562">
      <contour>
        <pt x="419" y="953" on="1"/>
        <pt x="419" y="1124" on="0"/>
        <pt x="599" y="1305" on="0"/>
        <pt x="757" y="1305" on="1"/>
        <pt x="803" y="1305" on="0"/>
        <pt x="875" y="1293" on="0"/>
        <pt x="931" y="1277" on="0"/>
        <pt x="953" y="1267" on="1"/>
        <pt x="965" y="1064" on="1"/>
        <pt x="867" y="1050" on="1"/>
        <pt x="823" y="1187" on="1"/>
        <pt x="816" y="1190" on="0"/>
        <pt x="798" y="1195" on="0"/>
        <pt x="773" y="1199" on="0"/>
        <pt x="756" y="1199" on="1"/>
        <pt x="734" y="1199" on="0"/>
        <pt x="699" y="1193" on="0"/>
        <pt x="673" y="1186" on="0"/>
        <pt x="662" y="1181" on="1"/>
        <pt x="655" y="1157" on="0"/>
        <pt x="645" y="1084" on="0"/>
        <pt x="639" y="1011" on="0"/>
        <pt x="639" y="968" on="1"/>
        <pt x="639" y="915" on="1"/>
        <pt x="639" y="857" on="0"/>
        <pt x="659" y="776" on="0"/>
        <pt x="695" y="725" on="0"/>
        <pt x="743" y="702" on="0"/>
        <pt x="771" y="702" on="1"/>
        <pt x="809" y="702" on="0"/>
        <pt x="878" y="716" on="0"/>
        <pt x="935" y="735" on="0"/>
        <pt x="961" y="748" on="1"/>
        <pt x="961" y="654" on="1"/>
        <pt x="933" y="637" on="0"/>
        <pt x="870" y="613" on="0"/>
        <pt x="789" y="595" on="0"/>
        <pt x="739" y="595" on="1"/>
        <pt x="671" y="595" on="0"/>
        <pt x="554" y="636" on="0"/>
        <pt x="468" y="712" on="0"/>
        <pt x="419" y="821" on="0"/>
        <pt x="419" y="890" on="1"/>
      </contour>
      <contour>
        <pt x="297" y="949" on="1"/>
        <pt x="297" y="858" on="0"/>
        <pt x="365" y="699" on="0"/>
        <pt x="484" y="580" on="0"/>
        <pt x="643" y="512" on="0"/>
        <pt x="734" y="512" on="1"/>
        <pt x="824" y="512" on="0"/>
        <pt x="983" y="580" on="0"/>
        <pt x="1102" y="699" on="0"/>
        <pt x="1170" y="858" on="0"/>
        <pt x="1170" y="949" on="1"/>
        <pt x="1170" y="1039" on="0"/>
        <pt x="1102" y="1198" on="0"/>
        <pt x="983" y="1317" on="0"/>
        <pt x="824" y="1385" on="0"/>
        <pt x="734" y="1385" on="1"/>
        <pt x="643" y="1385" on="0"/>
        <pt x="484" y="1317" on="0"/>
        <pt x="365" y="1198" on="0"/>
        <pt x="297" y="1039" on="0"/>
      </contour>
      <contour>
        <pt x="120" y="949" on="1"/>
        <pt x="120" y="1076" on="0"/>
        <pt x="217" y="1300" on="0"/>
        <pt x="383" y="1466" on="0"/>
        <pt x="607" y="1562" on="0"/>
        <pt x="734" y="1562" on="1"/>
        <pt x="861" y="1562" on="0"/>
        <pt x="1085" y="1466" on="0"/>
        <pt x="1251" y="1300" on="0"/>
        <pt x="1347" y="1076" on="0"/>
        <pt x="1347" y="949" on="1"/>
        <pt x="1347" y="822" on="0"/>
        <pt x="1251" y="598" on="0"/>
        <pt x="1085" y="432" on="0"/>
        <pt x="861" y="335" on="0"/>
        <pt x="734" y="335" on="1"/>
        <pt x="649" y="335" on="0"/>
        <pt x="492" y="379" on="0"/>
        <pt x="356" y="459" on="0"/>
        <pt x="244" y="571" on="0"/>
        <pt x="164" y="707" on="0"/>
        <pt x="120" y="864" on="0"/>
      </contour>
    </TTGlyph>
    <TTGlyph name="currency" xMin="90" yMin="45" xMax="1068" yMax="1112">
      <contour>
        <pt x="92" y="175" on="1"/>
        <pt x="252" y="367" on="1"/>
        <pt x="217" y="414" on="0"/>
        <pt x="179" y="525" on="0"/>
        <pt x="179" y="588" on="1"/>
        <pt x="179" y="646" on="0"/>
        <pt x="213" y="753" on="0"/>
        <pt x="245" y="798" on="1"/>
        <pt x="90" y="983" on="1"/>
        <pt x="244" y="1112" on="1"/>
        <pt x="399" y="928" on="1"/>
        <pt x="440" y="948" on="0"/>
        <pt x="530" y="969" on="0"/>
        <pt x="580" y="969" on="1"/>
        <pt x="628" y="969" on="0"/>
        <pt x="718" y="948" on="0"/>
        <pt x="759" y="928" on="1"/>
        <pt x="913" y="1112" on="1"/>
        <pt x="1068" y="981" on="1"/>
        <pt x="914" y="798" on="1"/>
        <pt x="946" y="752" on="0"/>
        <pt x="981" y="646" on="0"/>
        <pt x="981" y="588" on="1"/>
        <pt x="981" y="525" on="0"/>
        <pt x="941" y="412" on="0"/>
        <pt x="906" y="365" on="1"/>
        <pt x="1067" y="174" on="1"/>
        <pt x="913" y="46" on="1"/>
        <pt x="748" y="242" on="1"/>
        <pt x="670" y="207" on="0"/>
        <pt x="580" y="207" on="1"/>
        <pt x="535" y="207" on="0"/>
        <pt x="450" y="225" on="0"/>
        <pt x="412" y="242" on="1"/>
        <pt x="247" y="45" on="1"/>
      </contour>
      <contour>
        <pt x="405" y="588" on="1"/>
        <pt x="405" y="542" on="0"/>
        <pt x="433" y="472" on="0"/>
        <pt x="480" y="425" on="0"/>
        <pt x="544" y="401" on="0"/>
        <pt x="580" y="401" on="1"/>
        <pt x="616" y="401" on="0"/>
        <pt x="679" y="425" on="0"/>
        <pt x="727" y="472" on="0"/>
        <pt x="754" y="542" on="0"/>
        <pt x="754" y="588" on="1"/>
        <pt x="754" y="634" on="0"/>
        <pt x="727" y="704" on="0"/>
        <pt x="679" y="751" on="0"/>
        <pt x="616" y="775" on="0"/>
        <pt x="580" y="775" on="1"/>
        <pt x="544" y="775" on="0"/>
        <pt x="480" y="751" on="0"/>
        <pt x="433" y="704" on="0"/>
        <pt x="405" y="634" on="0"/>
      </contour>
    </TTGlyph>
    <TTGlyph name="d" xMin="48" yMin="-22" xMax="1183" yMax="1562">
      <contour>
        <pt x="772" y="1540" on="1"/>
        <pt x="1102" y="1562" on="1"/>
        <pt x="1183" y="1484" on="1"/>
        <pt x="993" y="125" on="1"/>
        <pt x="1125" y="105" on="1"/>
        <pt x="1105" y="0" on="1"/>
        <pt x="775" y="-22" on="1"/>
        <pt x="694" y="56" on="1"/>
        <pt x="718" y="227" on="1"/>
        <pt x="635" y="104" on="0"/>
        <pt x="438" y="-22" on="0"/>
        <pt x="338" y="-22" on="1"/>
        <pt x="185" y="-22" on="0"/>
        <pt x="48" y="177" on="0"/>
        <pt x="74" y="373" on="1"/>
        <pt x="100" y="561" on="1"/>
        <pt x="138" y="817" on="0"/>
        <pt x="457" y="1107" on="0"/>
        <pt x="688" y="1107" on="1"/>
        <pt x="723" y="1107" on="0"/>
        <pt x="797" y="1101" on="0"/>
        <pt x="839" y="1095" on="1"/>
        <pt x="883" y="1415" on="1"/>
        <pt x="752" y="1435" on="1"/>
      </contour>
      <contour>
        <pt x="377" y="461" on="1"/>
        <pt x="351" y="265" on="0"/>
        <pt x="382" y="106" on="0"/>
        <pt x="444" y="106" on="1"/>
        <pt x="500" y="106" on="0"/>
        <pt x="652" y="248" on="0"/>
        <pt x="741" y="393" on="1"/>
        <pt x="824" y="987" on="1"/>
        <pt x="799" y="993" on="0"/>
        <pt x="716" y="1003" on="0"/>
        <pt x="669" y="1003" on="1"/>
        <pt x="628" y="1003" on="0"/>
        <pt x="541" y="985" on="0"/>
        <pt x="507" y="970" on="1"/>
        <pt x="469" y="896" on="0"/>
        <pt x="411" y="702" on="0"/>
        <pt x="395" y="592" on="1"/>
      </contour>
    </TTGlyph>
    <TTGlyph name="dagger" xMin="118" yMin="-22" xMax="1141" yMax="1562">
      <contour>
        <pt x="178" y="1140" on="1"/>
        <pt x="539" y="1100" on="1"/>
        <pt x="561" y="1540" on="1"/>
        <pt x="852" y="1562" on="1"/>
        <pt x="747" y="1100" on="1"/>
        <pt x="1141" y="1140" on="1"/>
        <pt x="1081" y="861" on="1"/>
        <pt x="719" y="901" on="1"/>
        <pt x="632" y="0" on="1"/>
        <pt x="341" y="-22" on="1"/>
        <pt x="511" y="901" on="1"/>
        <pt x="118" y="861" on="1"/>
      </contour>
    </TTGlyph>
    <TTGlyph name="daggerdbl" xMin="53" yMin="-22" xMax="1141" yMax="1562">
      <contour>
        <pt x="1015" y="400" on="1"/>
        <pt x="654" y="440" on="1"/>
        <pt x="632" y="0" on="1"/>
        <pt x="341" y="-22" on="1"/>
        <pt x="446" y="440" on="1"/>
        <pt x="53" y="400" on="1"/>
        <pt x="112" y="679" on="1"/>
        <pt x="474" y="639" on="1"/>
        <pt x="453" y="774" on="1"/>
        <pt x="511" y="901" on="1"/>
        <pt x="118" y="861" on="1"/>
        <pt x="178" y="1140" on="1"/>
        <pt x="539" y="1100" on="1"/>
        <pt x="561" y="1540" on="1"/>
        <pt x="852" y="1562" on="1"/>
        <pt x="747" y="1100" on="1"/>
        <pt x="1141" y="1140" on="1"/>
        <pt x="1081" y="861" on="1"/>
        <pt x="719" y="901" on="1"/>
        <pt x="741" y="774" on="1"/>
        <pt x="682" y="639" on="1"/>
        <pt x="1075" y="679" on="1"/>
      </contour>
    </TTGlyph>
    <TTGlyph name="dcaron" xMin="48" yMin="-22" xMax="1533" yMax="1562">
      <component glyphName="d" x="0" y="0" flags="0x204"/>
      <component glyphName="caron.alt" x="1128" y="0" flags="0x4"/>
    </TTGlyph>
    <TTGlyph name="dcroat" xMin="48" yMin="-22" xMax="1275" yMax="1562">
      <contour>
        <pt x="552" y="1338" on="1"/>
        <pt x="872" y="1338" on="1"/>
        <pt x="883" y="1415" on="1"/>
        <pt x="752" y="1435" on="1"/>
        <pt x="772" y="1540" on="1"/>
        <pt x="1102" y="1562" on="1"/>
        <pt x="1183" y="1484" on="1"/>
        <pt x="1162" y="1338" on="1"/>
        <pt x="1275" y="1338" on="1"/>
        <pt x="1261" y="1231" on="1"/>
        <pt x="1147" y="1231" on="1"/>
        <pt x="993" y="125" on="1"/>
        <pt x="1125" y="105" on="1"/>
        <pt x="1105" y="0" on="1"/>
        <pt x="775" y="-22" on="1"/>
        <pt x="694" y="56" on="1"/>
        <pt x="718" y="227" on="1"/>
        <pt x="635" y="104" on="0"/>
        <pt x="438" y="-22" on="0"/>
        <pt x="338" y="-22" on="1"/>
        <pt x="185" y="-22" on="0"/>
        <pt x="48" y="177" on="0"/>
        <pt x="74" y="373" on="1"/>
        <pt x="100" y="561" on="1"/>
        <pt x="138" y="817" on="0"/>
        <pt x="457" y="1107" on="0"/>
        <pt x="688" y="1107" on="1"/>
        <pt x="723" y="1107" on="0"/>
        <pt x="797" y="1101" on="0"/>
        <pt x="839" y="1095" on="1"/>
        <pt x="857" y="1231" on="1"/>
        <pt x="538" y="1231" on="1"/>
      </contour>
      <contour>
        <pt x="377" y="461" on="1"/>
        <pt x="351" y="265" on="0"/>
        <pt x="382" y="106" on="0"/>
        <pt x="444" y="106" on="1"/>
        <pt x="500" y="106" on="0"/>
        <pt x="652" y="248" on="0"/>
        <pt x="741" y="393" on="1"/>
        <pt x="824" y="987" on="1"/>
        <pt x="799" y="993" on="0"/>
        <pt x="716" y="1003" on="0"/>
        <pt x="669" y="1003" on="1"/>
        <pt x="628" y="1003" on="0"/>
        <pt x="541" y="985" on="0"/>
        <pt x="507" y="970" on="1"/>
        <pt x="469" y="896" on="0"/>
        <pt x="411" y="702" on="0"/>
        <pt x="395" y="592" on="1"/>
      </contour>
    </TTGlyph>
    <TTGlyph name="degree" xMin="90" yMin="1048" xMax="624" yMax="1562">
      <contour>
        <pt x="90" y="1305" on="1"/>
        <pt x="90" y="1358" on="0"/>
        <pt x="132" y="1452" on="0"/>
        <pt x="204" y="1522" on="0"/>
        <pt x="301" y="1562" on="0"/>
        <pt x="357" y="1562" on="1"/>
        <pt x="412" y="1562" on="0"/>
        <pt x="510" y="1522" on="0"/>
        <pt x="582" y="1452" on="0"/>
        <pt x="624" y="1358" on="0"/>
        <pt x="624" y="1305" on="1"/>
        <pt x="624" y="1252" on="0"/>
        <pt x="582" y="1158" on="0"/>
        <pt x="510" y="1088" on="0"/>
        <pt x="412" y="1048" on="0"/>
        <pt x="357" y="1048" on="1"/>
        <pt x="301" y="1048" on="0"/>
        <pt x="204" y="1088" on="0"/>
        <pt x="132" y="1158" on="0"/>
        <pt x="90" y="1252" on="0"/>
      </contour>
      <contour>
        <pt x="245" y="1305" on="1"/>
        <pt x="245" y="1247" on="0"/>
        <pt x="309" y="1187" on="0"/>
        <pt x="357" y="1187" on="1"/>
        <pt x="405" y="1187" on="0"/>
        <pt x="469" y="1247" on="0"/>
        <pt x="469" y="1305" on="1"/>
        <pt x="469" y="1363" on="0"/>
        <pt x="405" y="1423" on="0"/>
        <pt x="357" y="1423" on="1"/>
        <pt x="309" y="1423" on="0"/>
        <pt x="245" y="1363" on="0"/>
      </contour>
    </TTGlyph>
    <TTGlyph name="dieresis" xMin="150" yMin="1282" xMax="885" yMax="1540">
      <contour>
        <pt x="150" y="1389" on="1"/>
        <pt x="150" y="1420" on="0"/>
        <pt x="167" y="1475" on="0"/>
        <pt x="196" y="1516" on="0"/>
        <pt x="235" y="1540" on="0"/>
        <pt x="256" y="1540" on="1"/>
        <pt x="287" y="1540" on="0"/>
        <pt x="342" y="1523" on="0"/>
        <pt x="382" y="1493" on="0"/>
        <pt x="405" y="1454" on="0"/>
        <pt x="405" y="1432" on="1"/>
        <pt x="405" y="1402" on="0"/>
        <pt x="388" y="1348" on="0"/>
        <pt x="360" y="1306" on="0"/>
        <pt x="321" y="1282" on="0"/>
        <pt x="300" y="1282" on="1"/>
        <pt x="268" y="1282" on="0"/>
        <pt x="214" y="1299" on="0"/>
        <pt x="173" y="1329" on="0"/>
        <pt x="150" y="1368" on="0"/>
      </contour>
      <contour>
        <pt x="630" y="1389" on="1"/>
        <pt x="630" y="1420" on="0"/>
        <pt x="647" y="1475" on="0"/>
        <pt x="675" y="1516" on="0"/>
        <pt x="714" y="1540" on="0"/>
        <pt x="735" y="1540" on="1"/>
        <pt x="766" y="1540" on="0"/>
        <pt x="821" y="1523" on="0"/>
        <pt x="862" y="1493" on="0"/>
        <pt x="885" y="1454" on="0"/>
        <pt x="885" y="1432" on="1"/>
        <pt x="885" y="1402" on="0"/>
        <pt x="868" y="1348" on="0"/>
        <pt x="839" y="1306" on="0"/>
        <pt x="800" y="1282" on="0"/>
        <pt x="778" y="1282" on="1"/>
        <pt x="746" y="1282" on="0"/>
        <pt x="692" y="1299" on="0"/>
        <pt x="653" y="1329" on="0"/>
        <pt x="630" y="1368" on="0"/>
      </contour>
    </TTGlyph>
    <TTGlyph name="dieresis.case" xMin="-113" yMin="1470" xMax="684" yMax="1728">
      <contour>
        <pt x="-113" y="1577" on="1"/>
        <pt x="-113" y="1608" on="0"/>
        <pt x="-96" y="1663" on="0"/>
        <pt x="-67" y="1704" on="0"/>
        <pt x="-28" y="1728" on="0"/>
        <pt x="-7" y="1728" on="1"/>
        <pt x="24" y="1728" on="0"/>
        <pt x="79" y="1711" on="0"/>
        <pt x="119" y="1682" on="0"/>
        <pt x="142" y="1642" on="0"/>
        <pt x="142" y="1620" on="1"/>
        <pt x="142" y="1590" on="0"/>
        <pt x="125" y="1536" on="0"/>
        <pt x="97" y="1494" on="0"/>
        <pt x="58" y="1470" on="0"/>
        <pt x="37" y="1470" on="1"/>
        <pt x="5" y="1470" on="0"/>
        <pt x="-49" y="1487" on="0"/>
        <pt x="-90" y="1517" on="0"/>
        <pt x="-113" y="1556" on="0"/>
      </contour>
      <contour>
        <pt x="429" y="1577" on="1"/>
        <pt x="429" y="1608" on="0"/>
        <pt x="446" y="1663" on="0"/>
        <pt x="474" y="1704" on="0"/>
        <pt x="513" y="1728" on="0"/>
        <pt x="534" y="1728" on="1"/>
        <pt x="565" y="1728" on="0"/>
        <pt x="620" y="1711" on="0"/>
        <pt x="661" y="1682" on="0"/>
        <pt x="684" y="1642" on="0"/>
        <pt x="684" y="1620" on="1"/>
        <pt x="684" y="1590" on="0"/>
        <pt x="667" y="1536" on="0"/>
        <pt x="638" y="1494" on="0"/>
        <pt x="599" y="1470" on="0"/>
        <pt x="577" y="1470" on="1"/>
        <pt x="545" y="1470" on="0"/>
        <pt x="491" y="1487" on="0"/>
        <pt x="452" y="1517" on="0"/>
        <pt x="429" y="1556" on="0"/>
      </contour>
    </TTGlyph>
    <TTGlyph name="dieresisacute.case" xMin="-113" yMin="1470" xMax="746" yMax="2069">
      <contour>
        <pt x="-113" y="1577" on="1"/>
        <pt x="-113" y="1608" on="0"/>
        <pt x="-96" y="1663" on="0"/>
        <pt x="-67" y="1704" on="0"/>
        <pt x="-28" y="1728" on="0"/>
        <pt x="-7" y="1728" on="1"/>
        <pt x="24" y="1728" on="0"/>
        <pt x="79" y="1711" on="0"/>
        <pt x="119" y="1682" on="0"/>
        <pt x="142" y="1642" on="0"/>
        <pt x="142" y="1620" on="1"/>
        <pt x="142" y="1590" on="0"/>
        <pt x="125" y="1536" on="0"/>
        <pt x="97" y="1494" on="0"/>
        <pt x="58" y="1470" on="0"/>
        <pt x="37" y="1470" on="1"/>
        <pt x="5" y="1470" on="0"/>
        <pt x="-49" y="1487" on="0"/>
        <pt x="-90" y="1517" on="0"/>
        <pt x="-113" y="1556" on="0"/>
      </contour>
      <contour>
        <pt x="429" y="1577" on="1"/>
        <pt x="429" y="1608" on="0"/>
        <pt x="446" y="1663" on="0"/>
        <pt x="474" y="1704" on="0"/>
        <pt x="513" y="1728" on="0"/>
        <pt x="534" y="1728" on="1"/>
        <pt x="565" y="1728" on="0"/>
        <pt x="620" y="1711" on="0"/>
        <pt x="661" y="1682" on="0"/>
        <pt x="684" y="1642" on="0"/>
        <pt x="684" y="1620" on="1"/>
        <pt x="684" y="1590" on="0"/>
        <pt x="667" y="1536" on="0"/>
        <pt x="638" y="1494" on="0"/>
        <pt x="599" y="1470" on="0"/>
        <pt x="577" y="1470" on="1"/>
        <pt x="545" y="1470" on="0"/>
        <pt x="491" y="1487" on="0"/>
        <pt x="452" y="1517" on="0"/>
        <pt x="429" y="1556" on="0"/>
      </contour>
      <contour>
        <pt x="186" y="1788" on="1"/>
        <pt x="464" y="2069" on="1"/>
        <pt x="746" y="2059" on="1"/>
        <pt x="746" y="1993" on="1"/>
        <pt x="331" y="1745" on="1"/>
        <pt x="186" y="1756" on="1"/>
      </contour>
    </TTGlyph>
    <TTGlyph name="dieresisacutecomb" xMin="-8" yMin="1282" xMax="832" yMax="2007">
      <contour>
        <pt x="-8" y="1389" on="1"/>
        <pt x="-8" y="1420" on="0"/>
        <pt x="9" y="1475" on="0"/>
        <pt x="38" y="1516" on="0"/>
        <pt x="77" y="1540" on="0"/>
        <pt x="98" y="1540" on="1"/>
        <pt x="129" y="1540" on="0"/>
        <pt x="184" y="1523" on="0"/>
        <pt x="224" y="1493" on="0"/>
        <pt x="247" y="1454" on="0"/>
        <pt x="247" y="1432" on="1"/>
        <pt x="247" y="1402" on="0"/>
        <pt x="230" y="1348" on="0"/>
        <pt x="202" y="1306" on="0"/>
        <pt x="163" y="1282" on="0"/>
        <pt x="142" y="1282" on="1"/>
        <pt x="110" y="1282" on="0"/>
        <pt x="56" y="1299" on="0"/>
        <pt x="15" y="1329" on="0"/>
        <pt x="-8" y="1368" on="0"/>
      </contour>
      <contour>
        <pt x="472" y="1389" on="1"/>
        <pt x="472" y="1420" on="0"/>
        <pt x="489" y="1475" on="0"/>
        <pt x="517" y="1516" on="0"/>
        <pt x="556" y="1540" on="0"/>
        <pt x="577" y="1540" on="1"/>
        <pt x="608" y="1540" on="0"/>
        <pt x="663" y="1523" on="0"/>
        <pt x="704" y="1493" on="0"/>
        <pt x="727" y="1454" on="0"/>
        <pt x="727" y="1432" on="1"/>
        <pt x="727" y="1402" on="0"/>
        <pt x="710" y="1348" on="0"/>
        <pt x="681" y="1306" on="0"/>
        <pt x="642" y="1282" on="0"/>
        <pt x="620" y="1282" on="1"/>
        <pt x="588" y="1282" on="0"/>
        <pt x="534" y="1299" on="0"/>
        <pt x="495" y="1329" on="0"/>
        <pt x="472" y="1368" on="0"/>
      </contour>
      <contour>
        <pt x="327" y="1644" on="1"/>
        <pt x="561" y="2007" on="1"/>
        <pt x="832" y="1997" on="1"/>
        <pt x="822" y="1931" on="1"/>
        <pt x="456" y="1602" on="1"/>
        <pt x="322" y="1612" on="1"/>
      </contour>
    </TTGlyph>
    <TTGlyph name="dieresiscaron" xMin="-8" yMin="1282" xMax="781" yMax="2007">
      <contour>
        <pt x="92" y="1997" on="1"/>
        <pt x="249" y="2007" on="1"/>
        <pt x="418" y="1759" on="1"/>
        <pt x="658" y="2007" on="1"/>
        <pt x="781" y="1997" on="1"/>
        <pt x="777" y="1965" on="1"/>
        <pt x="491" y="1592" on="1"/>
        <pt x="270" y="1602" on="1"/>
        <pt x="88" y="1965" on="1"/>
      </contour>
      <contour>
        <pt x="472" y="1389" on="1"/>
        <pt x="472" y="1420" on="0"/>
        <pt x="489" y="1475" on="0"/>
        <pt x="517" y="1516" on="0"/>
        <pt x="556" y="1540" on="0"/>
        <pt x="577" y="1540" on="1"/>
        <pt x="608" y="1540" on="0"/>
        <pt x="663" y="1523" on="0"/>
        <pt x="704" y="1493" on="0"/>
        <pt x="727" y="1454" on="0"/>
        <pt x="727" y="1432" on="1"/>
        <pt x="727" y="1402" on="0"/>
        <pt x="710" y="1348" on="0"/>
        <pt x="681" y="1306" on="0"/>
        <pt x="642" y="1282" on="0"/>
        <pt x="620" y="1282" on="1"/>
        <pt x="588" y="1282" on="0"/>
        <pt x="534" y="1299" on="0"/>
        <pt x="495" y="1329" on="0"/>
        <pt x="472" y="1368" on="0"/>
      </contour>
      <contour>
        <pt x="-8" y="1389" on="1"/>
        <pt x="-8" y="1420" on="0"/>
        <pt x="9" y="1475" on="0"/>
        <pt x="38" y="1516" on="0"/>
        <pt x="77" y="1540" on="0"/>
        <pt x="98" y="1540" on="1"/>
        <pt x="129" y="1540" on="0"/>
        <pt x="184" y="1523" on="0"/>
        <pt x="224" y="1493" on="0"/>
        <pt x="247" y="1454" on="0"/>
        <pt x="247" y="1432" on="1"/>
        <pt x="247" y="1402" on="0"/>
        <pt x="230" y="1348" on="0"/>
        <pt x="202" y="1306" on="0"/>
        <pt x="163" y="1282" on="0"/>
        <pt x="142" y="1282" on="1"/>
        <pt x="110" y="1282" on="0"/>
        <pt x="56" y="1299" on="0"/>
        <pt x="15" y="1329" on="0"/>
        <pt x="-8" y="1368" on="0"/>
      </contour>
    </TTGlyph>
    <TTGlyph name="dieresiscaron.case" xMin="-113" yMin="1470" xMax="712" yMax="2079">
      <contour>
        <pt x="-26" y="2069" on="1"/>
        <pt x="129" y="2079" on="1"/>
        <pt x="325" y="1894" on="1"/>
        <pt x="588" y="2079" on="1"/>
        <pt x="712" y="2069" on="1"/>
        <pt x="707" y="2037" on="1"/>
        <pt x="403" y="1745" on="1"/>
        <pt x="181" y="1755" on="1"/>
        <pt x="-31" y="2037" on="1"/>
      </contour>
      <contour>
        <pt x="429" y="1577" on="1"/>
        <pt x="429" y="1608" on="0"/>
        <pt x="446" y="1663" on="0"/>
        <pt x="474" y="1704" on="0"/>
        <pt x="513" y="1728" on="0"/>
        <pt x="534" y="1728" on="1"/>
        <pt x="565" y="1728" on="0"/>
        <pt x="620" y="1711" on="0"/>
        <pt x="661" y="1682" on="0"/>
        <pt x="684" y="1642" on="0"/>
        <pt x="684" y="1620" on="1"/>
        <pt x="684" y="1590" on="0"/>
        <pt x="667" y="1536" on="0"/>
        <pt x="638" y="1494" on="0"/>
        <pt x="599" y="1470" on="0"/>
        <pt x="577" y="1470" on="1"/>
        <pt x="545" y="1470" on="0"/>
        <pt x="491" y="1487" on="0"/>
        <pt x="452" y="1517" on="0"/>
        <pt x="429" y="1556" on="0"/>
      </contour>
      <contour>
        <pt x="-113" y="1577" on="1"/>
        <pt x="-113" y="1608" on="0"/>
        <pt x="-96" y="1663" on="0"/>
        <pt x="-67" y="1704" on="0"/>
        <pt x="-28" y="1728" on="0"/>
        <pt x="-7" y="1728" on="1"/>
        <pt x="24" y="1728" on="0"/>
        <pt x="79" y="1711" on="0"/>
        <pt x="119" y="1682" on="0"/>
        <pt x="142" y="1642" on="0"/>
        <pt x="142" y="1620" on="1"/>
        <pt x="142" y="1590" on="0"/>
        <pt x="125" y="1536" on="0"/>
        <pt x="97" y="1494" on="0"/>
        <pt x="58" y="1470" on="0"/>
        <pt x="37" y="1470" on="1"/>
        <pt x="5" y="1470" on="0"/>
        <pt x="-49" y="1487" on="0"/>
        <pt x="-90" y="1517" on="0"/>
        <pt x="-113" y="1556" on="0"/>
      </contour>
    </TTGlyph>
    <TTGlyph name="dieresisgrave.case" xMin="-113" yMin="1470" xMax="684" yMax="2069">
      <contour>
        <pt x="-113" y="1577" on="1"/>
        <pt x="-113" y="1608" on="0"/>
        <pt x="-96" y="1663" on="0"/>
        <pt x="-67" y="1704" on="0"/>
        <pt x="-28" y="1728" on="0"/>
        <pt x="-7" y="1728" on="1"/>
        <pt x="24" y="1728" on="0"/>
        <pt x="79" y="1711" on="0"/>
        <pt x="119" y="1682" on="0"/>
        <pt x="142" y="1642" on="0"/>
        <pt x="142" y="1620" on="1"/>
        <pt x="142" y="1590" on="0"/>
        <pt x="125" y="1536" on="0"/>
        <pt x="97" y="1494" on="0"/>
        <pt x="58" y="1470" on="0"/>
        <pt x="37" y="1470" on="1"/>
        <pt x="5" y="1470" on="0"/>
        <pt x="-49" y="1487" on="0"/>
        <pt x="-90" y="1517" on="0"/>
        <pt x="-113" y="1556" on="0"/>
      </contour>
      <contour>
        <pt x="429" y="1577" on="1"/>
        <pt x="429" y="1608" on="0"/>
        <pt x="446" y="1663" on="0"/>
        <pt x="474" y="1704" on="0"/>
        <pt x="513" y="1728" on="0"/>
        <pt x="534" y="1728" on="1"/>
        <pt x="565" y="1728" on="0"/>
        <pt x="620" y="1711" on="0"/>
        <pt x="661" y="1682" on="0"/>
        <pt x="684" y="1642" on="0"/>
        <pt x="684" y="1620" on="1"/>
        <pt x="684" y="1590" on="0"/>
        <pt x="667" y="1536" on="0"/>
        <pt x="638" y="1494" on="0"/>
        <pt x="599" y="1470" on="0"/>
        <pt x="577" y="1470" on="1"/>
        <pt x="545" y="1470" on="0"/>
        <pt x="491" y="1487" on="0"/>
        <pt x="452" y="1517" on="0"/>
        <pt x="429" y="1556" on="0"/>
      </contour>
      <contour>
        <pt x="415" y="1756" on="1"/>
        <pt x="269" y="1745" on="1"/>
        <pt x="-91" y="1993" on="1"/>
        <pt x="-82" y="2059" on="1"/>
        <pt x="201" y="2069" on="1"/>
        <pt x="420" y="1788" on="1"/>
      </contour>
    </TTGlyph>
    <TTGlyph name="dieresisgravecomb" xMin="-8" yMin="1282" xMax="727" yMax="2007">
      <contour>
        <pt x="-8" y="1389" on="1"/>
        <pt x="-8" y="1420" on="0"/>
        <pt x="9" y="1475" on="0"/>
        <pt x="38" y="1516" on="0"/>
        <pt x="77" y="1540" on="0"/>
        <pt x="98" y="1540" on="1"/>
        <pt x="129" y="1540" on="0"/>
        <pt x="184" y="1523" on="0"/>
        <pt x="224" y="1493" on="0"/>
        <pt x="247" y="1454" on="0"/>
        <pt x="247" y="1432" on="1"/>
        <pt x="247" y="1402" on="0"/>
        <pt x="230" y="1348" on="0"/>
        <pt x="202" y="1306" on="0"/>
        <pt x="163" y="1282" on="0"/>
        <pt x="142" y="1282" on="1"/>
        <pt x="110" y="1282" on="0"/>
        <pt x="56" y="1299" on="0"/>
        <pt x="15" y="1329" on="0"/>
        <pt x="-8" y="1368" on="0"/>
      </contour>
      <contour>
        <pt x="472" y="1389" on="1"/>
        <pt x="472" y="1420" on="0"/>
        <pt x="489" y="1475" on="0"/>
        <pt x="517" y="1516" on="0"/>
        <pt x="556" y="1540" on="0"/>
        <pt x="577" y="1540" on="1"/>
        <pt x="608" y="1540" on="0"/>
        <pt x="663" y="1523" on="0"/>
        <pt x="704" y="1493" on="0"/>
        <pt x="727" y="1454" on="0"/>
        <pt x="727" y="1432" on="1"/>
        <pt x="727" y="1402" on="0"/>
        <pt x="710" y="1348" on="0"/>
        <pt x="681" y="1306" on="0"/>
        <pt x="642" y="1282" on="0"/>
        <pt x="620" y="1282" on="1"/>
        <pt x="588" y="1282" on="0"/>
        <pt x="534" y="1299" on="0"/>
        <pt x="495" y="1329" on="0"/>
        <pt x="472" y="1368" on="0"/>
      </contour>
      <contour>
        <pt x="473" y="1612" on="1"/>
        <pt x="324" y="1602" on="1"/>
        <pt x="50" y="1931" on="1"/>
        <pt x="60" y="1997" on="1"/>
        <pt x="346" y="2007" on="1"/>
        <pt x="478" y="1644" on="1"/>
      </contour>
    </TTGlyph>
    <TTGlyph name="dieresismacron" xMin="-8" yMin="1282" xMax="818" yMax="1784">
      <contour>
        <pt x="-8" y="1389" on="1"/>
        <pt x="-8" y="1420" on="0"/>
        <pt x="9" y="1475" on="0"/>
        <pt x="38" y="1516" on="0"/>
        <pt x="77" y="1540" on="0"/>
        <pt x="98" y="1540" on="1"/>
        <pt x="129" y="1540" on="0"/>
        <pt x="184" y="1523" on="0"/>
        <pt x="224" y="1493" on="0"/>
        <pt x="247" y="1454" on="0"/>
        <pt x="247" y="1432" on="1"/>
        <pt x="247" y="1402" on="0"/>
        <pt x="230" y="1348" on="0"/>
        <pt x="202" y="1306" on="0"/>
        <pt x="163" y="1282" on="0"/>
        <pt x="142" y="1282" on="1"/>
        <pt x="110" y="1282" on="0"/>
        <pt x="56" y="1299" on="0"/>
        <pt x="15" y="1329" on="0"/>
        <pt x="-8" y="1368" on="0"/>
      </contour>
      <contour>
        <pt x="472" y="1389" on="1"/>
        <pt x="472" y="1420" on="0"/>
        <pt x="489" y="1475" on="0"/>
        <pt x="517" y="1516" on="0"/>
        <pt x="556" y="1540" on="0"/>
        <pt x="577" y="1540" on="1"/>
        <pt x="608" y="1540" on="0"/>
        <pt x="663" y="1523" on="0"/>
        <pt x="704" y="1493" on="0"/>
        <pt x="727" y="1454" on="0"/>
        <pt x="727" y="1432" on="1"/>
        <pt x="727" y="1402" on="0"/>
        <pt x="710" y="1348" on="0"/>
        <pt x="681" y="1306" on="0"/>
        <pt x="642" y="1282" on="0"/>
        <pt x="620" y="1282" on="1"/>
        <pt x="588" y="1282" on="0"/>
        <pt x="534" y="1299" on="0"/>
        <pt x="495" y="1329" on="0"/>
        <pt x="472" y="1368" on="0"/>
      </contour>
      <contour>
        <pt x="68" y="1784" on="1"/>
        <pt x="818" y="1784" on="1"/>
        <pt x="778" y="1634" on="1"/>
        <pt x="28" y="1634" on="1"/>
      </contour>
    </TTGlyph>
    <TTGlyph name="dieresismacron.case" xMin="-113" yMin="1470" xMax="751" yMax="1934">
      <contour>
        <pt x="-113" y="1577" on="1"/>
        <pt x="-113" y="1608" on="0"/>
        <pt x="-96" y="1663" on="0"/>
        <pt x="-67" y="1704" on="0"/>
        <pt x="-28" y="1728" on="0"/>
        <pt x="-7" y="1728" on="1"/>
        <pt x="24" y="1728" on="0"/>
        <pt x="79" y="1711" on="0"/>
        <pt x="119" y="1682" on="0"/>
        <pt x="142" y="1642" on="0"/>
        <pt x="142" y="1620" on="1"/>
        <pt x="142" y="1590" on="0"/>
        <pt x="125" y="1536" on="0"/>
        <pt x="97" y="1494" on="0"/>
        <pt x="58" y="1470" on="0"/>
        <pt x="37" y="1470" on="1"/>
        <pt x="5" y="1470" on="0"/>
        <pt x="-49" y="1487" on="0"/>
        <pt x="-90" y="1517" on="0"/>
        <pt x="-113" y="1556" on="0"/>
      </contour>
      <contour>
        <pt x="429" y="1577" on="1"/>
        <pt x="429" y="1608" on="0"/>
        <pt x="446" y="1663" on="0"/>
        <pt x="474" y="1704" on="0"/>
        <pt x="513" y="1728" on="0"/>
        <pt x="534" y="1728" on="1"/>
        <pt x="565" y="1728" on="0"/>
        <pt x="620" y="1711" on="0"/>
        <pt x="661" y="1682" on="0"/>
        <pt x="684" y="1642" on="0"/>
        <pt x="684" y="1620" on="1"/>
        <pt x="684" y="1590" on="0"/>
        <pt x="667" y="1536" on="0"/>
        <pt x="638" y="1494" on="0"/>
        <pt x="599" y="1470" on="0"/>
        <pt x="577" y="1470" on="1"/>
        <pt x="545" y="1470" on="0"/>
        <pt x="491" y="1487" on="0"/>
        <pt x="452" y="1517" on="0"/>
        <pt x="429" y="1556" on="0"/>
      </contour>
      <contour>
        <pt x="-59" y="1934" on="1"/>
        <pt x="751" y="1934" on="1"/>
        <pt x="732" y="1784" on="1"/>
        <pt x="-78" y="1784" on="1"/>
      </contour>
    </TTGlyph>
</ttFont>
